<svg width="16" height="17" fill="none" xmlns="http://www.w3.org/2000/svg"><path fill-rule="evenodd" clip-rule="evenodd" d="M8 1.833c3.314 0 6 2.657 6 5.935 0 2.17-1.815 4.462-5.368 6.96l-.632.44-.381-.264C3.9 12.337 2 9.988 2 7.768 2 4.49 4.686 1.833 8 1.833zm0 1.32c-2.577 0-4.667 2.066-4.667 4.615 0 1.602 1.532 3.556 4.667 5.787 3.136-2.23 4.667-4.185 4.667-5.787 0-2.55-2.09-4.616-4.667-4.616zM8 4.5a2.667 2.667 0 110 5.333A2.667 2.667 0 018 4.5zm0 1.333A1.333 1.333 0 108 8.5a1.333 1.333 0 000-2.667z" fill="#63B5B6"/></svg>