<svg width="16" height="17" fill="none" xmlns="http://www.w3.org/2000/svg"><path fill-rule="evenodd" clip-rule="evenodd" d="M6.37 7.055a.667.667 0 00.297-.555V3.833a2 2 0 00-2-2H2a.667.667 0 00-.667.667c0 6.627 6.04 12.667 12.667 12.667a.667.667 0 00.667-.667v-2.667a2 2 0 00-2-2H10a.667.667 0 00-.555.297l-1.27 1.906a12.593 12.593 0 01-3.528-3.437l-.182-.274 1.905-1.27zm3.987 4.112h2.31c.368 0 .667.298.667.666v1.977a10.567 10.567 0 01-3.728-.982l-.27-.13 1.021-1.531zm-7.667-8h1.977c.368 0 .666.298.666.666v2.31l-1.53 1.021A10.635 10.635 0 012.69 3.167z" fill="#63B5B6"/></svg>