<svg width="74" height="86" fill="none" xmlns="http://www.w3.org/2000/svg"><path fill="#C4C4C4" d="M0 12h74v74H0z"/><path fill="#fff" d="M37 12h37v37H37z"/><path d="M55.982 22l6.272-7.136c2.048-2.39 3.264-3.872 3.648-4.448.832-1.237 1.248-2.379 1.248-3.424 0-.96-.31-1.739-.928-2.336-.597-.597-1.344-.896-2.24-.896-1.024 0-1.834.352-2.432 1.056-.597.683-.917 1.515-.96 2.496h-4.288c.086-2.155.822-3.883 2.208-5.184C59.897.827 61.657.176 63.79.176c2.347 0 4.182.672 5.504 2.016 1.344 1.344 2.016 2.933 2.016 4.768 0 1.024-.234 2.048-.704 3.072s-.917 1.803-1.344 2.336a56.217 56.217 0 01-1.824 2.048l-3.68 4h7.712V22H55.982z" fill="#000"/></svg>