<svg width="74" height="86" fill="none" xmlns="http://www.w3.org/2000/svg"><path fill="#C4C4C4" d="M74 12H0v74h74z"/><path fill="#fff" d="M37 12H0v37h37z"/><path d="M4.942 6.224H1.038c.192-1.899.928-3.381 2.208-4.448C4.526.709 6.105.176 7.982.176c2.048 0 3.67.533 4.864 1.6 1.216 1.067 1.824 2.496 1.824 4.288 0 2.07-.821 3.563-2.464 4.48 2.176.896 3.264 2.592 3.264 5.088 0 2.133-.725 3.808-2.176 5.024-1.429 1.216-3.242 1.824-5.44 1.824-2.09 0-3.85-.597-5.28-1.792-1.429-1.216-2.229-2.827-2.4-4.832h4.16c.128.917.502 1.653 1.12 2.208.619.555 1.43.832 2.432.832 1.11 0 1.952-.33 2.528-.992a3.529 3.529 0 00.896-2.4c0-.896-.298-1.675-.896-2.336-.576-.661-1.461-.992-2.656-.992h-.544V9.168h.576c.96 0 1.686-.277 2.176-.832.491-.576.736-1.27.736-2.08 0-.853-.256-1.536-.768-2.048S8.74 3.44 7.886 3.44c-.789 0-1.472.245-2.048.736-.554.49-.853 1.173-.896 2.048z" fill="#000"/></svg>