<svg width="43" height="53" fill="none" xmlns="http://www.w3.org/2000/svg"><path fill="#C4C4C4" d="M0 11h42v42H0z"/><path fill="#fff" d="M21 11h21v21H21z"/><path d="M27 21.824l6.272-7.136c2.048-2.39 3.264-3.872 3.648-4.448.832-1.237 1.248-2.379 1.248-3.424 0-.96-.31-1.739-.928-2.336-.597-.597-1.344-.896-2.24-.896-1.024 0-1.835.352-2.432 1.056-.597.683-.917 1.515-.96 2.496H27.32c.085-2.155.821-3.883 2.208-5.184C30.915.651 32.675 0 34.808 0c2.347 0 4.181.672 5.504 2.016 1.344 1.344 2.016 2.933 2.016 4.768 0 1.024-.235 2.048-.704 3.072-.47 1.024-.917 1.803-1.344 2.336a56.217 56.217 0 01-1.824 2.048l-3.68 4h7.712v3.584H27z" fill="#000"/></svg>