<svg width="51" height="40" viewBox="0 0 51 40" fill="none" xmlns="http://www.w3.org/2000/svg">
<g clip-path="url(#clip0)">
<path d="M49.9959 39.4577V39.5605H50.091C50.1088 39.5608 50.1264 39.5563 50.142 39.5474C50.1482 39.543 50.1532 39.537 50.1565 39.5302C50.1599 39.5233 50.1614 39.5157 50.1611 39.5081C50.1614 39.5006 50.1598 39.4931 50.1565 39.4864C50.1531 39.4797 50.1481 39.474 50.142 39.4698C50.1266 39.4604 50.1089 39.4559 50.091 39.4566H49.9959V39.4577ZM50.092 39.3849C50.1328 39.3824 50.1731 39.3942 50.2062 39.4183C50.2195 39.4293 50.23 39.4432 50.237 39.459C50.2439 39.4748 50.2471 39.4921 50.2463 39.5093C50.2469 39.5242 50.2443 39.539 50.2388 39.5528C50.2332 39.5666 50.2248 39.579 50.2141 39.5893C50.1886 39.6117 50.1566 39.6251 50.1229 39.6276L50.2504 39.7741H50.1522L50.0349 39.6286H49.9969V39.7741H49.9148V39.3852H50.0933L50.092 39.3849ZM50.0665 39.9083C50.1096 39.9087 50.1522 39.9 50.1917 39.8826C50.2298 39.8661 50.2644 39.8425 50.2937 39.8129C50.3231 39.7835 50.3466 39.7486 50.3628 39.7101C50.3963 39.6286 50.3963 39.5371 50.3628 39.4556C50.3463 39.4173 50.3229 39.3824 50.2937 39.3528C50.2644 39.3233 50.2298 39.2996 50.1917 39.2831C50.152 39.2667 50.1094 39.2585 50.0665 39.259C50.0228 39.2585 49.9795 39.2668 49.939 39.2831C49.9001 39.2993 49.8647 39.323 49.8347 39.3528C49.7896 39.3994 49.7591 39.4584 49.747 39.5224C49.7349 39.5864 49.7417 39.6526 49.7666 39.7127C49.7822 39.7513 49.8053 39.7863 49.8347 39.8155C49.8647 39.8453 49.9001 39.8689 49.939 39.8852C49.9793 39.9025 50.0227 39.9113 50.0665 39.9109V39.9083ZM50.0665 39.1654C50.1786 39.1653 50.2862 39.2096 50.3661 39.2888C50.4047 39.3268 50.4353 39.3721 50.4564 39.4222C50.4782 39.4736 50.4894 39.5289 50.4894 39.5848C50.4894 39.6407 50.4782 39.696 50.4564 39.7474C50.4349 39.7972 50.4042 39.8424 50.3661 39.8808C50.327 39.9186 50.2815 39.9491 50.2317 39.9708C50.1795 39.9932 50.1233 40.0045 50.0665 40.0042C50.0091 40.0046 49.9522 39.9932 49.8992 39.9708C49.8489 39.9496 49.803 39.9191 49.7638 39.8808C49.7257 39.841 49.6955 39.7942 49.6748 39.743C49.653 39.6916 49.6418 39.6363 49.6418 39.5804C49.6418 39.5245 49.653 39.4692 49.6748 39.4178C49.6959 39.3678 49.7266 39.3224 49.7651 39.2844C49.8037 39.2455 49.8498 39.2149 49.9005 39.1944C49.9534 39.172 50.0103 39.1606 50.0678 39.161L50.0665 39.1654ZM11.0209 37.6633C11.0209 36.9217 11.5029 36.3124 12.2905 36.3124C13.0433 36.3124 13.5513 36.8954 13.5513 37.6633C13.5513 38.4312 13.0433 39.0142 12.2905 39.0142C11.5029 39.0142 11.0209 38.405 11.0209 37.6633ZM14.4093 37.6633V35.5527H13.4992V36.0669C13.2106 35.6869 12.7728 35.4486 12.1773 35.4486C11.0043 35.4486 10.0838 36.3761 10.0838 37.6643C10.0838 38.9525 11.0038 39.88 12.1773 39.88C12.7725 39.88 13.2106 39.6415 13.4992 39.2618V39.7741H14.4083V37.6633H14.4093ZM45.1603 37.6633C45.1603 36.9217 45.6423 36.3124 46.4302 36.3124C47.1837 36.3124 47.6909 36.8954 47.6909 37.6633C47.6909 38.4312 47.1837 39.0142 46.4302 39.0142C45.6425 39.0142 45.1603 38.405 45.1603 37.6633ZM48.5498 37.6633V33.8586H47.6389V36.0669C47.3502 35.6869 46.9124 35.4486 46.317 35.4486C45.144 35.4486 44.2234 36.3761 44.2234 37.6643C44.2234 38.9525 45.1435 39.88 46.317 39.88C46.9124 39.88 47.3502 39.6415 47.6389 39.2618V39.7741H48.5498V37.6633ZM25.7048 36.2689C26.2913 36.2689 26.668 36.6396 26.7641 37.2924H24.5925C24.6897 36.6831 25.0566 36.2689 25.7051 36.2689H25.7048ZM25.7232 35.4463C24.4966 35.4463 23.6386 36.3461 23.6386 37.662C23.6386 39.0037 24.5311 39.8777 25.7841 39.8777C26.4145 39.8777 26.9918 39.7191 27.4998 39.2865L27.0538 38.6065C26.7029 38.8893 26.2561 39.0479 25.8361 39.0479C25.2496 39.0479 24.7157 38.7741 24.5844 38.0145H27.692C27.701 37.9003 27.7101 37.7852 27.7101 37.6618C27.701 36.3463 26.8941 35.4461 25.7227 35.4461L25.7232 35.4463ZM36.7106 37.6618C36.7106 36.9201 37.1926 36.3109 37.9803 36.3109C38.733 36.3109 39.241 36.8939 39.241 37.6618C39.241 38.4296 38.733 39.0127 37.9803 39.0127C37.1926 39.0127 36.7104 38.4034 36.7104 37.6618H36.7106ZM40.0988 37.6618V35.5527H39.1892V36.0669C38.8995 35.6869 38.4627 35.4486 37.8673 35.4486C36.6943 35.4486 35.7738 36.3761 35.7738 37.6643C35.7738 38.9525 36.6938 39.88 37.8673 39.88C38.4627 39.88 38.8995 39.6415 39.1892 39.2618V39.7741H40.0991V37.6633L40.0988 37.6618ZM31.5711 37.6618C31.5711 38.9417 32.4549 39.8775 33.8039 39.8775C34.4342 39.8775 34.8542 39.7361 35.3084 39.3744L34.8713 38.6327C34.5296 38.8803 34.1708 39.0127 33.7748 39.0127C33.0483 39.0037 32.5141 38.4741 32.5141 37.6618C32.5141 36.8494 33.0483 36.3201 33.7748 36.3109C34.1698 36.3109 34.5286 36.4432 34.8713 36.6908L35.3084 35.9492C34.8535 35.5875 34.4335 35.4461 33.8039 35.4461C32.4549 35.4461 31.5711 36.3815 31.5711 37.6618ZM43.3036 35.4461C42.7786 35.4461 42.4366 35.6936 42.2003 36.0643V35.5527H41.2983V39.7718H42.2094V37.4067C42.2094 36.7085 42.507 36.3206 43.1019 36.3206C43.2968 36.3178 43.4902 36.3539 43.6711 36.4268L43.9516 35.562C43.7502 35.4821 43.4875 35.4468 43.3031 35.4468L43.3036 35.4461ZM18.9088 35.8882C18.471 35.5972 17.8677 35.4468 17.2021 35.4468C16.1418 35.4468 15.4592 35.9592 15.4592 36.7975C15.4592 37.4854 15.9674 37.9098 16.9032 38.0422L17.3332 38.1039C17.8322 38.1746 18.0678 38.307 18.0678 38.5453C18.0678 38.8715 17.7363 39.0577 17.1139 39.0577C16.4835 39.0577 16.0286 38.8546 15.7218 38.6163L15.2942 39.3317C15.7932 39.7024 16.4236 39.8793 17.1062 39.8793C18.3149 39.8793 19.0154 39.3055 19.0154 38.5021C19.0154 37.7605 18.4641 37.3726 17.5532 37.2402L17.1243 37.1774C16.7304 37.126 16.4147 37.0461 16.4147 36.7633C16.4147 36.4548 16.7122 36.2692 17.2115 36.2692C17.7458 36.2692 18.2629 36.4723 18.5164 36.6309L18.9103 35.8893L18.9088 35.8882ZM30.6518 35.4476C30.1268 35.4476 29.7848 35.6952 29.5495 36.0659V35.5527H28.6475V39.7718H29.5576V37.4067C29.5576 36.7085 29.8552 36.3206 30.4501 36.3206C30.6449 36.3178 30.8384 36.3539 31.0193 36.4268L31.2998 35.562C31.0983 35.4821 30.8357 35.4468 30.6513 35.4468L30.6518 35.4476ZM22.8855 35.5527H21.3974V34.2728H20.4773V35.5527H19.6284V36.3913H20.4773V38.316C20.4773 39.2949 20.8542 39.878 21.9308 39.878C22.3258 39.878 22.7807 39.7546 23.0694 39.5518L22.8065 38.7661C22.5349 38.9248 22.2373 39.0047 22.0007 39.0047C21.5458 39.0047 21.3974 38.7219 21.3974 38.2985V36.3921H22.8855V35.5527ZM9.279 39.7728V37.125C9.279 36.1278 8.64864 35.4569 7.63246 35.4479C7.09824 35.4389 6.54718 35.6065 6.16137 36.1985C5.87271 35.7306 5.41779 35.4479 4.77825 35.4479C4.33123 35.4479 3.89442 35.5803 3.55246 36.0743V35.5527H2.6416V39.7718H3.5596V37.4325C3.5596 36.7001 3.9625 36.3109 4.5847 36.3109C5.18905 36.3109 5.4948 36.708 5.4948 37.4232V39.7713H6.41484V37.4319C6.41484 36.6995 6.83482 36.3103 7.43892 36.3103C8.06035 36.3103 8.35692 36.7075 8.35692 37.4227V39.7708L9.279 39.7728Z" fill="#231F20"/>
<path d="M50.5138 25.7382V25.1213H50.3545L50.1701 25.5447L49.9868 25.1213H49.8269V25.7382H49.9401V25.2735L50.1125 25.6745H50.2298L50.4022 25.2725V25.7382H50.5144H50.5138ZM49.5028 25.7382V25.227H49.7068V25.1229H49.1855V25.227H49.3895V25.7382H49.5017H49.5028Z" fill="#C4C4C4"/>
<path d="M32.3993 28.3842H18.6074V3.39709H32.3995L32.3993 28.3842Z" fill="#C4C4C4"/>
<path d="M19.482 15.8905C19.482 10.8219 21.8362 6.30674 25.502 3.39697C22.7272 1.19118 19.2951 -0.00597888 15.7613 -0.000715138C7.05636 -0.000715138 0 7.11394 0 15.8905C0 24.6671 7.05636 31.7818 15.7613 31.7818C19.2951 31.7871 22.7273 30.59 25.5023 28.3841C21.8367 25.4749 19.482 20.9594 19.482 15.8905Z" fill="#717171"/>
<path d="M51.0056 15.8913C51.0056 24.6679 43.9492 31.7825 35.2443 31.7825C31.71 31.7878 28.2774 30.5906 25.502 28.3848C29.1689 25.4751 31.523 20.9602 31.523 15.8913C31.523 10.8224 29.1689 6.30747 25.502 3.3977C28.2774 1.19198 31.7099 -0.00515419 35.244 1.66811e-05C43.9489 1.66811e-05 51.0053 7.11467 51.0053 15.8913" fill="#989797"/>
</g>
<defs>
<clipPath id="clip0">
<rect width="51" height="40" fill="white"/>
</clipPath>
</defs>
</svg>
