<svg width="78" height="34" viewBox="0 0 78 34" fill="none" xmlns="http://www.w3.org/2000/svg">
<g clip-path="url(#clip0)">
<path d="M31.5426 32.3553C31.3942 31.9524 31.1252 31.6777 30.9304 31.3206C30.4572 30.7071 29.9006 30.176 29.344 29.645C29.1492 29.5809 29.0657 29.3977 28.8802 29.3245C28.7596 29.1688 28.5648 29.0864 28.407 28.9674C28.0916 28.7293 27.7484 28.5279 27.3959 28.3264C26.7279 27.9052 25.9023 27.6397 25.0859 27.365C24.2046 27.1544 23.2769 26.9987 22.3121 26.8705C21.3566 26.7332 20.4011 26.605 19.6775 26.2296C19.26 26.1106 18.9539 25.8816 18.5921 25.6985C18.2581 25.4788 17.8963 25.2956 17.618 25.0209C17.2748 24.8195 17.0614 24.4807 16.7924 24.206C16.6996 24.0229 16.5419 23.913 16.4677 23.7116C16.3749 23.6749 16.3471 23.565 16.2914 23.501C16.2265 23.4277 16.2265 23.2812 16.1152 23.2537C16.0595 23.6291 16.0781 24.0778 16.1152 24.4624C16.1616 24.6272 16.1801 24.8286 16.2265 24.9935C16.2543 25.14 16.3935 25.378 16.3378 25.4879C13.4434 25.3414 11.3283 24.4349 9.49149 23.2446C8.58236 22.6494 7.8031 21.926 7.0795 21.1477C6.76409 20.7174 6.42084 20.3053 6.14254 19.8292C5.85495 19.3622 5.61375 18.8311 5.354 18.3367C4.92726 17.2654 4.52836 16.1666 4.37993 14.8206C4.18511 13.5661 4.2315 11.9638 4.51908 10.8009C4.62113 10.1599 4.8345 9.6197 5.02003 9.06115C5.14063 8.80477 5.27051 8.54839 5.38183 8.28285C5.53954 8.06309 5.62303 7.76093 5.81785 7.56864C6.34663 6.5889 7.13516 5.85638 7.94225 5.15132C8.81428 4.51953 9.8069 4.00676 11.0036 3.69544C12.154 3.43906 13.7217 3.39328 14.9648 3.65882C17.4882 4.17158 19.3899 5.28867 20.9855 6.71709C22.5997 8.11803 23.8428 9.89439 24.6963 12.0553C25.5776 14.1064 25.8837 17.302 25.0952 19.6278C24.7705 19.4446 24.4458 19.2706 24.1211 19.0967C23.7315 18.9868 23.3511 18.8586 22.8966 18.8128C22.3492 18.8037 21.8112 18.8128 21.4587 18.9868C22.173 18.9135 22.7481 19.1058 23.1934 19.2706C23.4532 19.3714 23.6016 19.4355 23.8057 19.5545C24.2046 19.7834 24.5571 19.994 24.854 20.3053C25.6982 21.0379 26.3012 22.0084 26.5888 23.2904C26.5888 23.327 26.6352 23.3178 26.6259 23.2537C26.663 23.2446 26.6815 23.2171 26.7001 23.1805C26.7465 23.1255 26.8021 23.0706 26.8485 23.0065C26.9413 22.8966 27.0341 22.7867 27.099 22.6494C27.2938 22.4205 27.4515 22.1641 27.6 21.8986C27.9432 21.4041 28.203 20.8364 28.4998 20.2962C29.01 19.1425 29.4275 17.8972 29.6873 16.4871C30.2068 13.3555 29.5852 10.3888 28.4998 8.20044C27.3866 5.99372 25.8281 4.22652 23.815 2.89883C21.7834 1.58029 19.4085 0.6097 16.143 0.518135C16.1245 0.45404 16.0966 0.527292 16.0317 0.518135C14.3062 0.463196 12.9147 0.701265 11.5324 1.04921C10.8923 1.25981 10.2244 1.44294 9.65847 1.72679C9.00909 1.93739 8.48959 2.28534 7.89587 2.54172C7.6825 2.74317 7.35781 2.84389 7.13516 3.03617C6.84758 3.17352 6.63421 3.39328 6.34663 3.53062C5.88278 3.93351 5.39111 4.29061 4.93654 4.70266C4.49125 5.10554 4.10162 5.56337 3.67489 5.98457C3.60995 6.13107 3.49863 6.23179 3.3873 6.34167C3.31309 6.47902 3.22032 6.59805 3.09972 6.69877C3.05334 6.86359 2.90491 6.92769 2.84924 7.0925C2.72864 7.18407 2.70081 7.3672 2.56166 7.44961C2.44106 7.74261 2.22769 7.95321 2.08854 8.22791C1.92156 8.49345 1.79168 8.78646 1.6247 9.04284C1.36494 9.63801 1.08664 10.2149 0.873269 10.8558C0.650624 11.4785 0.465086 12.1377 0.33521 12.8519C0.196057 13.5204 0.0661804 14.3902 0.0847341 15.0953C-0.00803465 15.3517 0.0661804 15.8278 0.0847341 16.13C0.0847341 16.1849 0.0476266 16.2032 0.0476266 16.2398C0.0476266 16.5786 0.140395 16.9907 0.158949 17.2013C0.233164 17.9796 0.372317 18.7029 0.594962 19.3347C0.734116 20.0398 1.03098 20.5892 1.24434 21.221C1.56903 21.7521 1.79168 22.3839 2.18131 22.86C2.46889 23.4185 2.87707 23.8581 3.2667 24.3159C3.68416 24.7554 4.10162 25.2041 4.60257 25.5612C5.52098 26.3486 6.5971 26.9804 7.77527 27.5207C9.97389 28.5737 13.2579 29.2604 16.2079 29.0864C16.9594 28.9857 17.7201 28.8941 18.4066 28.7293C19.0374 28.5004 19.7703 28.3631 20.531 28.2715C22.2658 28.1616 23.7686 28.3173 25.1045 28.7018C26.4589 29.0589 27.6278 29.5992 28.639 30.3042C29.177 30.6156 29.6223 31.0184 30.0769 31.403C30.5407 31.7967 30.9118 32.282 31.3385 32.7215C31.3942 32.8864 31.5055 33.0054 31.589 33.1519C31.7003 33.2709 31.6447 33.5456 31.9137 33.509C32.0807 33.3442 31.8859 33.1061 31.8766 32.9047C31.7096 32.7307 31.6725 32.5018 31.5426 32.3553Z" fill="#C4C4C4"/>
<path d="M24.8061 22.613C24.769 22.613 24.7597 22.6404 24.7319 22.6496C24.6669 22.7869 24.6947 23.0067 24.7319 23.144C24.9267 23.5378 24.9916 24.0505 25.4183 24.2153C25.6224 24.1512 25.6039 23.8582 25.5946 23.5744C25.5018 23.2264 25.372 22.9151 25.1586 22.6862C25.0102 22.6313 24.9081 22.5397 24.8061 22.613ZM22.2828 23.611C22.2828 23.5927 22.2549 23.5744 22.2456 23.611C21.8931 23.5652 21.7725 23.7575 21.5963 23.8949C21.2901 24.6915 21.7818 25.4698 22.6446 25.4606C22.9878 25.3782 23.2012 25.1584 23.2568 24.783C23.2104 24.1146 22.9229 23.6843 22.2828 23.611Z" fill="#C4C4C4"/>
<path d="M43.0824 21.0747C43.2215 21.6515 43.5184 22.0636 43.8524 22.4482C44.1863 22.8327 44.576 23.1532 45.0491 23.3913C45.4944 23.666 45.9768 23.8949 46.5334 24.0506C46.8024 24.1421 47.0622 24.252 47.3961 24.2886C47.6281 24.4168 47.9064 24.4809 47.9249 24.8105C47.9156 25.2043 47.6466 25.3508 47.3034 25.424C46.9601 25.3508 46.5334 25.3599 46.2458 25.2317C45.5222 25.1493 44.9378 24.9204 44.3255 24.7098C43.1566 24.2611 42.1732 23.611 41.3569 22.8144C41.1899 22.5397 40.958 22.32 40.7817 22.0544C40.6055 21.7889 40.4849 21.4684 40.2993 21.2029C38.8707 21.0198 37.8966 20.3788 37.0431 19.6371C36.2546 18.7489 35.6238 17.6868 35.364 16.2767C35.0579 14.9215 35.1507 13.2276 35.5124 11.9182C36.301 9.38185 37.9523 7.69705 41.0693 7.46814C41.9321 7.49561 42.6835 7.59633 43.37 7.85271C44.0657 8.09994 44.7244 8.55776 45.2439 9.0339C45.2903 9.07053 45.3088 9.07968 45.3367 9.12546C45.448 9.28113 45.717 9.50088 45.8654 9.69317C45.8933 9.72979 45.884 9.79389 45.9118 9.83967C45.9675 9.92208 46.051 9.95871 46.1066 10.032C46.1345 10.0777 46.1252 10.1327 46.153 10.1693C46.1901 10.2242 46.2365 10.3067 46.2922 10.4074C46.3107 10.444 46.3757 10.4715 46.385 10.4989C46.4684 10.6546 46.5056 10.8469 46.5798 11.0209C46.654 11.204 46.756 11.3596 46.821 11.5428C47.0065 12.083 47.1271 12.724 47.2013 13.3832C47.3869 15.2878 47.0065 16.9909 46.2922 18.2545C45.9582 18.9138 45.4944 19.454 44.947 19.9118C44.4461 20.4337 43.7596 20.7451 43.0824 21.0747ZM40.7817 9.15293C40.3643 9.1804 40.1138 9.37269 39.7705 9.48257C39.5479 9.68401 39.2696 9.83967 39.1026 10.0961C38.8243 10.2517 38.7501 10.5997 38.5274 10.8011C38.3419 11.2589 38.1656 11.7717 38.045 12.3669C37.9337 12.9529 37.8595 13.6121 37.8502 14.2623C37.8409 15.8921 38.1935 17.5128 38.8521 18.4742C39.2418 18.9412 39.7149 19.3258 40.29 19.6097C40.624 19.6371 40.8838 19.747 41.2456 19.7562C41.4497 19.6829 41.7836 19.7562 41.9135 19.6097C42.2104 19.628 42.2753 19.4357 42.535 19.4174C42.6742 19.28 42.8226 19.1701 43.0174 19.0877C43.1937 18.8954 43.3607 18.7032 43.5462 18.52C43.639 18.3827 43.6947 18.1904 43.8338 18.0897C44.6687 16.5148 44.7615 13.6305 44.2142 11.7992C44.0101 11.1307 43.7225 10.5905 43.3978 10.1418C43.0453 9.78473 42.6278 9.48257 42.1547 9.2445C41.7743 9.16209 41.4125 9.06137 40.9116 9.10715C40.8838 9.10715 40.8559 9.11631 40.8652 9.15293C40.8467 9.15293 40.8188 9.15293 40.7817 9.15293ZM50.9028 7.82524C51.6542 7.85271 52.5355 7.76115 53.2035 7.87103C53.3519 8.09994 53.2962 8.37463 53.2962 8.63101C53.3519 12.1013 53.2962 15.828 53.2962 19.3716C53.2962 19.6554 53.3055 19.9484 53.2962 20.2231C53.287 20.4612 53.3519 20.7176 53.2035 20.9373C52.8695 21.0198 52.3871 20.9831 51.9604 20.9831C51.5058 20.9831 51.0605 21.0472 50.7636 20.8916C50.6802 16.6979 50.6802 12.1746 50.7636 7.97175C50.7822 7.89849 50.8286 7.85271 50.9028 7.82524ZM56.6545 7.82524H58.9087C59.1128 8.09994 59.1778 8.51198 59.2427 8.91487C59.9199 11.4604 60.5879 14.015 61.2094 16.6246C61.3578 16.6429 61.3115 16.469 61.3578 16.3866C61.4228 16.3225 61.3857 16.1668 61.4506 16.1027C61.4784 15.8921 61.6083 15.7822 61.599 15.535C61.766 15.2145 61.8217 14.775 61.9794 14.4454C62.1742 13.6762 62.434 12.962 62.6566 12.2204C62.87 11.4512 63.1575 10.7553 63.3245 9.94955C63.6399 9.29944 63.7142 8.41126 64.0945 7.82524H65.05C65.3933 8.4662 65.5232 9.31775 65.82 10.0045C66.0148 10.7736 66.2839 11.4695 66.488 12.2295C66.9611 13.7037 67.4527 15.1596 67.8795 16.6796C68.0743 16.3957 68.0743 15.9196 68.2135 15.59C68.2969 15.2145 68.3712 14.83 68.501 14.5003C68.8721 12.9987 69.2246 11.4878 69.6514 10.0503C69.8091 9.29944 69.9668 8.53029 70.2265 7.87103C70.7831 7.78862 71.6366 7.78862 72.1932 7.87103C72.2396 8.42957 71.9799 9.0339 71.8129 9.52835C71.7201 10.1327 71.4975 10.5997 71.3769 11.1857C71.0336 12.257 70.7739 13.3924 70.4213 14.4545C70.1523 15.5899 69.7905 16.6338 69.5122 17.7692C69.3267 18.2911 69.1968 18.868 69.0298 19.4265C68.8443 19.9393 68.7793 20.5711 68.501 20.9923H67.1559C66.8126 20.3971 66.692 19.5913 66.3859 18.9595C65.718 16.8719 64.9758 14.8666 64.3264 12.7606C64.1038 12.9895 64.1038 13.4565 63.9461 13.7495C63.844 14.1066 63.742 14.4637 63.6121 14.7933C63.4266 15.5167 63.1483 16.1302 62.9906 16.8719C62.7215 17.522 62.5267 18.2453 62.3226 18.9595C62.0443 19.5822 61.9423 20.3788 61.599 20.9465C61.2465 21.0564 60.6899 20.9648 60.2539 20.9923C59.9199 20.6169 59.8828 19.9393 59.6787 19.4265C59.521 18.8954 59.4097 18.3094 59.2056 17.815C58.9459 16.6613 58.5562 15.6449 58.2965 14.5003C57.9532 13.4382 57.6564 12.3302 57.3409 11.2315C57.1647 10.7095 57.0348 10.151 56.8586 9.61992C56.7751 9.05221 56.3854 8.53945 56.5246 7.91681C56.5431 7.87103 56.5988 7.84356 56.6545 7.82524ZM75.5886 7.82524C76.34 7.85271 77.212 7.76115 77.8892 7.87103C78.0562 8.36548 77.982 8.89655 77.982 9.42763V19.3624C77.982 19.9027 78.0469 20.4246 77.8892 20.9282C77.3697 20.9831 76.609 21.0106 75.9689 20.974C75.7834 20.9648 75.5607 21.0198 75.4401 20.8824C75.2732 20.388 75.3474 19.866 75.3474 19.3166V9.48257C75.3474 8.8874 75.2917 8.31054 75.4401 7.91681C75.4772 7.87103 75.5329 7.84356 75.5886 7.82524Z" fill="#717171"/>
</g>
<defs>
<clipPath id="clip0">
<rect width="78" height="33" fill="white" transform="translate(0 0.5)"/>
</clipPath>
</defs>
</svg>
