<svg width="64" height="64" viewBox="0 0 64 64" fill="none" xmlns="http://www.w3.org/2000/svg">
<path d="M28.4189 40.4464H24.0239L26.7707 23.5654H31.1661L28.4189 40.4464ZM20.3265 23.5654L16.1365 35.1763L15.6407 32.676L15.6412 32.6769L14.1623 25.0854C14.1623 25.0854 13.9835 23.5654 12.0775 23.5654H5.15062L5.06934 23.8513C5.06934 23.8513 7.18759 24.292 9.66663 25.7808L13.485 40.4469H18.0642L25.0566 23.5654H20.3265ZM54.8954 40.4464H58.931L55.4124 23.565H51.8795C50.248 23.565 49.8506 24.823 49.8506 24.823L43.2958 40.4464H47.8773L48.7935 37.9389H54.3806L54.8954 40.4464ZM50.0592 34.475L52.3685 28.1578L53.6676 34.475H50.0592ZM43.6395 27.6249L44.2667 23.9998C44.2667 23.9998 42.3313 23.2638 40.3138 23.2638C38.1327 23.2638 32.9534 24.217 32.9534 28.8523C32.9534 33.2134 39.0322 33.2676 39.0322 35.5583C39.0322 37.8491 33.5797 37.4386 31.7802 35.9941L31.1268 39.7844C31.1268 39.7844 33.0893 40.7377 36.0876 40.7377C39.0869 40.7377 43.6115 39.1848 43.6115 34.9582C43.6115 30.5691 37.478 30.1604 37.478 28.2521C37.4784 26.3434 41.7587 26.5886 43.6395 27.6249Z" fill="#717171"/>
<path d="M15.6411 32.6764L14.1623 25.0849C14.1623 25.0849 13.9835 23.5649 12.0775 23.5649H5.15062L5.06934 23.8508C5.06934 23.8508 8.39865 24.5408 11.592 27.1259C14.6455 29.5968 15.6411 32.6764 15.6411 32.6764Z" fill="#C4C4C4"/>
</svg>
