<svg width="142" height="44" viewBox="0 0 142 44" fill="none" xmlns="http://www.w3.org/2000/svg">
<path d="M118.197 7.92578C120.434 7.92578 122.563 8.45 124.474 9.38772C124.773 9.52594 125.075 9.69137 125.373 9.85694L124.063 11.0434L122.1 8.97436L118.716 12.0087L116.723 9.82902L110.501 15.4846L114.484 19.9261L112.929 21.3051L116.86 25.7466L115.304 27.1251L120.927 33.4426L124.254 30.3527L127.148 33.664C126.575 34.1055 125.947 34.5478 125.266 34.9333C123.191 36.1194 120.789 36.8078 118.224 36.8078C110.336 36.8078 103.924 30.3262 103.924 22.3544C103.896 14.4364 110.31 7.92578 118.197 7.92578ZM115.576 21.471L118.988 18.3811L122.045 21.8293L118.633 24.9189L115.576 21.471ZM118.006 27.4299L121.389 24.3126L124.474 27.7606L121.062 30.8506L118.006 27.4299ZM113.149 15.5953L116.559 12.5054L119.616 15.9536L116.204 19.0434L113.149 15.5953ZM119.397 13.9395L121.935 11.6224L124.228 14.1881L121.69 16.5326L119.397 13.9395ZM123.928 24.5604L126.465 22.2431L128.758 24.8356L126.22 27.1543L123.928 24.5604ZM126.165 29.7748L128.704 27.4571L130.995 30.0226L128.457 32.3668L126.165 29.7748ZM127.203 17.8569L128.894 16.3118L130.422 18.0229L128.731 19.5673L127.203 17.8569ZM125.019 12.7533L126.711 11.1812L128.24 12.9189L126.547 14.4638L125.019 12.7533ZM129.358 22.9608L131.05 21.416L132.606 23.1264L130.887 24.6708L129.358 22.9608ZM121.744 19.1262L124.283 16.8089L126.575 19.374L124.037 21.6917L121.744 19.1262Z" fill="#717171"/>
<mask id="mask0" mask-type="alpha" maskUnits="userSpaceOnUse" x="9" y="13" width="16" height="15">
<path d="M9.39453 13.9265V27.2607H24.311V13.9265H9.39453Z" fill="white"/>
</mask>
<g mask="url(#mask0)">
<path d="M16.8804 17.8749H16.7516L14.335 27.2607H12.3597L9.39453 13.9265H11.444L13.494 23.8761H13.622L16.0008 13.9265H17.6302L20.1743 23.8761H20.3024L22.1695 13.9265H24.311L21.3451 27.2607H19.3683L16.8804 17.8749Z" fill="#717171"/>
</g>
<path d="M26.912 21.5841H31.1024C31.0115 19.61 30.0775 18.8208 29.0896 18.8208C27.9732 18.8208 27.1125 19.7045 26.912 21.5841ZM32.5663 25.1209V26.5505C31.7429 27.0393 30.6454 27.4157 29.3269 27.4157C26.253 27.4157 24.9902 25.4598 24.9902 22.4886C24.9902 19.6287 26.3992 17.5599 29.1445 17.5599C31.4316 17.5599 32.8417 19.0843 32.8417 22.1491V22.8451H26.8753C26.8753 25.1012 27.7716 26.0983 29.6574 26.0983C30.6454 26.0983 31.5605 25.7403 32.5663 25.1209Z" fill="#717171"/>
<path d="M37.0969 25.9076C37.6827 26.1709 38.3237 26.2099 38.7821 26.2099C40.1361 26.2099 41.1599 25.3435 41.1599 22.2975C41.1599 19.909 40.3181 19.1379 39.0924 19.1379C38.3597 19.1379 37.8292 19.3454 37.0969 19.7584V25.9076H37.0969ZM37.1162 18.3671C37.6639 18.0671 38.5971 17.6708 39.5858 17.6708C41.8555 17.6708 43.0819 19.2881 43.0819 22.2975C43.0819 25.8147 41.4344 27.5261 38.7821 27.5261C37.8113 27.5261 36.3106 27.2063 35.2119 26.6032V13.4772L37.1162 13.0077V18.3671H37.1162Z" fill="#717171"/>
<path d="M51.3201 24.4314H51.4117L55.3275 13.9182H57.5982V27.2534H55.6216V17.5859H55.4566L51.7225 27.2534H50.5522L46.8173 17.8119H46.6532V27.2534H45.0059V13.9182H47.221L51.3201 24.4314Z" fill="#717171"/>
<path d="M65.6739 22.488C65.6739 19.9493 64.668 18.8778 63.4235 18.8778C62.216 18.8778 61.1719 19.9493 61.1719 22.488C61.1719 25.0649 62.1248 26.0983 63.4235 26.0983C64.7223 26.0983 65.6739 25.0649 65.6739 22.488ZM59.251 22.488C59.251 19.1956 61.0084 17.5599 63.4235 17.5599C65.8401 17.5599 67.5966 19.1956 67.5966 22.488C67.5966 25.7034 65.9312 27.4157 63.4235 27.4157C60.9163 27.4157 59.251 25.7034 59.251 22.488Z" fill="#717171"/>
<path d="M69.0439 18.9527C69.8674 18.4441 71.6069 17.5599 73.711 17.5599C75.9071 17.5599 76.7292 18.4441 76.7292 20.3807V27.1898H74.8271V20.8138C74.8271 19.3284 74.1146 19.0651 73.18 19.0651C72.4488 19.0651 71.5143 19.4041 70.9474 19.7426V27.1898H69.044V18.9527H69.0439Z" fill="#717171"/>
<path d="M80.7581 21.5841H84.9488C84.8588 19.61 83.9243 18.8208 82.936 18.8208C81.8193 18.8208 80.9603 19.7045 80.7581 21.5841ZM86.4126 25.1209V26.5505C85.5895 27.0393 84.4914 27.4157 83.1734 27.4157C80.1005 27.4157 78.8369 25.4598 78.8369 22.4886C78.8369 19.6287 80.2453 17.5599 82.9909 17.5599C85.2794 17.5599 86.6892 19.0843 86.6892 22.1491V22.8451H80.7221C80.7221 25.1012 81.619 26.0983 83.5041 26.0983C84.4914 26.0983 85.4079 25.7403 86.4126 25.1209Z" fill="#717171"/>
<path d="M94.2913 17.5599H96.2501L92.9372 26.9622C92.0208 29.5578 90.9057 30.9121 88.8014 30.9121V29.3709C90.0467 29.3709 90.8141 28.3548 91.2544 26.9622L87.7402 17.5599H89.7538L92.0962 24.4808H92.206L94.2913 17.5599Z" fill="#717171"/>
<path d="M29.1635 35.9282V35.1161C29.8422 35.4684 30.488 35.6453 31.0999 35.6453C31.6095 35.6453 32 35.5498 32.2728 35.3569C32.5456 35.1652 32.6823 34.9061 32.6823 34.5786C32.6823 34.2512 32.5701 34.0055 32.3456 33.8421C32.1217 33.679 31.7032 33.4769 31.091 33.2375C30.8785 33.1559 30.7427 33.1027 30.6815 33.0774C30.6212 33.0527 30.5029 33.0018 30.3269 32.9266C30.1513 32.8515 30.0361 32.7944 29.9818 32.7568C29.927 32.718 29.8349 32.6612 29.7043 32.5867C29.5741 32.5103 29.4863 32.4432 29.4405 32.3844C29.3956 32.324 29.333 32.2477 29.2542 32.1566C29.1755 32.0658 29.1223 31.9755 29.0949 31.8836C29.0679 31.7925 29.0417 31.6871 29.0178 31.5672C28.9938 31.4472 28.9814 31.3185 28.9814 31.18C28.9814 30.6449 29.1741 30.215 29.5588 29.8873C29.944 29.5607 30.4755 29.397 31.1547 29.397C31.7545 29.397 32.3521 29.51 32.9456 29.7367V30.5951C32.3699 30.3052 31.794 30.1617 31.2181 30.1617C30.812 30.1617 30.5089 30.2483 30.3089 30.4243C30.1089 30.6004 30.0087 30.8333 30.0087 31.1232C30.0087 31.4317 30.1089 31.6656 30.3089 31.8264C30.5089 31.9878 30.8668 32.1656 31.3821 32.3601C32.2668 32.6937 32.8761 32.9956 33.2092 33.2666C33.5429 33.5363 33.7095 33.9402 33.7095 34.4743C33.7095 35.0349 33.4807 35.4931 33.023 35.8486C32.5653 36.2041 31.9367 36.382 31.1363 36.382C30.4032 36.382 29.7454 36.2301 29.1635 35.9282ZM38.4148 36.239H37.5512L37.4874 35.6916C36.9657 36.1326 36.4447 36.3532 35.9234 36.3532C35.4872 36.3532 35.1492 36.2323 34.9099 35.9894C34.67 35.7472 34.5505 35.4412 34.5505 35.069C34.5505 34.8736 34.5852 34.687 34.655 34.5075C34.7249 34.3279 34.8401 34.1539 35.0005 33.984C35.1611 33.8139 35.4035 33.6774 35.7277 33.5731C36.0519 33.4687 36.4417 33.4171 36.8964 33.4171H37.4603V33.1623C37.4603 32.7408 37.3845 32.4538 37.2329 32.2988C37.081 32.1445 36.8265 32.0675 36.4691 32.0675C36.0327 32.0675 35.496 32.2523 34.8598 32.6245V31.8695C35.5145 31.5613 36.1568 31.4059 36.7871 31.4059C37.3991 31.4059 37.8238 31.5357 38.0599 31.7942C38.2966 32.0516 38.4148 32.4423 38.4148 32.9634V36.239ZM37.4694 34.0776H36.9871C35.9929 34.0776 35.496 34.3831 35.496 34.9937C35.496 35.2084 35.5624 35.3625 35.696 35.4606C35.8296 35.5584 35.9963 35.6067 36.1965 35.6067C36.4506 35.6067 36.6963 35.5437 36.9327 35.4175C37.169 35.2924 37.3481 35.1478 37.4694 34.9841V34.0776H37.4694ZM39.8922 38.1275V32.0964C40.1591 31.8882 40.4738 31.7207 40.8379 31.5951C41.2018 31.4702 41.5588 31.4059 41.9109 31.4059C43.1712 31.4059 43.8019 32.1961 43.8019 33.7762C43.8019 34.5942 43.6383 35.2204 43.3108 35.6538C42.9836 36.0885 42.5143 36.3046 41.9015 36.3046C41.4771 36.3046 41.1225 36.1945 40.8379 35.9756V38.1275H39.8922ZM40.8287 32.4162V35.2774C40.95 35.3964 41.1028 35.4851 41.2878 35.5452C41.4728 35.605 41.6351 35.6348 41.7743 35.6348C42.1075 35.6348 42.37 35.5018 42.561 35.2344C42.7519 34.9665 42.8469 34.4805 42.8469 33.7762C42.8469 33.2036 42.749 32.7839 42.5519 32.5211C42.3549 32.2558 42.0985 32.1243 41.7833 32.1243C41.4262 32.1243 41.108 32.2213 40.8287 32.4162ZM45.9705 31.4545V36.239H45.025V31.6899L45.9705 31.4545ZM44.8794 30.0661C44.8794 29.8963 44.9414 29.7473 45.0655 29.6175C45.1902 29.4886 45.3342 29.4239 45.4972 29.4239C45.6613 29.4239 45.8053 29.4886 45.9298 29.6175C46.054 29.7473 46.1161 29.8963 46.1161 30.0661C46.1161 30.236 46.054 30.386 45.9298 30.5155C45.8052 30.6432 45.6613 30.708 45.4972 30.708C45.3342 30.708 45.1902 30.6432 45.0655 30.5155C44.9414 30.386 44.8794 30.236 44.8794 30.0661ZM49.5119 35.6916C49.9487 35.6916 50.43 35.5279 50.9575 35.2013V35.9186C50.4728 36.2085 49.9363 36.3532 49.3483 36.3532C48.6088 36.3532 48.065 36.1359 47.7164 35.7015C47.3678 35.2669 47.1935 34.6601 47.1935 33.8797C47.1935 33.1368 47.3725 32.5384 47.7296 32.0868C48.0877 31.6338 48.5964 31.4059 49.2571 31.4059C49.8395 31.4059 50.2904 31.6015 50.6125 31.9921C50.9336 32.3829 51.0938 32.9546 51.0938 33.7096V34.0594H48.13C48.13 34.6197 48.2422 35.0323 48.4662 35.295C48.6906 35.5604 49.0392 35.6916 49.5119 35.6916ZM49.2297 32.0394C48.9453 32.0394 48.7056 32.156 48.5116 32.3879C48.3179 32.6211 48.1964 32.9678 48.148 33.4259H50.2301C50.2056 32.9608 50.0999 32.614 49.9118 32.3844C49.7243 32.1541 49.4969 32.0394 49.2297 32.0394ZM52.2984 36.239V32.1053C53.0439 31.6392 53.8168 31.4059 54.6173 31.4059C55.1568 31.4059 55.5414 31.52 55.7717 31.7468C56.0021 31.9735 56.1173 32.3319 56.1173 32.8223V36.239H55.1718V33.0396C55.1718 32.6937 55.102 32.4605 54.9627 32.3416C54.8232 32.2213 54.6203 32.162 54.3534 32.162C53.9899 32.162 53.62 32.2757 53.2444 32.502V36.239H52.2984V36.239ZM58.4949 31.6338H59.9315L59.7041 32.2757H58.4949V34.7669C58.4949 35.3964 58.7556 35.7109 59.2767 35.7109C59.4768 35.7109 59.6797 35.6673 59.8866 35.5789V36.1825C59.6014 36.296 59.2618 36.3532 58.8678 36.3532C58.4131 36.3532 58.0798 36.2191 57.8675 35.9509C57.6555 35.6846 57.5493 35.3334 57.5493 34.8981V31.0102L58.4949 30.3015V31.6338H58.4949ZM61.7824 31.4545V36.239H60.8364V31.6899L61.7824 31.4545ZM60.6912 30.0661C60.6912 29.8963 60.7534 29.7473 60.8769 29.6175C61.0012 29.4886 61.1451 29.4239 61.3092 29.4239C61.4726 29.4239 61.617 29.4886 61.7408 29.6175C61.8654 29.7473 61.9275 29.8963 61.9275 30.0661C61.9275 30.236 61.8654 30.386 61.7408 30.5155C61.617 30.6432 61.4727 30.708 61.3092 30.708C61.1451 30.708 61.0012 30.6432 60.8769 30.5155C60.7534 30.386 60.6912 30.236 60.6912 30.0661ZM68.2194 31.7843V32.5384C67.7646 32.2242 67.3039 32.0675 66.8376 32.0675C66.6011 32.0675 66.4072 32.1146 66.2552 32.2093C66.1039 32.303 66.0281 32.4546 66.0281 32.6612C66.0281 32.8574 66.1112 33.0127 66.2779 33.129C66.4447 33.2457 66.7069 33.3637 67.0649 33.4825C67.2649 33.5518 67.4147 33.6056 67.5145 33.6432C67.6148 33.6818 67.7463 33.7449 67.9102 33.8324C68.0738 33.9209 68.1968 34.0081 68.2784 34.0969C68.3603 34.1853 68.4345 34.301 68.5013 34.4462C68.568 34.5909 68.6009 34.7509 68.6009 34.9272C68.6009 35.3618 68.4328 35.7077 68.0969 35.9658C67.7604 36.2237 67.31 36.3532 66.7466 36.3532C66.116 36.3532 65.5913 36.2147 65.1733 35.937V35.2014C65.7066 35.5279 66.1947 35.6916 66.6376 35.6916C67.3038 35.6916 67.6374 35.4658 67.6374 35.0122C67.6374 34.9245 67.6177 34.842 67.5783 34.7669C67.5389 34.6915 67.4935 34.6302 67.4421 34.5827C67.3904 34.5356 67.3069 34.4823 67.1917 34.4216C67.0764 34.363 66.9797 34.3192 66.9008 34.2904C66.8221 34.2623 66.6979 34.2167 66.5283 34.1539C66.2796 34.0594 66.0826 33.9779 65.937 33.9083C65.7913 33.8385 65.6463 33.7491 65.5007 33.6394C65.355 33.5293 65.2487 33.3978 65.1825 33.2473C65.116 33.0967 65.0826 32.9169 65.0826 32.7095C65.0826 32.4451 65.143 32.2192 65.2643 32.0308C65.3854 31.8408 65.5433 31.7056 65.7369 31.6241C65.9309 31.542 66.1083 31.485 66.2688 31.4545C66.4297 31.422 66.5887 31.4059 66.7466 31.4059C67.262 31.4059 67.7527 31.5321 68.2194 31.7843ZM73.2427 36.239H72.3791L72.3151 35.6916C71.7935 36.1326 71.2727 36.3532 70.7516 36.3532C70.3152 36.3532 69.9772 36.2323 69.7378 35.9894C69.498 35.7472 69.3786 35.4412 69.3786 35.069C69.3786 34.8736 69.4134 34.687 69.4833 34.5075C69.5529 34.3279 69.6681 34.1539 69.8287 33.984C69.9898 33.8139 70.2316 33.6774 70.5559 33.5731C70.8803 33.4687 71.27 33.4171 71.724 33.4171H72.2883V33.1623C72.2883 32.7408 72.2121 32.4538 72.0614 32.2988C71.9089 32.1445 71.6545 32.0675 71.2975 32.0675C70.8607 32.0675 70.3241 32.2523 69.6878 32.6245V31.8695C70.3427 31.5613 70.9848 31.4059 71.6151 31.4059C72.2277 31.4059 72.6514 31.5357 72.888 31.7942C73.1243 32.0516 73.2427 32.4423 73.2427 32.9634V36.239H73.2427ZM72.2979 34.0776H71.8155C70.8212 34.0776 70.3241 34.3831 70.3241 34.9937C70.3241 35.2084 70.3909 35.3625 70.5241 35.4606C70.6577 35.5584 70.8239 35.6067 71.0243 35.6067C71.2787 35.6067 71.5236 35.5437 71.7608 35.4175C71.9971 35.2924 72.1763 35.1478 72.2979 34.9841V34.0776H72.2979ZM75.6208 31.6338H77.0573L76.8294 32.2757H75.6208V34.7669C75.6208 35.3964 75.8812 35.7109 76.4019 35.7109C76.6022 35.7109 76.8046 35.6673 77.0116 35.5789V36.1825C76.7265 36.296 76.3876 36.3532 75.9924 36.3532C75.5386 36.3532 75.2054 36.2191 74.9931 35.9509C74.7808 35.6846 74.6743 35.3334 74.6743 34.8981V31.0102L75.6208 30.3015V31.6338H75.6208Z" fill="#B6B6B6"/>
</svg>
