<svg width="105" height="26" viewBox="0 0 105 26" fill="none" xmlns="http://www.w3.org/2000/svg">
<path d="M5.88059 13.5783L3.00953 20.2085H0.912109L4.06684 13.1192C3.32758 12.7308 2.73446 12.1657 2.27887 11.4153C1.82328 10.6649 1.59979 9.64962 1.59979 8.35182C1.59979 7.45131 1.72873 6.65675 1.98661 5.96812C2.24449 5.2795 2.59692 4.71447 3.04391 4.26422C3.49091 3.81396 4.01526 3.46965 4.60838 3.24894C5.20151 3.01939 5.83761 2.91345 6.49091 2.91345H9.19864V20.2174H7.38489V13.5871H5.88059V13.5783ZM7.38489 4.45844H6.42214C6.06111 4.45844 5.70867 4.52907 5.36483 4.6615C5.02099 4.80276 4.71154 5.01464 4.44506 5.31481C4.17859 5.61498 3.96369 6.01226 3.80036 6.50666C3.63704 7.00106 3.55108 7.61023 3.55108 8.34299C3.55108 9.04045 3.62844 9.62313 3.77457 10.091C3.92071 10.559 4.12701 10.9386 4.38489 11.2299C4.64277 11.5213 4.95222 11.7243 5.30466 11.8479C5.65709 11.9715 6.02672 12.0333 6.42214 12.0333H7.38489V4.45844Z" fill="#717171"/>
<path d="M17.9415 8.01629V20.2085H16.1278V14.7436H13.3942V20.2085H11.5547V8.01629H13.3942V13.1986H16.1278V8.01629H17.9415ZM27.3885 22.601H25.7381V20.2085H20.6493V22.601H18.9988V18.6547H19.7295C19.996 18.0102 20.2109 17.2951 20.3656 16.5093C20.5203 15.7236 20.6407 14.9202 20.7266 14.0903C20.8126 13.2604 20.8642 12.4129 20.8899 11.5477C20.9157 10.6825 20.9243 9.85263 20.9243 9.0404V8.01629H26.4344V18.6635H27.3799V22.601H27.3885ZM24.6292 9.56129H22.5834V9.782C22.5834 10.4265 22.5748 11.1328 22.549 11.892C22.5232 12.6601 22.4716 13.437 22.3942 14.2228C22.3169 15.0085 22.2051 15.7854 22.0676 16.5535C21.9301 17.3216 21.7323 18.019 21.4745 18.6635H24.6292V9.56129ZM35.3742 19.3874C34.996 19.6964 34.5662 19.9348 34.0762 20.1114C33.5862 20.288 33.0447 20.3762 32.4516 20.3762C31.2223 20.3762 30.2596 19.8907 29.5547 18.9107C28.8498 17.9307 28.4974 16.5005 28.4974 14.62C28.4974 13.6401 28.5662 12.7307 28.6951 11.9097C28.8326 11.0886 29.0389 10.3735 29.3312 9.76434C29.6235 9.15517 29.9931 8.68726 30.4487 8.35178C30.9043 8.01629 31.4458 7.83972 32.0733 7.83972C32.5633 7.83972 33.0103 7.93684 33.4143 8.13989C33.8183 8.34295 34.1708 8.6696 34.4544 9.11986C34.7381 9.57011 34.953 10.1528 35.1163 10.8767C35.271 11.5918 35.3484 12.4659 35.3484 13.4988V14.5406H30.3971C30.3971 15.9267 30.5776 16.9773 30.9473 17.6835C31.3169 18.3898 31.867 18.7518 32.6063 18.7518C33.122 18.7518 33.5862 18.6635 33.9816 18.4693C34.3857 18.2839 34.7037 18.0985 34.9358 17.9219L35.3742 19.3874ZM32.0733 9.39354C31.506 9.39354 31.1106 9.7202 30.8699 10.3735C30.6292 11.0268 30.4831 11.9008 30.4229 12.9956H33.4659C33.4659 12.4835 33.4401 11.998 33.3971 11.5565C33.3541 11.1151 33.2768 10.7267 33.1736 10.4088C33.0705 10.0822 32.9329 9.83497 32.7524 9.6584C32.5719 9.48183 32.3398 9.39354 32.0733 9.39354ZM39.0705 14.1345V20.2085H37.2309V8.01629H39.0705V13.6577L41.9243 8.01629H43.7897L40.8412 13.7548L44.2109 20.2173H42.208L39.0705 14.1345ZM48.5175 20.3762C47.2453 20.3762 46.2481 19.8554 45.5261 18.8136C44.804 17.7718 44.443 16.2003 44.443 14.108C44.443 13.1545 44.5289 12.2893 44.718 11.5212C44.8986 10.7443 45.165 10.091 45.5175 9.55246C45.8699 9.01392 46.3083 8.59015 46.8327 8.28998C47.357 7.98981 47.9673 7.83972 48.655 7.83972C49.188 7.83972 49.6178 7.90152 49.953 8.02512C50.2796 8.14872 50.5805 8.29881 50.847 8.47538L50.5891 10.2676C50.3398 10.038 50.039 9.83497 49.7037 9.6584C49.3685 9.48183 49.0074 9.39354 48.6292 9.39354C47.9673 9.39354 47.4258 9.77317 47.0046 10.5413C46.5834 11.3005 46.3685 12.4659 46.3685 14.0197C46.3685 15.5559 46.549 16.7477 46.9014 17.5864C47.2539 18.4251 47.8126 18.8401 48.5605 18.8401C49.016 18.8401 49.4115 18.7606 49.7381 18.6017C50.0648 18.4428 50.3398 18.2662 50.5633 18.0632L50.9845 19.4669C50.6665 19.7406 50.314 19.9613 49.9272 20.129C49.5404 20.2968 49.0676 20.3762 48.5175 20.3762Z" fill="black"/>
<path d="M63.4817 20.2085H56.2696L56.1063 23.0866H55.1865V19.2462H55.6851C56.0891 18.893 56.4072 18.2574 56.6307 17.3569C56.8542 16.4564 57.0261 15.3793 57.1464 14.1345C57.2754 12.8455 57.3613 11.2564 57.4043 9.37589C57.4473 7.49542 57.4903 5.34126 57.5247 2.92224H63.413V19.255H64.5648V23.1042H63.645L63.4817 20.2085ZM62.2267 3.87572H58.5734C58.539 6.09168 58.496 8.04278 58.4358 9.71137C58.3757 11.3888 58.2983 12.8543 58.2037 14.1168C58.092 15.4323 57.9373 16.5093 57.7481 17.3569C57.5504 18.2044 57.2926 18.8312 56.9831 19.2373H62.2353V3.87572H62.2267Z" fill="black"/>
<path d="M66.8265 14.3022C66.8608 15.9884 67.0843 17.2686 67.5055 18.1514C67.9268 19.0343 68.5715 19.4757 69.4397 19.4757C69.8351 19.4757 70.1789 19.4139 70.4798 19.2815C70.7806 19.149 71.0299 18.9901 71.2362 18.8136C71.4683 18.637 71.6746 18.4075 71.8466 18.1514L72.199 19.0696C72.0099 19.3433 71.7864 19.5816 71.5199 19.767C71.2878 19.9436 70.9955 20.1025 70.6517 20.235C70.3079 20.3674 69.8952 20.438 69.4225 20.438C68.1674 20.438 67.2391 19.8818 66.6459 18.7694C66.0528 17.657 65.752 16.1032 65.752 14.0991C65.752 13.1015 65.8379 12.2098 66.0098 11.4241C66.1818 10.6384 66.4224 9.97621 66.7319 9.42885C67.0414 8.88148 67.4024 8.46654 67.8236 8.18402C68.2448 7.90151 68.709 7.76025 69.2162 7.76025C69.7319 7.76025 70.1961 7.90151 70.6087 8.17519C71.0127 8.44888 71.3566 8.86382 71.6231 9.41119C71.8895 9.95856 72.0786 10.6384 72.1904 11.4594C72.3021 12.2716 72.3107 13.2251 72.2162 14.3022H66.8265ZM69.2076 8.74022C68.5801 8.74022 68.0385 9.1375 67.5915 9.93207C67.1445 10.7266 66.8952 11.8832 66.8522 13.4105H71.1675C71.262 11.7861 71.1073 10.603 70.7119 9.86144C70.3165 9.11985 69.8007 8.74022 69.2076 8.74022Z" fill="black"/>
<path d="M79.4535 14.3816H75.4048V20.2173H74.2959V8.01624H75.4048V13.4105H79.4535V8.01624H80.5624V20.2084H79.4535V14.3816Z" fill="black"/>
<path d="M83.1758 8.01624H84.2847V12.5364H85.1529C86.2875 12.5364 87.1901 12.8543 87.8606 13.4811C88.5397 14.1079 88.8749 15.0614 88.8749 16.3327C88.8749 17.6217 88.5225 18.5928 87.8176 19.2373C87.1128 19.8818 86.2016 20.2084 85.0841 20.2084H83.1758V8.01624ZM84.2847 13.4369V19.3167H84.9895C85.8234 19.3167 86.4938 19.0872 87.0182 18.6281C87.5426 18.169 87.7918 17.4186 87.7918 16.368C87.7918 15.3351 87.5597 14.5935 87.087 14.1256C86.6142 13.6665 85.9523 13.4369 85.1099 13.4369H84.2847Z" fill="black"/>
<path d="M91.8663 8.97854V20.2084H90.7832V8.01624H95.8033V8.98737H91.8663V8.97854Z" fill="black"/>
<path d="M103.033 11.7155C103.033 11.3889 103.041 11.0976 103.058 10.8327C103.076 10.5678 103.101 10.303 103.127 10.047H103.058C102.981 10.3206 102.887 10.5855 102.775 10.8327C102.663 11.0799 102.543 11.3448 102.422 11.6184L98.5627 20.2086H97.6172V8.0164H98.6573V16.483C98.6573 16.8096 98.6487 17.1009 98.6315 17.3746C98.6143 17.6483 98.5885 17.922 98.5627 18.1957H98.6315C98.7089 17.922 98.8034 17.6483 98.9152 17.3835C99.0269 17.1186 99.1387 16.8449 99.2676 16.5712L103.127 8.00757H104.09V20.1998H103.033V11.7155Z" fill="black"/>
</svg>
