<svg width="51" height="40" fill="none" xmlns="http://www.w3.org/2000/svg"><g clip-path="url(#clip0)"><path d="M49.996 39.458v.102h.095a.1.1 0 00.051-.013.046.046 0 00.02-.039.045.045 0 00-.02-.038.09.09 0 00-.051-.013h-.095zm.096-.073a.18.18 0 01.114.033.111.111 0 01.04.091.106.106 0 01-.032.08.156.156 0 01-.091.039l.127.146h-.098l-.117-.145h-.038v.145h-.082v-.389h.178-.001zm-.026.523a.325.325 0 00.296-.453.335.335 0 00-.17-.172.318.318 0 00-.126-.024.326.326 0 00-.232.094.333.333 0 000 .462.327.327 0 00.232.096v-.003zm0-.743a.425.425 0 01.39.257.416.416 0 01-.224.549.422.422 0 11-.164-.81l-.002.004zm-39.045-1.502c0-.741.482-1.35 1.27-1.35.752 0 1.26.582 1.26 1.35 0 .768-.508 1.351-1.26 1.351-.788 0-1.27-.609-1.27-1.35zm3.388 0v-2.11h-.91v.514c-.288-.38-.726-.618-1.322-.618-1.173 0-2.093.927-2.093 2.215 0 1.288.92 2.216 2.093 2.216.596 0 1.034-.239 1.322-.618v.512h.91v-2.11zm30.751 0c0-.741.482-1.35 1.27-1.35.754 0 1.26.582 1.26 1.35 0 .768-.506 1.351-1.26 1.351-.788 0-1.27-.609-1.27-1.35zm3.39 0V33.86h-.911v2.208c-.289-.38-.727-.618-1.322-.618-1.173 0-2.094.927-2.094 2.215 0 1.288.92 2.216 2.094 2.216.595 0 1.033-.239 1.322-.618v.512h.91v-2.11zM25.705 36.27c.586 0 .963.37 1.06 1.023h-2.172c.097-.609.464-1.023 1.112-1.023zm.018-.823c-1.226 0-2.084.9-2.084 2.216 0 1.342.892 2.216 2.145 2.216.63 0 1.208-.159 1.716-.592l-.446-.68a1.986 1.986 0 01-1.218.442c-.586 0-1.12-.274-1.252-1.034h3.108c.009-.114.018-.229.018-.352-.009-1.316-.816-2.216-1.987-2.216zm10.988 2.216c0-.742.482-1.351 1.27-1.351.752 0 1.26.583 1.26 1.35 0 .769-.508 1.352-1.26 1.352-.788 0-1.27-.61-1.27-1.351zm3.388 0v-2.11h-.91v.515c-.29-.38-.726-.618-1.322-.618-1.173 0-2.093.927-2.093 2.215 0 1.288.92 2.216 2.093 2.216.596 0 1.033-.239 1.322-.618v.512h.91v-2.113zm-8.528 0c0 1.28.884 2.215 2.233 2.215.63 0 1.05-.14 1.504-.503l-.437-.741c-.341.247-.7.38-1.096.38-.727-.01-1.26-.539-1.26-1.351 0-.813.533-1.342 1.26-1.351.395 0 .754.132 1.096.38l.437-.742c-.455-.361-.874-.503-1.504-.503-1.35 0-2.233.936-2.233 2.216zm11.733-2.216c-.525 0-.867.248-1.104.618v-.511h-.902v4.219h.911v-2.365c0-.698.298-1.086.893-1.086.195-.003.388.033.57.106l.28-.865a1.922 1.922 0 00-.649-.115zm-24.395.442c-.438-.29-1.041-.441-1.707-.441-1.06 0-1.743.512-1.743 1.35 0 .688.508 1.113 1.444 1.245l.43.062c.5.07.735.203.735.441 0 .326-.332.513-.954.513-.63 0-1.085-.203-1.392-.442l-.428.716c.5.37 1.13.547 1.812.547 1.209 0 1.91-.573 1.91-1.377 0-.742-.552-1.13-1.463-1.262l-.429-.063c-.394-.051-.71-.13-.71-.414 0-.308.298-.494.797-.494.535 0 1.052.203 1.305.362l.394-.742h-.001zm11.743-.44c-.525 0-.867.247-1.103.618v-.513h-.901v4.219h.91v-2.365c0-.698.297-1.086.892-1.086.195-.003.388.033.57.106l.28-.865a1.923 1.923 0 00-.649-.115zm-7.767.105h-1.488v-1.28h-.92v1.28h-.849v.838h.85v1.925c0 .979.376 1.562 1.453 1.562.395 0 .85-.123 1.138-.326l-.262-.786c-.272.159-.57.239-.806.239-.455 0-.604-.283-.604-.707v-1.906h1.489v-.84zM9.28 39.773v-2.648c0-.997-.63-1.668-1.647-1.677-.534-.01-1.085.158-1.47.75-.29-.467-.744-.75-1.384-.75-.447 0-.884.132-1.226.626v-.521h-.91v4.219h.918v-2.34c0-.732.402-1.121 1.025-1.121.604 0 .91.397.91 1.112v2.348h.92v-2.34c0-.731.42-1.12 1.024-1.12.621 0 .918.397.918 1.112v2.348l.922.002z" fill="#231F20"/><path d="M50.514 25.738v-.617h-.16l-.184.424-.183-.424h-.16v.617h.113v-.465l.172.401h.118l.172-.401v.465h.112zm-1.011 0v-.511h.204v-.104h-.522v.104h.204v.511h.113zM32.4 28.384H18.606V3.397H32.4v24.987z" fill="#C4C4C4"/><path d="M19.482 15.89c0-5.068 2.354-9.583 6.02-12.493a15.614 15.614 0 00-9.74-3.398C7.055 0 0 7.114 0 15.891c0 8.776 7.056 15.89 15.761 15.89a15.614 15.614 0 009.741-3.397 15.911 15.911 0 01-6.02-12.494z" fill="#717171"/><path d="M51.006 15.891c0 8.777-7.057 15.891-15.762 15.891a15.618 15.618 0 01-9.742-3.397 15.909 15.909 0 006.021-12.494c0-5.069-2.354-9.584-6.021-12.493A15.619 15.619 0 0135.244 0c8.705 0 15.761 7.115 15.761 15.891" fill="#989797"/></g><defs><clipPath id="clip0"><path fill="#fff" d="M0 0h51v40H0z"/></clipPath></defs></svg>