<svg width="78" height="34" fill="none" xmlns="http://www.w3.org/2000/svg"><g clip-path="url(#clip0)"><path d="M31.543 32.355c-.149-.403-.418-.677-.613-1.034-.473-.614-1.03-1.145-1.586-1.676-.195-.064-.278-.247-.464-.32-.12-.156-.315-.239-.473-.358a9.418 9.418 0 00-1.011-.64c-.668-.422-1.494-.687-2.31-.962a27.638 27.638 0 00-2.774-.494c-.955-.138-1.91-.266-2.635-.641-.417-.12-.723-.348-1.085-.532-.334-.22-.696-.402-.974-.677-.343-.201-.557-.54-.826-.815-.092-.183-.25-.293-.324-.494-.093-.037-.12-.147-.177-.211-.064-.073-.064-.22-.176-.247-.055.375-.037.824 0 1.208.047.165.065.367.112.532.027.146.166.384.11.494-2.894-.147-5.009-1.053-6.846-2.243-.909-.596-1.688-1.319-2.411-2.097-.316-.43-.66-.843-.937-1.319-.288-.467-.53-.998-.789-1.492-.427-1.072-.826-2.17-.974-3.516-.195-1.255-.149-2.857.14-4.02.101-.641.315-1.181.5-1.74.12-.256.25-.513.362-.778.158-.22.241-.522.436-.714.529-.98 1.317-1.713 2.124-2.418a9.002 9.002 0 013.062-1.456c1.15-.256 2.718-.302 3.96-.036 2.524.513 4.426 1.63 6.021 3.058 1.615 1.401 2.858 3.177 3.711 5.338.882 2.051 1.188 5.247.4 7.573-.326-.183-.65-.357-.975-.531-.39-.11-.77-.238-1.224-.284-.548-.01-1.086 0-1.438.174.714-.073 1.29.119 1.734.284.26.1.409.165.613.284.399.228.751.439 1.048.75.844.733 1.447 1.703 1.735 2.985 0 .037.046.028.037-.036.037-.01.055-.037.074-.074.047-.055.102-.11.149-.174.092-.11.185-.22.25-.357.195-.229.352-.485.501-.75.343-.495.603-1.063.9-1.603.51-1.154.927-2.399 1.187-3.809.52-3.131-.102-6.098-1.187-8.287-1.113-2.206-2.672-3.973-4.685-5.301-2.032-1.319-4.407-2.29-7.672-2.38-.018-.065-.046.008-.111 0-1.726-.056-3.117.182-4.5.53-.64.21-1.308.394-1.874.678-.649.21-1.168.558-1.762.815-.213.201-.538.302-.76.494-.288.138-.502.357-.79.495-.463.403-.955.76-1.41 1.172-.445.403-.834.86-1.261 1.282-.065.146-.176.247-.288.357a1.197 1.197 0 01-.287.357c-.047.165-.195.229-.25.394-.121.091-.15.274-.288.357-.12.293-.334.503-.473.778-.167.265-.297.558-.464.815-.26.595-.538 1.172-.752 1.813a12.579 12.579 0 00-.538 1.996c-.139.668-.269 1.538-.25 2.243-.093.257-.019.733 0 1.035 0 .055-.037.073-.037.11 0 .339.092.75.11.961.075.779.214 1.502.437 2.134.14.705.436 1.254.65 1.886.324.531.547 1.163.936 1.639.288.559.696.998 1.086 1.456.417.44.835.888 1.336 1.245.918.788 1.994 1.42 3.172 1.96 2.199 1.053 5.483 1.74 8.433 1.565.751-.1 1.512-.192 2.199-.357.63-.229 1.363-.366 2.124-.457 1.735-.11 3.238.045 4.574.43 1.354.357 2.523.897 3.534 1.602.538.312.983.714 1.438 1.099.464.394.835.879 1.261 1.319.056.164.168.283.251.43.111.119.056.394.325.357.167-.165-.028-.403-.037-.604-.167-.174-.204-.403-.334-.55z" fill="#C4C4C4"/><path d="M24.806 22.613c-.037 0-.046.027-.074.037-.065.137-.037.357 0 .494.195.394.26.907.686 1.071.204-.064.186-.357.177-.64-.093-.349-.223-.66-.436-.889-.149-.055-.25-.146-.353-.073zm-2.523.998c0-.018-.028-.037-.037 0-.353-.046-.473.146-.65.284-.306.797.186 1.575 1.049 1.566.343-.083.556-.303.612-.678-.047-.668-.334-1.099-.974-1.172z" fill="#C4C4C4"/><path d="M43.082 21.075c.14.576.436.989.77 1.373.334.385.724.705 1.197.943.445.275.928.504 1.484.66.27.091.53.201.863.238.232.128.51.192.529.521-.01.394-.278.54-.622.614-.343-.073-.77-.064-1.057-.192-.724-.083-1.308-.312-1.92-.522a8.648 8.648 0 01-2.97-1.896c-.166-.274-.398-.494-.574-.76-.176-.265-.297-.586-.483-.851-1.428-.183-2.402-.824-3.256-1.566-.788-.888-1.42-1.95-1.679-3.36-.306-1.356-.213-3.05.148-4.359.789-2.536 2.44-4.22 5.557-4.45.863.028 1.614.128 2.301.385.696.247 1.354.705 1.874 1.18.046.038.065.047.093.092.111.156.38.376.528.568.028.037.019.1.047.147.056.082.139.119.195.192.028.046.018.1.046.137.037.055.084.138.14.238.018.037.083.065.092.092.083.156.12.348.195.522.074.183.176.339.241.522.186.54.306 1.181.38 1.84.186 1.905-.194 3.608-.909 4.872a5.253 5.253 0 01-1.345 1.657c-.5.522-1.187.833-1.865 1.163zm-2.3-11.922c-.418.027-.668.22-1.011.33-.223.201-.501.357-.668.613-.279.156-.353.504-.576.705a8.79 8.79 0 00-.482 1.566 11.218 11.218 0 00-.195 1.895c-.01 1.63.343 3.25 1.002 4.212.39.467.863.852 1.438 1.136.334.027.594.137.956.146.204-.073.538 0 .667-.146.297.018.362-.174.622-.193.14-.137.288-.247.482-.33.177-.192.344-.384.53-.567.092-.137.148-.33.287-.43.835-1.575.927-4.46.38-6.29a5.562 5.562 0 00-.816-1.658 4.72 4.72 0 00-1.243-.897c-.38-.083-.742-.184-1.243-.138-.028 0-.056.01-.047.046h-.083zm10.12-1.328c.752.028 1.633-.064 2.301.046.149.229.093.504.093.76.056 3.47 0 7.197 0 10.74 0 .284.01.577 0 .852-.009.238.056.495-.093.714-.334.083-.816.046-1.243.046-.454 0-.9.064-1.196-.091a333.61 333.61 0 010-12.92c.018-.074.065-.12.139-.147zm5.752 0h2.255c.204.275.269.687.334 1.09a302.3 302.3 0 011.966 7.71c.149.018.102-.156.149-.238.065-.064.028-.22.093-.284.027-.21.157-.32.148-.568.167-.32.223-.76.38-1.09.195-.769.455-1.483.678-2.225.213-.769.5-1.465.668-2.27.315-.65.39-1.539.77-2.125h.955c.343.641.473 1.493.77 2.18.195.769.464 1.464.668 2.224.473 1.475.965 2.93 1.391 4.45.195-.283.195-.76.334-1.089.084-.376.158-.76.288-1.09.371-1.501.724-3.012 1.15-4.45.158-.75.316-1.52.576-2.179a7.853 7.853 0 011.966 0c.047.559-.213 1.163-.38 1.657-.093.605-.316 1.072-.436 1.658-.343 1.071-.603 2.206-.956 3.268-.269 1.136-.63 2.18-.909 3.315-.185.522-.315 1.099-.482 1.658-.186.512-.25 1.144-.529 1.565h-1.345c-.343-.595-.464-1.4-.77-2.033-.668-2.087-1.41-4.092-2.06-6.198-.222.229-.222.696-.38.989-.102.357-.204.714-.334 1.043-.185.724-.464 1.337-.621 2.079-.27.65-.464 1.373-.668 2.087-.279.623-.38 1.42-.724 1.988-.352.11-.91.018-1.345.045-.334-.375-.371-1.053-.575-1.566-.158-.53-.27-1.117-.473-1.611-.26-1.154-.65-2.17-.91-3.315-.343-1.062-.64-2.17-.955-3.268-.176-.522-.306-1.081-.482-1.612-.084-.568-.474-1.08-.334-1.703.018-.046.074-.073.13-.092zm18.935 0c.751.028 1.623-.064 2.3.046.167.494.093 1.026.093 1.557v9.934c0 .54.065 1.063-.093 1.566-.52.055-1.28.083-1.92.046-.186-.01-.408.046-.529-.092-.167-.494-.093-1.016-.093-1.565V9.483c0-.596-.055-1.172.093-1.566a.312.312 0 01.149-.092z" fill="#717171"/></g><defs><clipPath id="clip0"><path fill="#fff" transform="translate(0 .5)" d="M0 0h78v33H0z"/></clipPath></defs></svg>