<svg width="64" height="64" fill="none" xmlns="http://www.w3.org/2000/svg"><path d="M28.419 40.446h-4.395l2.747-16.88h4.395l-2.747 16.88zm-8.093-16.88l-4.19 11.61-.495-2.5-1.479-7.59s-.179-1.52-2.085-1.52H5.152l-.082.285s2.119.441 4.598 1.93l3.818 14.666h4.58l6.992-16.882h-4.73zm34.57 16.88h4.035l-3.519-16.881H51.88c-1.632 0-2.03 1.258-2.03 1.258l-6.554 15.623h4.581l.916-2.507h5.588l.514 2.507zm-4.837-5.971l2.31-6.317 1.299 6.317h-3.609zm-6.42-6.85L44.267 24s-1.936-.736-3.953-.736c-2.181 0-7.36.953-7.36 5.588 0 4.361 6.078 4.416 6.078 6.706 0 2.291-5.452 1.88-7.252.436l-.653 3.79s1.962.954 4.96.954c3 0 7.524-1.553 7.524-5.78 0-4.389-6.133-4.798-6.133-6.706 0-1.909 4.28-1.663 6.161-.627z" fill="#717171"/><path d="M15.641 32.676l-1.479-7.591s-.179-1.52-2.085-1.52H5.152l-.082.286s3.33.69 6.523 3.275c3.053 2.47 4.05 5.55 4.05 5.55z" fill="#C4C4C4"/></svg>