<svg width="142" height="44" fill="none" xmlns="http://www.w3.org/2000/svg"><path d="M118.197 7.926c2.237 0 4.366.524 6.277 1.462.299.138.601.303.899.469l-1.31 1.186-1.963-2.069-3.384 3.035-1.993-2.18-6.222 5.656 3.983 4.441-1.555 1.38 3.931 4.44-1.556 1.38 5.623 6.317 3.327-3.09 2.894 3.311c-.573.441-1.201.884-1.882 1.27a14.148 14.148 0 01-7.042 1.874c-7.888 0-14.3-6.482-14.3-14.454-.028-7.918 6.386-14.428 14.273-14.428zm-2.621 13.545l3.412-3.09 3.057 3.448-3.412 3.09-3.057-3.448zm2.43 5.959l3.383-3.117 3.085 3.448-3.412 3.09-3.056-3.421zm-4.857-11.835l3.41-3.09 3.057 3.449-3.412 3.09-3.055-3.449zm6.248-1.655l2.538-2.318 2.293 2.566-2.538 2.345-2.293-2.594zm4.531 10.62l2.537-2.317 2.293 2.593-2.538 2.318-2.292-2.594zm2.237 5.215l2.539-2.318 2.291 2.566-2.538 2.344-2.292-2.592zm1.038-11.918l1.691-1.545 1.528 1.71-1.691 1.545-1.528-1.71zm-2.184-5.104l1.692-1.572 1.529 1.738-1.693 1.545-1.528-1.71zm4.339 10.208l1.692-1.545 1.556 1.71-1.719 1.545-1.529-1.71zm-7.614-3.835l2.539-2.317 2.292 2.565-2.538 2.318-2.293-2.566z" fill="#717171"/><mask id="a" maskUnits="userSpaceOnUse" x="9" y="13" width="16" height="15"><path d="M9.395 13.927V27.26H24.31V13.927H9.395z" fill="#fff"/></mask><g mask="url(#a)"><path d="M16.88 17.875h-.128l-2.417 9.386H12.36L9.395 13.927h2.049l2.05 9.95h.128l2.379-9.95h1.63l2.543 9.95h.128l1.867-9.95h2.142L21.345 27.26h-1.977l-2.488-9.386z" fill="#717171"/></g><path d="M26.912 21.584h4.19c-.09-1.974-1.024-2.763-2.012-2.763-1.117 0-1.977.883-2.178 2.763zm5.654 3.537v1.43a6.32 6.32 0 01-3.24.865c-3.073 0-4.336-1.956-4.336-4.927 0-2.86 1.41-4.93 4.155-4.93 2.287 0 3.697 1.525 3.697 4.59v.696h-5.967c0 2.256.897 3.253 2.782 3.253.988 0 1.904-.358 2.91-.977zm4.531.787c.586.263 1.227.302 1.685.302 1.354 0 2.378-.867 2.378-3.913 0-2.388-.842-3.16-2.068-3.16-.732 0-1.263.208-1.995.621v6.15zm.02-7.54c.547-.3 1.48-.697 2.469-.697 2.27 0 3.496 1.617 3.496 4.627 0 3.517-1.648 5.228-4.3 5.228-.97 0-2.471-.32-3.57-.923V13.477l1.904-.47v5.36zm14.203 6.063h.092l3.916-10.513h2.27v13.335h-1.976v-9.667h-.165l-3.735 9.667h-1.17l-3.735-9.441h-.164v9.441h-1.647V13.918h2.215l4.1 10.513zm14.354-1.943c0-2.539-1.006-3.61-2.25-3.61-1.208 0-2.252 1.071-2.252 3.61 0 2.577.953 3.61 2.252 3.61 1.298 0 2.25-1.033 2.25-3.61zm-6.423 0c0-3.292 1.757-4.928 4.172-4.928 2.417 0 4.174 1.636 4.174 4.928 0 3.215-1.666 4.928-4.173 4.928-2.508 0-4.173-1.713-4.173-4.928zm9.793-3.535c.823-.509 2.563-1.393 4.667-1.393 2.196 0 3.018.884 3.018 2.82v6.81h-1.902v-6.376c0-1.486-.712-1.749-1.647-1.749-.731 0-1.666.34-2.233.678v7.447h-1.903v-8.237zm11.714 2.631h4.19c-.09-1.974-1.024-2.763-2.012-2.763-1.117 0-1.976.883-2.178 2.763zm5.655 3.537v1.43a6.32 6.32 0 01-3.24.865c-3.073 0-4.336-1.956-4.336-4.927 0-2.86 1.408-4.93 4.154-4.93 2.288 0 3.698 1.525 3.698 4.59v.696h-5.967c0 2.256.897 3.253 2.782 3.253.987 0 1.904-.358 2.909-.977zm7.878-7.561h1.96l-3.314 9.402c-.916 2.596-2.031 3.95-4.136 3.95v-1.541c1.246 0 2.013-1.016 2.453-2.409L87.74 17.56h2.014l2.342 6.92h.11l2.085-6.92z" fill="#717171"/><path d="M29.163 35.928v-.812c.68.352 1.325.53 1.937.53.51 0 .9-.096 1.173-.29a.903.903 0 00.41-.777c0-.328-.113-.574-.337-.737-.224-.163-.643-.365-1.255-.605a22.414 22.414 0 01-.41-.16c-.06-.024-.178-.075-.354-.15a2.333 2.333 0 01-.345-.17 3.708 3.708 0 00-.278-.17.962.962 0 01-.264-.203 4.186 4.186 0 00-.186-.227.748.748 0 01-.16-.273 3.584 3.584 0 01-.076-.317 1.97 1.97 0 01-.037-.387c0-.535.193-.965.578-1.293.385-.326.916-.49 1.596-.49.6 0 1.197.113 1.79.34v.858a3.81 3.81 0 00-1.727-.433c-.406 0-.71.086-.91.262-.2.176-.3.41-.3.7 0 .308.1.542.3.702.2.162.559.34 1.074.534.885.334 1.494.636 1.827.907.334.27.5.673.5 1.207 0 .56-.228 1.02-.686 1.375-.458.355-1.086.533-1.887.533-.733 0-1.39-.152-1.973-.454zm9.252.311h-.864l-.064-.547c-.521.44-1.042.661-1.564.661-.436 0-.774-.12-1.013-.364-.24-.242-.36-.548-.36-.92 0-.195.035-.382.105-.562.07-.18.185-.353.346-.523.16-.17.403-.307.727-.41.324-.105.714-.157 1.168-.157h.564v-.255c0-.421-.075-.708-.227-.863-.152-.154-.406-.231-.764-.231-.436 0-.973.184-1.61.556v-.755c.655-.308 1.298-.463 1.928-.463.612 0 1.037.13 1.273.388.237.258.355.648.355 1.17v3.275zm-.946-2.161h-.482c-.994 0-1.491.305-1.491.916 0 .214.066.368.2.467a.83.83 0 00.5.146c.255 0 .5-.063.737-.19.236-.125.415-.27.536-.433v-.906zm2.423 4.05v-6.032c.267-.208.582-.375.946-.5.364-.126.72-.19 1.073-.19 1.26 0 1.89.79 1.89 2.37 0 .818-.163 1.444-.49 1.878-.327.434-.797.65-1.41.65-.424 0-.779-.11-1.063-.328v2.151h-.946zm.937-5.712v2.861c.121.12.274.208.459.268.185.06.347.09.486.09a.915.915 0 00.787-.4c.19-.268.286-.755.286-1.459 0-.572-.098-.992-.295-1.255a.914.914 0 00-.769-.397c-.357 0-.675.097-.954.292zm5.142-.961v4.784h-.946v-4.55l.946-.235zm-1.092-1.389a.63.63 0 01.187-.448.584.584 0 01.431-.194c.164 0 .308.065.433.194a.63.63 0 010 .898.588.588 0 01-.433.192.588.588 0 01-.431-.192.63.63 0 01-.187-.45zm4.633 5.626c.437 0 .918-.164 1.446-.49v.717a3.076 3.076 0 01-1.61.434c-.74 0-1.283-.217-1.632-.651-.348-.435-.523-1.042-.523-1.822 0-.743.18-1.342.537-1.793.358-.453.866-.681 1.527-.681.583 0 1.033.196 1.355.586.322.39.482.963.482 1.718v.35H48.13c0 .56.112.972.336 1.235.225.265.573.397 1.046.397zm-.282-3.653a.902.902 0 00-.718.349c-.194.233-.316.58-.364 1.038h2.082c-.024-.465-.13-.812-.318-1.042-.188-.23-.415-.345-.682-.345zm3.068 4.2v-4.134c.746-.466 1.519-.7 2.32-.7.539 0 .923.115 1.154.342.23.227.345.585.345 1.075v3.417h-.945v-3.2c0-.345-.07-.578-.21-.697-.139-.12-.342-.18-.609-.18-.363 0-.733.114-1.109.34v3.737h-.946zm6.197-4.605h1.437l-.228.642h-1.21v2.49c0 .63.262.945.783.945.2 0 .403-.044.61-.132v.603a2.747 2.747 0 01-1.02.171c-.454 0-.787-.134-1-.402-.211-.266-.318-.618-.318-1.053V31.01l.946-.709v1.333zm3.287-.18v4.785h-.946v-4.55l.946-.235zm-1.09-1.388c0-.17.061-.319.185-.448a.583.583 0 01.432-.194c.164 0 .308.065.432.194a.629.629 0 010 .898.585.585 0 01-.432.192.586.586 0 01-.432-.192.632.632 0 01-.186-.45zm7.527 1.718v.754c-.454-.314-.915-.47-1.381-.47-.237 0-.43.047-.583.141-.151.094-.227.246-.227.452 0 .196.083.352.25.468.167.117.429.235.787.354.2.069.35.123.45.16.1.039.231.102.395.19.164.088.287.175.368.264.082.088.156.204.223.35.067.144.1.304.1.48 0 .435-.168.78-.504 1.039-.337.258-.787.387-1.35.387-.631 0-1.156-.138-1.574-.416v-.736c.534.327 1.022.49 1.465.49.666 0 1-.225 1-.679 0-.087-.02-.17-.06-.245a.67.67 0 00-.136-.184 1.264 1.264 0 00-.25-.161 2.753 2.753 0 00-.291-.132 38.828 38.828 0 01-.373-.136 8.135 8.135 0 01-.591-.246 2.574 2.574 0 01-.436-.269.99.99 0 01-.319-.392c-.066-.15-.1-.33-.1-.538 0-.264.061-.49.182-.678.121-.19.28-.325.473-.407a2.437 2.437 0 011.01-.218c.515 0 1.006.126 1.472.378zm5.024 4.455h-.864l-.064-.547c-.522.44-1.042.661-1.563.661-.437 0-.775-.12-1.014-.364-.24-.242-.36-.548-.36-.92 0-.195.035-.382.105-.562.07-.18.185-.353.346-.523.16-.17.403-.307.727-.41.324-.105.714-.157 1.168-.157h.564v-.255c0-.421-.076-.708-.227-.863-.152-.154-.407-.231-.764-.231-.436 0-.973.184-1.61.556v-.755c.656-.308 1.298-.463 1.928-.463.613 0 1.036.13 1.273.388.236.258.355.648.355 1.17v3.275zm-.945-2.161h-.483c-.994 0-1.49.305-1.49.916 0 .214.066.368.2.467a.825.825 0 00.5.146c.254 0 .499-.063.736-.19a1.58 1.58 0 00.537-.433v-.906zm3.323-2.444h1.436l-.228.642h-1.208v2.49c0 .63.26.945.78.945.201 0 .404-.044.61-.132v.603c-.284.114-.623.171-1.019.171-.453 0-.787-.134-.999-.402-.212-.266-.319-.618-.319-1.053V31.01l.947-.709v1.333z" fill="#B6B6B6"/></svg>