<svg width="105" height="26" fill="none" xmlns="http://www.w3.org/2000/svg"><path d="M5.88 13.578l-2.87 6.63H.912l3.155-7.089a4.527 4.527 0 01-1.788-1.704c-.456-.75-.68-1.765-.68-3.063 0-.9.13-1.695.388-2.384.257-.689.61-1.254 1.057-1.704.447-.45.971-.794 1.564-1.015a5.197 5.197 0 011.883-.336h2.708v17.304H7.385v-6.63H5.88v-.009zm1.505-9.12h-.963c-.36 0-.713.071-1.057.204a2.465 2.465 0 00-.92.653c-.266.3-.481.697-.645 1.192-.163.494-.249 1.103-.249 1.836 0 .697.077 1.28.224 1.748.146.468.352.848.61 1.139.258.291.567.494.92.618a3.34 3.34 0 001.117.185h.963V4.458z" fill="#717171"/><path d="M17.942 8.016V20.21h-1.814v-5.465h-2.734v5.465h-1.84V8.016h1.84V13.2h2.734V8.016h1.814zm9.447 14.585h-1.65v-2.392h-5.09V22.6H19v-3.946h.73c.267-.645.482-1.36.637-2.146a26.64 26.64 0 00.36-2.419c.087-.83.138-1.677.164-2.542a82.94 82.94 0 00.034-2.508V8.016h5.51v10.647h.946v3.938h.009zm-2.76-13.04h-2.046v.221c0 .645-.008 1.35-.034 2.11a36.158 36.158 0 01-.155 2.33 29.862 29.862 0 01-.326 2.332 10.747 10.747 0 01-.594 2.11h3.155V9.56zm10.745 9.826a4.36 4.36 0 01-1.298.724 4.762 4.762 0 01-1.624.265c-1.23 0-2.192-.485-2.897-1.465-.705-.98-1.058-2.41-1.058-4.291 0-.98.07-1.89.198-2.71.138-.821.344-1.537.636-2.146.293-.609.662-1.077 1.118-1.412.455-.336.997-.512 1.624-.512.49 0 .937.097 1.341.3.404.203.757.53 1.04.98.284.45.499 1.033.662 1.757.155.715.232 1.589.232 2.622v1.042h-4.95c0 1.386.18 2.436.55 3.142.369.707.919 1.069 1.658 1.069.516 0 .98-.088 1.376-.283.404-.185.722-.37.954-.547l.438 1.465zm-3.3-9.993c-.568 0-.963.326-1.204.98-.24.653-.387 1.527-.447 2.622h3.043c0-.513-.026-.998-.069-1.44a5.5 5.5 0 00-.223-1.147c-.103-.327-.241-.574-.422-.75a.941.941 0 00-.679-.265zm6.997 4.74v6.075h-1.84V8.016h1.84v5.642l2.853-5.642h1.866l-2.949 5.739 3.37 6.462h-2.003l-3.137-6.082zm9.447 6.242c-1.273 0-2.27-.52-2.992-1.562s-1.083-2.614-1.083-4.706c0-.954.086-1.819.275-2.587.18-.777.447-1.43.8-1.969a3.86 3.86 0 011.315-1.262c.524-.3 1.134-.45 1.822-.45.533 0 .963.062 1.298.185.327.124.627.274.894.45l-.258 1.793a4.18 4.18 0 00-.885-.61 2.28 2.28 0 00-1.075-.264c-.662 0-1.203.38-1.624 1.147-.422.76-.637 1.925-.637 3.479 0 1.536.181 2.728.533 3.566.353.84.912 1.254 1.66 1.254.455 0 .85-.08 1.177-.238.327-.16.602-.336.825-.539l.421 1.404a4.13 4.13 0 01-1.057.662c-.387.168-.86.247-1.41.247zm14.964-.167H56.27l-.164 2.878h-.92v-3.84h.5c.403-.354.721-.99.945-1.89.223-.9.395-1.978.515-3.223.13-1.289.215-2.878.258-4.758.043-1.88.086-4.035.12-6.454h5.889v16.333h1.152v3.85h-.92l-.163-2.896zM62.227 3.876h-3.654a292.078 292.078 0 01-.137 5.835 115.78 115.78 0 01-.232 4.406c-.112 1.315-.267 2.392-.456 3.24-.198.847-.455 1.474-.765 1.88h5.252V3.876h-.008zm4.599 10.426c.035 1.686.258 2.967.68 3.85.42.882 1.066 1.324 1.934 1.324a2.56 2.56 0 001.04-.194c.3-.133.55-.292.756-.468.232-.177.439-.407.61-.663l.353.919a2.72 2.72 0 01-.68.697 3.537 3.537 0 01-.867.468 3.427 3.427 0 01-1.23.203c-1.255 0-2.183-.556-2.776-1.669-.593-1.112-.894-2.666-.894-4.67 0-.998.086-1.89.258-2.675.172-.786.412-1.448.722-1.995.31-.548.67-.962 1.092-1.245a2.447 2.447 0 011.392-.424c.516 0 .98.142 1.393.415.404.274.748.689 1.014 1.236.266.548.456 1.227.567 2.048.112.813.12 1.766.026 2.843h-5.39zm2.382-5.562c-.628 0-1.17.397-1.617 1.192-.447.795-.696 1.951-.739 3.479h4.316c.094-1.625-.06-2.808-.456-3.55-.395-.741-.911-1.12-1.504-1.12zm10.246 5.642h-4.05v5.835h-1.108v-12.2h1.109v5.394h4.049V8.016h1.108v12.192h-1.108v-5.826zm3.722-6.366h1.109v4.52h.868c1.134 0 2.037.318 2.708.945.679.627 1.014 1.58 1.014 2.852 0 1.289-.353 2.26-1.057 2.904-.705.645-1.616.971-2.734.971h-1.908V8.016zm1.109 5.42v5.88h.705c.833 0 1.504-.229 2.028-.688.525-.459.774-1.21.774-2.26 0-1.033-.232-1.774-.705-2.242-.473-.46-1.135-.69-1.977-.69h-.825zm7.581-4.457v11.23h-1.083V8.015h5.02v.971h-3.937V8.98zm11.167 2.737a13.84 13.84 0 01.094-1.669h-.069a5.559 5.559 0 01-.283.786 94.71 94.71 0 00-.353.785l-3.86 8.59h-.945V8.017h1.04v8.467a14.34 14.34 0 01-.095 1.712h.07c.077-.273.171-.547.283-.811.112-.265.224-.54.353-.813l3.859-8.563h.963V20.2h-1.057v-8.484z" fill="#000"/></svg>