<svg width="24" height="24" viewBox="0 0 24 24" fill="none" xmlns="http://www.w3.org/2000/svg">
<path d="M8.61103 21.9905C8.12329 21.9876 7.6497 21.8262 7.26168 21.5307L5.19266 19.9914C4.7152 19.6192 4.3984 19.0782 4.30731 18.4797C4.21623 17.8811 4.35778 17.2704 4.7029 16.773C4.8855 16.5033 5.00155 16.1942 5.04151 15.8711C5.08147 15.5479 5.04421 15.2198 4.93279 14.9138L4.87282 14.7539C4.79523 14.477 4.65343 14.2222 4.45892 14.0103C4.26441 13.7985 4.02268 13.6354 3.75335 13.5345H3.59343C3.00958 13.3382 2.52674 12.9195 2.24978 12.3693C1.97281 11.8191 1.92406 11.1818 2.11413 10.5959L2.93374 7.99714C3.00919 7.69605 3.1481 7.41455 3.34116 7.17149C3.53423 6.92844 3.77699 6.72944 4.05321 6.58781C4.31044 6.45528 4.59188 6.37631 4.88051 6.3557C5.16914 6.33508 5.45895 6.37324 5.73241 6.46787C6.03015 6.56808 6.34786 6.59405 6.65792 6.54353C6.96799 6.49302 7.26102 6.36754 7.51156 6.17801L7.6415 6.07806C7.86828 5.8971 8.05157 5.66755 8.17785 5.40634C8.30413 5.14513 8.37019 4.85891 8.37115 4.56878V4.32889C8.36846 3.71731 8.60749 3.12944 9.03618 2.69325C9.46488 2.25707 10.0485 2.0079 10.6601 2H13.2088C13.5064 2.0008 13.8008 2.06038 14.0753 2.1753C14.3497 2.29022 14.5988 2.45823 14.8081 2.66968C15.2482 3.11726 15.4926 3.7212 15.4878 4.34888V4.62875C15.4827 4.90437 15.5425 5.17732 15.6623 5.4256C15.7821 5.67387 15.9585 5.89052 16.1774 6.05807L16.2874 6.13803C16.5117 6.30625 16.7734 6.41774 17.0501 6.46299C17.3268 6.50824 17.6104 6.48591 17.8766 6.3979L18.2165 6.28796C18.5044 6.19251 18.8086 6.15604 19.1109 6.1807C19.4132 6.20537 19.7075 6.29067 19.9762 6.43153C20.2448 6.57238 20.4823 6.7659 20.6746 7.00054C20.8668 7.23518 21.0098 7.50613 21.0951 7.79724L21.8847 10.316C22.0674 10.8982 22.0175 11.5284 21.7454 12.0745C21.4733 12.6206 21.0002 13.04 20.4254 13.2446L20.2255 13.3146C19.9315 13.4109 19.6656 13.5779 19.4512 13.801C19.2369 14.0241 19.0806 14.2964 18.9961 14.594C18.9165 14.8707 18.8977 15.1613 18.9408 15.4459C18.9839 15.7306 19.088 16.0025 19.246 16.2432L19.5058 16.623C19.8505 17.1232 19.9907 17.7363 19.8978 18.3366C19.8049 18.9369 19.4858 19.4789 19.0061 19.8515L16.997 21.4008C16.7543 21.5864 16.4762 21.7204 16.1797 21.7944C15.8833 21.8685 15.5748 21.8811 15.2733 21.8315C14.9718 21.7819 14.6837 21.6711 14.4266 21.5059C14.1695 21.3407 13.949 21.1246 13.7786 20.871L13.6586 20.7011C13.4949 20.4551 13.2716 20.2545 13.0094 20.1182C12.7472 19.9819 12.4548 19.9142 12.1593 19.9215C11.8775 19.9288 11.6012 20.0022 11.3529 20.1359C11.1047 20.2696 10.8913 20.4598 10.73 20.6911L10.5001 21.0209C10.3297 21.2763 10.1087 21.4941 9.85083 21.6609C9.59298 21.8276 9.30371 21.9398 9.00085 21.9905C8.87122 22.0032 8.74066 22.0032 8.61103 21.9905ZM4.40304 11.6154C4.96746 11.8167 5.47675 12.1476 5.88993 12.5816C6.30311 13.0157 6.60863 13.5406 6.78191 14.1142V14.2342C6.99774 14.8305 7.06861 15.4697 6.98866 16.0988C6.90871 16.7279 6.68025 17.329 6.32213 17.8524C6.25891 17.9223 6.22391 18.0131 6.22391 18.1073C6.22391 18.2015 6.25891 18.2924 6.32213 18.3622L8.4711 19.9914C8.49914 20.0135 8.53156 20.0292 8.5662 20.0377C8.60083 20.0461 8.63688 20.0471 8.67191 20.0404C8.70694 20.0338 8.74014 20.0198 8.76929 19.9992C8.79845 19.9787 8.82287 19.9522 8.84093 19.9215L9.07082 19.5916C9.41754 19.0906 9.88057 18.6812 10.4202 18.3984C10.9599 18.1156 11.5601 17.9678 12.1693 17.9678C12.7786 17.9678 13.3788 18.1156 13.9184 18.3984C14.4581 18.6812 14.9211 19.0906 15.2679 19.5916L15.3878 19.7715C15.4308 19.8325 15.4949 19.8753 15.5677 19.8915C15.6011 19.8964 15.6352 19.8945 15.6678 19.8859C15.7004 19.8773 15.731 19.8622 15.7576 19.8415L17.8166 18.2822C17.8887 18.225 17.9361 18.1424 17.9492 18.0513C17.9622 17.9602 17.9398 17.8676 17.8866 17.7925L17.6267 17.4127C17.2881 16.9189 17.0647 16.3554 16.973 15.7637C16.8813 15.1721 16.9237 14.5674 17.097 13.9943C17.2727 13.3919 17.5904 12.8406 18.0235 12.3866C18.4566 11.9326 18.9924 11.5893 19.5858 11.3855L19.7857 11.3156C19.869 11.2822 19.9358 11.2172 19.9713 11.1348C20.0069 11.0524 20.0085 10.9593 19.9756 10.8758L19.196 8.38696C19.1773 8.34341 19.1499 8.30412 19.1155 8.27148C19.0812 8.23883 19.0405 8.21351 18.9961 8.19705C18.9667 8.18212 18.9341 8.17434 18.9011 8.17434C18.8681 8.17434 18.8356 8.18212 18.8062 8.19705L18.4663 8.307C17.8915 8.49673 17.2791 8.544 16.6819 8.44476C16.0847 8.34552 15.5206 8.10273 15.038 7.73727L14.998 7.64731C14.5349 7.2966 14.1594 6.84331 13.901 6.32303C13.6426 5.80275 13.5083 5.22965 13.5087 4.64874V4.33889C13.5105 4.24255 13.4746 4.14931 13.4087 4.07901C13.3512 4.02704 13.2764 3.99851 13.1988 3.99905H10.6601C10.6193 4.00159 10.5795 4.01215 10.5429 4.03012C10.5063 4.04809 10.4735 4.07311 10.4466 4.10376C10.4197 4.13441 10.3991 4.17007 10.386 4.2087C10.3728 4.24734 10.3675 4.28818 10.3702 4.32889V4.57877C10.3703 5.17553 10.2333 5.76433 9.9699 6.2998C9.7065 6.83528 9.32367 7.30313 8.85092 7.6673L8.72098 7.76725C8.21096 8.15557 7.61324 8.41247 6.98051 8.51532C6.34778 8.61816 5.69947 8.56378 5.09271 8.35697C5.04731 8.34173 4.99818 8.34173 4.95278 8.35697C4.89637 8.39124 4.85389 8.44434 4.83284 8.5069L4.00323 11.1157C3.97431 11.2045 3.98109 11.3011 4.02213 11.3851C4.06317 11.469 4.13525 11.5337 4.22313 11.5654L4.40304 11.6154Z" fill="white"/>
<path d="M11.9993 15.4936C11.3074 15.4936 10.631 15.2884 10.0557 14.904C9.48044 14.5196 9.03205 13.9732 8.76727 13.334C8.50249 12.6947 8.43321 11.9913 8.5682 11.3127C8.70318 10.6341 9.03637 10.0108 9.52562 9.52153C10.0149 9.03228 10.6382 8.69909 11.3168 8.56411C11.9954 8.42912 12.6988 8.4984 13.3381 8.76318C13.9773 9.02796 14.5237 9.47635 14.9081 10.0517C15.2925 10.627 15.4976 11.3033 15.4976 11.9952C15.4976 12.923 15.1291 13.8129 14.473 14.4689C13.8169 15.125 12.9271 15.4936 11.9993 15.4936ZM11.9993 10.4959C11.7028 10.4959 11.4129 10.5839 11.1664 10.7486C10.9198 10.9134 10.7276 11.1475 10.6142 11.4215C10.5007 11.6954 10.471 11.9969 10.5288 12.2877C10.5867 12.5786 10.7295 12.8457 10.9392 13.0554C11.1488 13.2651 11.416 13.4078 11.7068 13.4657C11.9976 13.5236 12.2991 13.4939 12.5731 13.3804C12.847 13.2669 13.0812 13.0747 13.2459 12.8282C13.4107 12.5816 13.4986 12.2918 13.4986 11.9952C13.4986 11.5976 13.3406 11.2162 13.0595 10.9351C12.7783 10.6539 12.3969 10.4959 11.9993 10.4959Z" fill="white"/>
</svg>
