<svg width="210" height="100" viewBox="0 0 210 137" fill="none" xmlns="http://www.w3.org/2000/svg">
<path d="M159.228 78.754C158.535 79.2373 158.073 79.4054 157.505 79.4054C156.56 79.4054 155.047 78.5439 155.047 76.2325C155.047 74.8457 155.698 74.0893 156.98 73.4379C157.799 72.9756 158.493 72.5343 159.249 72.1561V78.754H159.228ZM167.024 78.817C166.562 78.9851 166.12 79.1532 165.637 79.1532C164.986 79.1532 164.313 78.6279 164.313 76.7368V69.9498C164.313 67.6385 163.935 65.8734 162.17 64.5287C161.056 63.7092 159.838 63.331 158.136 63.331C155.803 63.7512 152.883 65.18 151.307 66.2517C150.361 66.9451 149.878 67.4914 149.878 68.2268C149.878 69.2985 151.349 70.286 152.42 70.286C153.282 70.286 153.849 69.9498 154.143 68.8992C154.479 67.6175 154.837 66.6299 155.341 66.0626C155.719 65.5793 156.16 65.3271 156.707 65.3271C158.22 65.3271 159.207 66.756 159.207 69.3615V70.6012C158.262 71.4207 155.089 72.4083 152.672 73.3118C150.529 74.0893 149.542 75.1189 149.542 77.2621C149.542 79.8046 151.601 82.5152 155.089 82.5152C155.866 82.5152 157.799 81.1494 159.354 80.1408C159.564 80.6241 159.838 81.1704 160.426 81.6537C160.951 82.1369 161.813 82.5152 162.926 82.5152L167.402 80.1828L167.024 78.817ZM139.813 78.7119C138.909 79.2793 138.3 79.3633 137.544 79.3633C135.652 79.3633 132.732 77.4302 132.69 72.3663C132.69 66.1256 135.863 65.054 136.85 65.054C138.048 65.054 139.162 65.7474 139.813 67.1972V78.7119ZM145.087 76.8208V53.098C142.986 53.7074 139.708 54.2537 137.081 54.5689V55.8506C139.582 56.1448 139.834 56.3549 139.834 58.5612V63.5411C138.93 63.415 138.468 63.331 138.153 63.331C131.744 63.331 126.89 67.8906 126.89 73.4799C126.89 79.5945 131.786 82.4731 135.274 82.4731C135.758 82.4731 136.346 82.3471 137.375 81.7377L139.834 80.1408V82.5152C143.091 81.5696 146.936 81.0863 147.924 80.9182V79.5945L147.02 79.5104C145.297 79.3213 145.087 79.1532 145.087 76.8208ZM114.955 80.8762C112.371 80.8762 110.774 76.8839 110.774 71.8409C110.774 67.1132 112.413 64.9279 114.136 64.9279C116.72 64.9279 118.17 68.1008 118.17 73.7951C118.17 79.8466 116.531 80.8762 114.955 80.8762ZM114.682 63.331C110.123 63.331 104.912 66.6929 104.912 73.3118C104.912 77.7874 108.084 82.4731 114.535 82.4731C119.347 82.4731 124.075 79.1952 124.075 72.5764C124.033 67.6385 120.419 63.331 114.682 63.331ZM100.94 77.8715V69.9498C100.94 65.7684 99.0071 63.331 95.435 63.331C94.1953 63.331 93.0816 63.8563 92.1781 64.4866C91.1905 65.1801 90.2029 65.8104 89.2154 66.5879C88.4799 64.6968 86.799 63.331 84.5296 63.331C83.3319 63.331 82.2183 63.8143 80.9576 64.6547C80.054 65.1801 79.2766 65.7684 78.373 66.4198V63.2469C75.8306 63.9403 73.078 64.5287 71.1448 64.8018V65.9995C73.0359 66.2937 73.246 66.6929 73.246 69.0463V77.6824C73.246 80.2669 72.9939 80.3929 70.6615 80.6871V82.0109H80.3272V80.6871C78.7723 80.435 78.4781 80.2248 78.4781 77.8925V67.8696C79.6338 67.0081 80.6634 66.5458 81.651 66.5458C83.1638 66.5458 84.4876 67.4494 84.4876 70.4121V77.8925C84.4876 80.3089 84.3195 80.3929 82.3864 80.6871V82.0109H91.8839V80.6871C90.0349 80.435 89.7407 80.2248 89.7407 77.8925V69.5926C89.7407 68.9833 89.6566 68.3949 89.6146 67.9537C90.9804 66.84 91.989 66.5879 92.8295 66.5879C94.1533 66.5879 95.7502 67.2392 95.7502 70.6222V77.6824C95.7502 80.2669 95.414 80.435 93.6069 80.6871V82.0109H103.315V80.6871C101.108 80.3509 100.94 80.2248 100.94 77.8715ZM63.0551 71.7989C61.6683 74.6356 57.0246 79.8466 55.4066 79.8466C54.8393 79.8466 54.293 78.9851 54.293 77.136C54.293 73.0596 55.9319 68.2268 58.7266 66.1676C59.42 65.6423 60.5757 65.3061 61.6473 65.3061C62.7189 65.3061 63.8326 65.6003 64.3999 65.8735C64.1267 67.1972 63.5174 70.16 63.0551 71.7989ZM64.9462 79.3633C64.6941 79.3633 64.568 79.0271 64.8622 77.5983C65.8077 72.3873 67.0474 66.798 67.6988 64.2345L67.5727 64.0664C67.1105 64.0664 66.5852 63.9403 66.0178 63.8143C65.1563 63.6462 64.3368 63.5201 63.4753 63.5201C60.8908 63.5201 57.8861 64.9489 55.8269 66.6929C52.8221 69.1934 50.889 73.669 50.889 77.8294C50.889 81.1074 52.2128 82.4731 53.2634 82.4731C54.377 82.4731 55.7218 81.7377 57.0876 80.6241C58.8526 79.1952 60.7858 77.2201 62.3827 74.9508H62.4668L61.6473 78.859C61.0799 81.8638 61.6053 82.4731 62.3827 82.4731C63.4123 82.4731 66.1649 80.9603 68.3922 78.2077L67.9089 77.2201C66.7112 78.4178 65.2824 79.3633 64.9462 79.3633ZM49.4602 52.7408C48.9349 52.7408 46.5815 53.8124 43.3876 54.1696L43.2195 55.1572L44.3332 55.1992C46.2243 55.1992 46.4764 55.4934 46.0562 57.2584C44.6694 64.0454 43.2195 70.7693 41.7907 77.5143C40.9292 81.5486 41.5806 82.4942 42.358 82.4942C43.6398 82.4942 46.5395 80.6451 48.6827 78.1026L48.0734 77.1991C46.9177 78.3968 45.2367 79.4684 44.7954 79.4684C44.5433 79.4684 44.3752 79.2163 44.6273 78.0396C46.3503 69.9078 48.0313 61.9231 49.7333 54.0015C49.8594 53.098 49.8174 52.7408 49.4602 52.7408Z" fill="#000106"/>
</svg>
