<svg width="210" height="100" viewBox="0 0 210 100" fill="none" xmlns="http://www.w3.org/2000/svg">
<g clip-path="url(#clip0)">
<path d="M111.698 53.416C111.629 53.4333 111.353 53.4333 111.232 53.4333H102.325V55.5104H111.387C111.456 55.5104 111.992 55.5104 112.095 55.4931C113.942 55.32 114.788 53.7795 114.788 52.4294C114.788 51.0447 113.908 49.5561 112.233 49.4003C111.905 49.3657 111.629 49.3657 111.508 49.3657H105.587C105.329 49.3657 105.035 49.3484 104.931 49.3138C104.465 49.1926 104.293 48.7772 104.293 48.431C104.293 48.1195 104.465 47.7041 104.949 47.5656C105.087 47.531 105.242 47.5137 105.57 47.5137H114.115V45.4712H105.432C105.07 45.4712 104.793 45.4885 104.569 45.5231C103.084 45.7308 102.049 46.9252 102.049 48.4483C102.049 49.6946 102.826 51.1485 104.534 51.3909C104.845 51.4255 105.277 51.4255 105.467 51.4255H111.232C111.336 51.4255 111.595 51.4255 111.646 51.4428C112.302 51.5293 112.527 52.014 112.527 52.4467C112.527 52.8621 112.268 53.3122 111.698 53.416ZM94.816 53.416C94.747 53.4333 94.4708 53.4333 94.3672 53.4333H85.4428V55.5104H94.5053C94.5743 55.5104 95.1095 55.5104 95.213 55.4931C97.0601 55.32 97.9059 53.7795 97.9059 52.4294C97.9059 51.0447 97.0255 49.5561 95.3511 49.4003C95.0232 49.3657 94.747 49.3657 94.6261 49.3657H88.7053C88.4464 49.3657 88.1529 49.3484 88.0493 49.3138C87.5833 49.1926 87.4107 48.7772 87.4107 48.431C87.4107 48.1195 87.5833 47.7041 88.0666 47.5656C88.2047 47.531 88.3601 47.5137 88.688 47.5137H97.2327V45.4712H88.5499C88.1874 45.4712 87.9112 45.4885 87.6868 45.5231C86.2023 45.7308 85.1666 46.9252 85.1666 48.4483C85.1666 49.6946 85.9434 51.1485 87.6523 51.3909C87.963 51.4255 88.3946 51.4255 88.5845 51.4255H94.3499C94.4535 51.4255 94.7124 51.4255 94.7642 51.4428C95.4202 51.5293 95.6446 52.014 95.6446 52.4467C95.6446 52.8621 95.4029 53.3122 94.816 53.416ZM78.5553 45.402H80.7993V55.5623H78.5553V45.402ZM63.8827 45.402H60.9999V55.5623H63.244V47.9464L70.7702 55.5623H73.6011V45.402H71.3571V52.9833L63.8827 45.402ZM135.416 55.5623H137.66V47.9464L145.169 55.5623H148V45.402H145.773V52.9833L138.299 45.402H135.416V55.5623ZM123.73 45.402L117.412 55.5623H120.139L121.261 53.7449H128.632L129.754 55.5623H132.464L126.146 45.402H123.73ZM127.476 51.8236H122.418L124.955 47.7387L127.476 51.8236ZM73.4803 39.6381C78.0029 26.3967 90.466 17.4999 104.517 17.4999C118.568 17.4999 131.049 26.3967 135.554 39.6381L135.589 39.7419H145.48V38.5476L141.371 38.063C138.834 37.7687 138.299 36.6436 137.608 35.2243L137.436 34.8781C131.498 22.208 118.568 14.0035 104.517 14.0035C90.4487 14.0035 77.5368 22.208 71.5987 34.9127L71.4261 35.2589C70.7357 36.6783 70.2005 37.8033 67.663 38.0976L63.5547 38.5822V39.7766H73.4285L73.4803 39.6381ZM135.589 61.2397L135.554 61.3435C131.031 74.5849 118.568 83.4643 104.517 83.4643C90.466 83.4643 77.9857 74.5675 73.4803 61.3262L73.4458 61.2223H63.572V62.4167L67.6803 62.9013C70.2178 63.1956 70.7529 64.3206 71.4434 65.74L71.616 66.0862C77.5541 78.7909 90.4833 86.9954 104.534 86.9954C118.586 86.9954 131.515 78.7909 137.453 66.1035L137.626 65.7573C138.316 64.338 138.851 63.2129 141.389 62.9186L145.497 62.434V61.2397H135.589Z" fill="black"/>
</g>
<defs>
<clipPath id="clip0">
<rect width="87" height="73" fill="white" transform="translate(61 14)"/>
</clipPath>
</defs>
</svg>
