<svg width="210" height="100" viewBox="0 0 210 100" fill="none" xmlns="http://www.w3.org/2000/svg">
<path d="M60.7339 47.2607L61.407 45.157L59.2177 45.226C58.1924 45.1883 57.2046 44.844 56.3743 44.2367H56.6699C58.0037 44.2305 59.2241 43.4728 59.8154 42.2833L60.7779 40.2361C60.023 40.2423 59.2681 40.1984 58.5195 40.1045C57.8023 39.9355 57.1607 39.5474 56.6762 38.9964C56.0219 38.3014 55.1161 37.907 54.1598 37.9007C53.7886 37.9007 53.4175 37.9633 53.0589 38.076C53.1093 37.907 53.1533 37.738 53.1847 37.5626C53.3357 36.3418 52.9897 35.1083 52.2285 34.1379L50.5676 32.1032L49.5486 34.4823C49.385 34.8204 49.1397 35.1147 48.8251 35.3275C48.6489 34.476 48.2337 33.6997 47.6172 33.0861C46.5856 32.0343 45.17 31.4458 43.6917 31.4583C43.4337 31.4583 43.1758 31.4771 42.9242 31.5146L40.9362 31.9028C41.1061 31.2392 41.3766 30.6068 41.7415 30.0245L42.8361 28.3278L40.0807 28.5846L39.1999 26.7063L37.5014 27.6266L35.9287 26.0802L34.3558 27.6266L32.6573 26.7501L31.7766 28.5846L29.0211 28.2715L30.1157 29.9745C30.4807 30.5567 30.7511 31.1891 30.921 31.8527L29.0337 31.4833H28.9708C28.7066 31.4458 28.4424 31.427 28.1781 31.427C26.6997 31.4145 25.2843 32.003 24.2526 33.0548C23.6297 33.6746 23.202 34.4635 23.0321 35.3275C22.7302 35.1209 22.4848 34.8392 22.3213 34.5073L21.2958 32.1094L19.6225 34.1505C18.8738 35.1209 18.5404 36.348 18.6851 37.5626C18.7166 37.738 18.7606 37.907 18.8109 38.076C18.4523 37.9633 18.0811 37.9007 17.71 37.9007C16.7537 37.907 15.8478 38.3014 15.1936 38.9964C14.7155 39.541 14.0801 39.9293 13.3692 40.1045C12.6143 40.2172 11.8468 40.261 11.0793 40.2361L12.0166 42.3146C12.608 43.5042 13.8285 44.2618 15.1621 44.268H15.4578C14.64 44.8628 13.6649 45.2072 12.652 45.2509L10.4502 45.157L11.1233 47.2607C11.6267 48.9074 13.0546 50.1156 14.7721 50.3348C14.5959 51.443 13.8914 52.4009 12.8848 52.9018L11.1988 53.5841L12.1047 55.1557C12.8534 56.3139 14.143 57.0026 15.5207 56.9901C15.8793 56.9901 16.2379 56.9525 16.5902 56.8774C16.6783 57.2593 16.7915 57.6412 16.9173 58.0106C17.2318 58.8371 17.2507 59.7387 16.9802 60.5776L16.1624 62.2868L17.9931 62.7689C18.402 62.8753 18.8297 62.9254 19.2513 62.9254C19.5532 62.9254 19.8489 62.8941 20.1446 62.8253C20.3585 62.7751 20.5724 62.7125 20.7736 62.6311C21.0065 63.0506 21.3021 63.4388 21.6356 63.7831C22.8056 64.979 24.4665 65.5863 26.5739 65.5863H28.0775L24.976 66.8697L27.3288 68.028C28.2788 68.4913 29.2477 68.9108 30.2353 69.2801L29.9522 70.0941L30.7637 70.4634C32.11 70.9894 33.538 71.2837 34.985 71.3337H36.9163C38.3569 71.2837 39.7786 70.9831 41.1187 70.4572L41.905 70.0941L41.6282 69.2801C42.6285 68.8982 43.6099 68.4662 44.5661 67.9842L46.8749 66.8697L43.7797 65.6176H45.2896C47.397 65.6176 49.0642 64.9915 50.228 63.8144C50.5676 63.4701 50.8571 63.0819 51.0898 62.6624C51.2912 62.7438 51.505 62.8064 51.7189 62.8566C52.0147 62.9254 52.3103 62.9567 52.6123 62.9567C53.0337 62.9567 53.4616 62.9004 53.8705 62.8002L55.7074 62.3181L54.9085 60.6402C54.6065 59.7887 54.6191 58.8558 54.9399 58.0106C55.072 57.6287 55.179 57.2406 55.267 56.8523C55.6194 56.9275 55.9842 56.9651 56.3428 56.9651C57.7331 56.9776 59.029 56.2638 59.7651 55.0868L60.6584 53.5341L58.9976 52.8579C57.991 52.357 57.2865 51.3991 57.1103 50.291C58.8277 50.0656 60.2558 48.8635 60.7591 47.2106L60.7339 47.2607Z" fill="white"/>
<path d="M43.491 53.9097H28.3926V59.5444C28.3926 61.861 30.0724 63.301 32.5573 63.301C34.6333 63.301 35.1806 63.3823 35.9481 64.1462C36.4325 63.6265 37.1182 63.3323 37.8354 63.3448V63.2571L38.3135 61.792L37.502 60.9093C37.1748 61.0094 36.8351 61.0471 36.4955 61.0283C35.9858 61.022 35.4825 60.9719 34.9855 60.8717H34.8283C34.7591 60.8717 34.7591 60.8717 34.7403 60.9093L34.6459 61.0658L34.476 61.3475L34.1489 61.2725L32.6956 60.9344L32.4944 61.2599V61.2975L32.6705 61.4916L32.595 61.742C32.4629 62.0488 32.2742 62.3242 32.0351 62.5622L31.6703 62.9504L31.3368 62.5371L31.0914 62.2303C30.8273 61.886 30.7644 61.4352 30.9154 61.0283L30.5065 61.1973L30.324 60.7967L30.2234 60.5148C29.9654 59.92 30.1604 59.2314 30.6825 58.8557L31.8526 58.2296L32.9662 58.4488C32.9662 58.3424 33.0354 57.9605 33.0668 57.8666H33.0039L32.3748 58.1044L31.7457 57.6787C31.6199 57.5535 31.6136 57.3469 31.7457 57.2154L32.3434 56.3138L30.8273 54.4356L33.0983 55.3246L33.2555 55.1368L33.5701 54.7611L33.9287 55.0992C34.0231 55.1931 34.086 55.3059 34.1175 55.4373C34.7465 55.6878 35.9104 56.4202 36.0047 57.6098L35.6461 57.7538C35.6902 57.8164 35.7468 57.8666 35.816 57.8979L37.4768 58.0606L37.6278 58.0167C37.9109 57.9103 38.2128 57.854 38.5148 57.8477C38.8168 57.8477 39.1125 57.9166 39.383 58.048C39.5024 58.0043 39.6346 57.9792 39.7605 57.973H39.8422C40.7293 57.973 41.1759 58.6366 41.5282 59.1625L41.7106 59.4255C42.0189 59.8638 42.4278 60.5023 42.4466 60.5274L42.6291 60.8091L42.4026 61.0721C42.195 61.3475 41.8679 61.5041 41.5219 61.5041C41.4213 61.5103 41.3205 61.5103 41.2199 61.5041C41.1318 61.4853 41.0438 61.4603 40.9557 61.4227C40.9557 61.5103 40.9557 61.6168 40.9054 61.7045L40.6475 63.182C42.3586 62.8377 43.5665 61.31 43.4973 59.5695L43.491 53.9097ZM28.3738 53.4526H40.1316C39.6534 52.9517 39.4899 52.2317 39.7038 51.5744C39.5465 51.4993 39.3955 51.399 39.2635 51.2864C38.8042 51.6245 37.3762 52.6387 37.0365 52.8954L36.961 52.9455L32.3434 52.1316H32.249C32.098 52.1378 31.9471 52.1378 31.7961 52.1316C31.752 52.3381 31.5696 52.4822 31.362 52.4822H31.2866C31.0412 52.4384 30.8713 52.2067 30.9091 51.9625V51.8623C30.3114 51.4367 30.0283 50.6978 30.1855 49.9841V49.9027L30.2548 49.8526C30.2548 49.8526 30.3428 49.79 30.4624 49.7212L30.129 49.671C30.0032 49.646 29.9214 49.5334 29.9403 49.4081C29.9591 49.2829 30.0724 49.2015 30.1982 49.2203H30.2045L31.0035 49.3455L31.0789 46.5469L32.2679 45.2947L33.0103 46.8473L32.2302 49.5396L32.9347 49.6522C33.0605 49.6773 33.1424 49.79 33.1235 49.9152C33.1046 50.0279 33.0103 50.1031 32.897 50.1031H32.8593L32.2867 50.0092V50.0529C32.3496 50.1657 32.4441 50.2533 32.5635 50.3096L36.0802 50.366L36.9798 49.4832C36.2941 49.2453 35.8035 48.6443 35.7216 47.9243C35.2813 47.7553 34.9227 47.4296 34.7214 47.0102C34.5515 46.6157 34.5201 46.1712 34.6396 45.7581C34.086 45.5389 33.5827 45.2071 33.1738 44.7813H27.9523C28.2039 45.3949 28.3486 46.046 28.3738 46.7034V53.4526Z" fill="#FCE527"/>
<path d="M68.9575 48.6193H74.1412V57.3845H77.9158V48.6193H83.0996V45.4388H68.9575V48.6193ZM88.0821 52.3759V45.4889H84.4333V57.3845H87.6543L93.9452 50.4225V57.3845H97.5941V45.4388H94.3731L88.0821 52.3759ZM109.742 49.8715H103.879V45.4889H100.23V57.3845H103.879V52.9268H109.742V57.3845H113.39V45.4889H109.742V49.8715ZM126.117 48.9449C125.255 48.6819 124.349 48.5755 123.45 48.6193H119.675V45.4889H116.027V57.3845L123.424 57.3345C124.199 57.347 124.966 57.2593 125.715 57.059C127.615 56.5957 128.923 54.874 128.861 52.9268C128.936 51.1425 127.822 49.5146 126.117 48.9449ZM124.255 54.3292C123.795 54.4857 123.305 54.5483 122.82 54.5046H119.675V51.4743H122.82C123.293 51.443 123.77 51.4994 124.23 51.6246C124.809 51.7936 125.199 52.3258 125.186 52.9268C125.193 53.5404 124.828 54.0976 124.255 54.3292ZM144.147 45.4889H139.568L135.164 49.9717H134.158V45.4889H130.509V57.3845H134.158V52.8768H135.164L139.517 57.3845H144.374L138.309 51.1237L144.147 45.4889Z" fill="#222220"/>
<path d="M151.999 45.1133C147.067 45.1133 144.122 47.868 144.122 51.4242C144.122 54.9804 147.092 57.7351 151.973 57.7351C156.855 57.7351 159.799 54.9804 159.799 51.4242C159.799 47.868 156.931 45.1133 151.999 45.1133ZM151.973 54.8301C149.533 54.8301 147.973 53.3776 147.973 51.4242C147.973 49.4709 149.558 48.0434 151.973 48.0434C154.389 48.0434 155.974 49.4709 155.974 51.4242C155.974 53.3776 154.414 54.8301 151.973 54.8301ZM171.822 45.9647V44.7627H168.173V45.9647C163.592 46.0649 160.85 47.9932 160.85 51.3991C160.85 54.8051 163.592 56.5832 168.173 56.6834V57.8854H171.822V56.6834C176.426 56.5832 179.169 54.8051 179.169 51.3991C179.169 47.9932 176.432 46.0649 171.822 45.9647ZM168.173 54.1289C165.656 54.0288 164.549 53.002 164.549 51.3991C164.549 49.7964 165.656 48.6444 168.173 48.5442V54.1289ZM171.822 54.1289V48.5442C174.363 48.6444 175.445 49.7964 175.445 51.3991H175.451C175.451 53.002 174.37 54.0288 171.822 54.1289ZM191.203 45.9647V44.7627H187.555V45.9647C182.975 46.0649 180.232 47.9932 180.232 51.3991C180.232 54.8051 182.975 56.5832 187.555 56.6834V57.8854H191.203V56.6834C195.809 56.5832 198.552 54.8051 198.552 51.3991C198.552 47.9932 195.809 46.0649 191.203 45.9647ZM187.555 54.1289C185.039 54.0288 183.931 53.002 183.931 51.3991C183.931 49.7964 185.039 48.6444 187.555 48.5442V54.1289ZM194.821 51.3991C194.821 53.002 193.746 54.0288 191.203 54.1289V48.5442C193.746 48.6444 194.827 49.7964 194.827 51.3991H194.821ZM33.2 56.3703C33.1245 56.3703 33.0553 56.4267 33.049 56.5018V56.508C33.0428 56.5894 33.1057 56.6645 33.1874 56.6708H33.1937C33.2818 56.6708 33.3447 56.6019 33.3447 56.5206C33.3447 56.4329 33.2818 56.3703 33.2 56.3703ZM33.1938 56.364C33.2 56.364 33.2 56.3703 33.2 56.3703C33.2063 56.3703 33.2063 56.364 33.2126 56.364H33.1938ZM43.4731 66.6319L42.6049 66.3L42.844 65.4047L43.1082 64.428C41.9192 65.0353 40.6737 65.5237 39.3903 65.8868C38.7612 66.0621 38.3082 66.1435 38.3082 66.1435V66.7758C37.5345 66.901 36.7544 66.9699 35.968 66.9762H35.8988C35.1124 66.9699 34.3323 66.901 33.5586 66.7758V66.1497C33.5586 66.1497 33.0993 66.0621 32.4702 65.8868C31.1869 65.5237 29.9412 65.0353 28.7522 64.428L29.0102 65.4047L29.2555 66.3L28.3811 66.6319L27.4375 66.9887C28.7334 67.6586 30.0859 68.2158 31.4826 68.6541L31.1491 69.5556C32.6652 70.1317 34.2883 70.4134 35.9114 70.3759H35.9491C37.5722 70.4134 39.1953 70.1317 40.7114 69.5556L40.3842 68.6541C41.7746 68.2158 43.1271 67.6586 44.423 66.9887L43.4731 66.6319ZM28.488 67.0451L29.8972 66.5755L29.4758 65.1982C30.4005 65.6551 31.3568 66.0371 32.3444 66.3376L31.6524 68.2158C30.564 67.9278 29.5009 67.5335 28.488 67.0451ZM35.968 69.9313L35.9366 69.9063C34.5525 69.9 33.1748 69.7122 31.8411 69.3491L32.6904 67.0576C33.7473 67.3206 34.8356 67.4645 35.9302 67.4708H35.9995C37.0941 67.4583 38.1824 67.3206 39.2393 67.0576L40.0886 69.3491C38.7486 69.7248 37.3583 69.9188 35.968 69.9313ZM40.2584 68.2535V68.2346L39.5664 66.3564C40.5541 66.0558 41.5103 65.674 42.4351 65.2169L42.0136 66.5942L43.4417 67.0701C42.4225 67.5648 41.353 67.9654 40.2584 68.2535ZM35.9302 30.8948C37.3519 30.8573 38.7486 31.283 39.906 32.1032C40.0885 31.1766 40.4345 30.2875 40.9315 29.4799L39.5035 29.6426L38.7611 28.0587L37.3205 28.7974L35.9302 27.4263L34.5398 28.7974L33.0992 28.0587L32.3569 29.6426L30.9288 29.4799C31.4258 30.2875 31.7718 31.1766 31.9543 32.1032C33.1119 31.283 34.5084 30.8573 35.9302 30.8948ZM32.294 30.1936L32.6903 30.2374L32.8602 29.8806L33.3572 28.8162L34.2819 29.292L34.6406 29.4736L34.9299 29.2106L35.9302 28.2026L36.9305 29.2106L37.2198 29.4924L37.5784 29.3108L38.4969 28.835L39.0002 29.8993L39.17 30.2562L39.5664 30.2124L39.9439 30.1686C39.7928 30.5129 39.6608 30.8698 39.5538 31.2329C37.2828 30.0746 34.5839 30.0746 32.3128 31.2329C32.2059 30.8698 32.0739 30.5129 31.9228 30.1686L32.294 30.1936ZM54.5893 43.8172L54.4194 43.6107C53.2493 42.1268 52.1358 40.7181 50.1479 40.0732C50.2297 40.0044 50.3114 39.9418 50.3995 39.8854C51.3431 39.3532 52.0099 38.4392 52.2239 37.3811C52.3309 36.4231 52.0603 35.4653 51.469 34.7014L50.8399 33.9188L50.4435 34.8517C50.4435 34.908 49.7452 36.4044 48.336 36.4044H47.9209C47.9963 35.4214 47.6378 34.451 46.9395 33.7498C46.0902 32.8858 44.92 32.4037 43.706 32.41C43.4794 32.41 43.2529 32.4287 43.0328 32.46L42.0702 32.6479L42.6679 33.4305C43.1334 34.0566 43.555 35.1397 43.058 35.722C42.8189 35.9286 42.5484 36.0914 42.2527 36.204C41.6236 36.4983 40.7177 36.9177 40.7177 37.9696C40.7177 38.6521 41.2524 39.3658 42.215 39.9731C45.0521 41.7637 46.8073 43.6107 47.5686 45.6892C48.7449 48.8573 47.2099 50.6604 45.719 51.612L45.0521 52.0378L45.6372 52.57C46.1594 53.0144 46.801 53.2899 47.4868 53.3588H48.0592C48.6443 53.3588 49.2231 53.2775 49.7829 53.1084C49.6446 53.3526 49.4748 53.5842 49.2923 53.7971C48.443 54.7801 47.1848 55.3185 45.8826 55.2496H45.3227L45.2787 55.8068C45.2724 56.5894 45.6184 57.3282 46.216 57.8354C46.3733 57.9731 46.5494 58.0858 46.7381 58.1734C45.8071 59.0749 45.2787 60.3084 45.2598 61.6043C45.2598 62.3118 45.0962 63.0131 44.7879 63.6517L44.1589 64.5908H45.2787C47.1282 64.5908 48.5437 64.0837 49.525 63.0757C50.0346 62.5436 50.412 61.8986 50.6322 61.1974C50.9971 61.5042 51.425 61.7171 51.8905 61.8235C52.1107 61.8736 52.3371 61.8986 52.5636 61.8986C52.9033 61.8986 53.243 61.8548 53.5701 61.7797L54.2873 61.5919L53.9728 60.9282C53.5764 59.8701 53.5764 58.6993 53.9728 57.6412C54.2055 56.9525 54.3691 56.2388 54.4571 55.5125C55.0233 55.8005 55.6525 55.9445 56.2879 55.9383C57.3321 55.9508 58.3072 55.4374 58.8734 54.5672L59.2194 53.9411L58.5903 53.6781C56.4829 52.8079 56.0173 50.4663 55.9229 49.2016C56.1306 49.2454 56.3381 49.2704 56.552 49.2767L56.7282 49.3957C59.0181 49.3957 59.7856 47.0729 59.817 46.9728L60.075 46.1525H59.2131C57.4013 46.0899 55.709 45.2385 54.5893 43.8172ZM56.7345 48.7633H56.6464C56.1872 48.7696 55.7342 48.6444 55.3442 48.4065C55.3442 48.4065 55.0108 52.9331 58.4016 54.3356V54.3543C57.955 55.0305 57.1875 55.4312 56.376 55.4186C55.4574 55.475 54.5704 55.0869 53.9917 54.3793C54.0105 55.4437 53.8344 56.508 53.4758 57.5097C53.0165 58.7181 53.0165 60.058 53.4758 61.2663C53.1927 61.3352 52.9096 61.3727 52.6202 61.3727C52.444 61.3727 52.2616 61.3539 52.0918 61.3101C51.255 61.1098 50.5882 60.4962 50.3177 59.6885C50.3177 59.6885 50.4499 64.0336 45.3604 64.0336H45.3227C45.7064 63.3073 45.9078 62.4997 45.9015 61.6795C46.1217 58.4677 48.3109 58.0106 48.3109 58.0106C47.7069 57.9355 47.1345 57.7226 46.6312 57.3845C46.1719 57.0026 45.9078 56.4392 45.8951 55.8444C47.3672 55.907 48.789 55.2996 49.7515 54.1853C50.3303 53.5279 50.714 52.7265 50.8776 51.8687C50.066 52.476 49.0658 52.7828 48.0529 52.739H47.5371C46.9898 52.6827 46.4677 52.4698 46.0461 52.1129C47.9838 50.8607 49.3426 48.7196 48.141 45.4701C47.1722 42.8656 44.8509 40.9185 42.517 39.4535C41.7431 38.9776 41.2776 38.4392 41.2776 37.9758C41.2776 36.8864 42.8315 36.8551 43.4731 36.0976C44.2092 35.2462 43.75 33.8687 43.1082 33.0423C43.2907 33.011 43.4794 32.9985 43.6619 32.9985C44.7125 32.986 45.7253 33.4054 46.455 34.1567C47.1974 34.8579 47.4805 35.916 47.1974 36.8928L47.5371 36.9616C47.7447 36.9992 47.9523 37.018 48.1662 37.0242H48.3046C50.1479 37.0242 50.9782 35.1021 50.9782 35.1021C50.9782 35.1021 52.941 37.5063 50.0535 39.3845C49.5565 39.7039 49.3363 40.0106 49.4244 40.3236L49.4684 40.5303L49.676 40.5678C51.771 41.1313 52.8215 42.5714 54.1238 44.2054C55.3568 45.7644 57.219 46.7035 59.2131 46.7724H59.2509C59.2509 46.7724 58.6218 48.7633 56.7345 48.7633Z" fill="#222220"/>
<path d="M52.6951 40.3551C53.3996 40.7558 54.0099 41.3005 54.488 41.9517C54.8466 42.5026 55.3562 42.9408 55.9601 43.2038C56.1865 43.2789 56.4319 43.3165 56.671 43.3165C57.6334 43.3165 58.5143 42.7718 58.9546 41.9204L59.3195 41.1065L58.4325 41.0563C57.4762 40.881 56.6144 40.3927 55.979 39.6601C55.5072 39.153 54.8466 38.8587 54.1483 38.8525C53.6073 38.8587 53.0851 39.0216 52.6322 39.3095L51.8144 39.8793L52.6951 40.3551ZM54.1672 39.4598L54.1483 39.4661C54.683 39.4661 55.1863 39.6977 55.5449 40.0922C56.2809 40.9311 57.2874 41.4883 58.3947 41.6699C58.055 42.3023 57.3945 42.6966 56.671 42.703C56.4948 42.703 56.3187 42.6717 56.1488 42.6153C55.1297 42.271 54.7711 40.7371 53.0034 39.8104C53.3494 39.585 53.752 39.4661 54.1672 39.4598ZM53.1103 48.4254L53.0977 48.4129C52.5819 44.2806 49.5685 41.2943 46.2155 39.4849C45.9072 39.3158 45.6177 39.1781 45.341 39.0466C46.725 39.3284 48.1656 38.9903 49.2791 38.1262C49.2791 38.1262 47.3352 39.5475 43.3593 38.2577C44.4603 38.9714 46.5992 39.9732 48.5556 41.601C53.4375 45.8709 49.946 50.0407 49.946 50.0407C51.4055 48.6633 51.915 46.5596 51.2607 44.6689C52.2925 46.378 52.7895 48.3565 52.6826 50.3475C52.5441 53.6282 50.7135 56.4957 48.8262 58.7808C48.26 59.5008 47.8699 60.3461 47.7064 61.2476C48.0272 60.3523 48.5116 59.5259 49.1407 58.8122C51.1853 56.4268 52.9153 53.9537 53.1606 50.3913C53.3745 51.0174 54.2427 52.8393 55.6267 53.5217C55.6267 53.5217 53.8904 52.4824 53.1103 48.4254ZM27.0657 63.6957C26.7637 63.057 26.6002 62.3559 26.5939 61.6483C26.575 60.3523 26.0403 59.119 25.1092 58.2174C25.2979 58.1297 25.4741 58.0171 25.6314 57.8793C26.229 57.3722 26.575 56.6334 26.5687 55.8508L26.531 55.2935H25.9647C24.6688 55.3561 23.4106 54.824 22.5614 53.8411C22.3789 53.6282 22.2154 53.3965 22.0706 53.1524C22.6305 53.3214 23.2094 53.4028 23.7944 53.4028H24.3669C25.0525 53.3338 25.7005 53.0585 26.2227 52.6139L26.8077 52.0817L26.1409 51.656C24.6436 50.7043 23.115 48.9012 24.2914 45.7332C25.0525 43.6734 26.8077 41.8139 29.6702 40.0233C30.6326 39.3972 31.1611 38.7023 31.1611 38.0198C31.1611 36.968 30.2741 36.5486 29.6261 36.2542C29.3305 36.1415 29.0599 35.9787 28.8209 35.7722C28.3176 35.1899 28.7391 34.0817 29.2109 33.4807L29.84 32.6981L28.8712 32.5102C28.651 32.4727 28.4246 32.4602 28.1981 32.4602C26.9714 32.4226 25.7886 32.8922 24.9205 33.7499C24.2096 34.4448 23.8385 35.4215 23.9076 36.4108H23.5302C22.1147 36.4108 21.4478 34.9206 21.4227 34.858L21.0264 33.9252L20.3973 34.7079C19.8122 35.4716 19.5417 36.4296 19.6486 37.3874C19.8626 38.4455 20.5231 39.3597 21.4667 39.8918C21.5548 39.9481 21.6429 40.0107 21.7184 40.0797C19.7305 40.7058 18.6169 42.1333 17.4468 43.617L17.2769 43.8299C16.1572 45.2511 14.4586 46.1026 12.6468 46.1652H11.7849L12.0492 46.9854C12.0492 47.0855 12.8418 49.4084 15.138 49.4084H15.2513C15.4652 49.402 15.6727 49.3771 15.8804 49.3332C15.786 50.5853 15.3205 52.9395 13.2067 53.8098L12.5776 54.0727L12.9236 54.6987C13.4898 55.569 14.4649 56.0825 15.5092 56.0699C16.1445 56.0761 16.7674 55.9322 17.3335 55.6442C17.4216 56.3704 17.5852 57.0842 17.818 57.7729C18.2143 58.831 18.2143 60.0017 17.818 61.0598L17.5035 61.7234L18.2205 61.9112C18.5477 61.9864 18.8875 62.0302 19.2272 62.0302C19.4536 62.0302 19.6801 62.0052 19.9003 61.9551C20.3658 61.8486 20.7936 61.6359 21.1585 61.3291C21.3786 62.0302 21.7561 62.6751 22.2657 63.2073C23.2534 64.2153 24.6688 64.7161 26.5121 64.7224H27.6319L27.0657 63.6957ZM26.5246 64.0463C21.4353 64.0463 21.5611 59.7013 21.5611 59.7013C21.2905 60.5088 20.6237 61.1224 19.787 61.3228C19.6172 61.3666 19.4347 61.3854 19.2586 61.3854C18.9692 61.3854 18.6861 61.3478 18.4094 61.2789C18.8685 60.0706 18.8685 58.7307 18.4094 57.5224C18.0507 56.5207 17.8809 55.4564 17.8997 54.3919C17.321 55.0995 16.434 55.4877 15.5155 55.4313H15.484C14.6662 55.4438 13.8987 55.0368 13.452 54.3606C16.8429 52.9582 16.5095 48.4316 16.5095 48.4316C16.1194 48.6696 15.6665 48.7948 15.2072 48.7885H15.138C13.2507 48.7885 12.6216 46.7976 12.6216 46.7976H12.6594C14.6536 46.7349 16.522 45.7958 17.7551 44.2369C19.051 42.6028 20.1079 41.1627 22.2028 40.5993L22.4104 40.5617L22.4545 40.3552C22.511 40.0358 22.2908 39.729 21.8253 39.4159C18.9377 37.5377 20.9006 35.1335 20.9006 35.1335C20.9006 35.1335 21.7184 37.0557 23.5742 37.0557H23.6623C23.8762 37.0494 24.0837 37.0306 24.2914 36.9931L24.6311 36.9242C24.3417 35.9474 24.6311 34.8893 25.3735 34.1882C26.1032 33.4369 27.116 33.0174 28.1666 33.0299C28.3491 33.0299 28.5378 33.0424 28.7202 33.0737C28.0911 33.9064 27.6255 35.2838 28.3616 36.129C28.9907 36.8616 30.5509 36.8929 30.5509 38.0073C30.5509 38.4706 30.1168 39.009 29.343 39.4911C27.0028 40.9562 24.6815 42.9033 23.7189 45.5078C22.5174 48.7572 23.8762 50.9172 25.8138 52.1506C25.3923 52.5012 24.8702 52.7204 24.3228 52.7767H23.8006C22.7878 52.8205 21.7875 52.5137 20.976 51.9064C21.1396 52.7641 21.5234 53.5656 22.0958 54.2229C23.0584 55.3311 24.4864 55.9447 25.9585 55.8821C25.9459 56.4768 25.6816 57.0403 25.2225 57.4223C24.7192 57.7603 24.1466 57.9732 23.5427 58.0484C23.5427 58.0484 25.7383 58.4929 25.9774 61.7172C25.9711 62.5373 26.1724 63.345 26.5561 64.0713L26.5246 64.0463Z" fill="#222220"/>
<path d="M15.1801 43.3101H15.1865C15.4255 43.3101 15.6708 43.2725 15.8973 43.1974C16.5013 42.9344 17.0108 42.4962 17.3694 41.9452C17.8412 41.2941 18.4515 40.7494 19.156 40.3487L20.0367 39.8791L19.2189 39.3094C18.766 39.0214 18.2438 38.8586 17.7091 38.8523C17.0108 38.8586 16.3503 39.1529 15.8785 39.6662C15.2494 40.3926 14.3812 40.8872 13.4313 41.0624L12.5442 41.1063L12.9028 41.9202C13.3432 42.7717 14.2177 43.3038 15.1801 43.3101ZM16.3126 40.092C16.6648 39.6975 17.1681 39.4659 17.7028 39.4659C18.1117 39.4722 18.5144 39.5974 18.8604 39.8165C17.08 40.7619 16.7088 42.277 15.7149 42.6214C15.5513 42.6777 15.3752 42.709 15.199 42.709C14.4693 42.709 13.8025 42.3083 13.4627 41.6698C14.5699 41.4882 15.5765 40.931 16.3126 40.092ZM19.1876 50.3724C19.0807 48.3814 19.5714 46.4029 20.6094 44.6938C19.9551 46.5845 20.4647 48.6882 21.9242 50.0656C21.9242 50.0656 18.4264 45.8958 23.3145 41.6259C25.2709 39.9981 27.4037 38.9964 28.5046 38.2826C24.5287 39.5723 22.5848 38.1511 22.5848 38.1511C23.6982 39.0152 25.1326 39.3532 26.5166 39.0714C26.2397 39.203 25.9504 39.3469 25.6421 39.5097C22.289 41.3254 19.2569 44.3118 18.7598 48.444V48.4127C17.9798 52.4698 16.2435 53.509 16.2435 53.509C17.6211 52.8328 18.4956 51.0047 18.7032 50.3786C18.9359 53.9473 20.6848 56.4203 22.7294 58.7995C23.3522 59.5132 23.8429 60.3396 24.1638 61.235C23.9939 60.3396 23.6038 59.4944 23.0314 58.7807C21.1441 56.4955 19.3198 53.628 19.1876 50.3724ZM34.7765 42.8343C34.9966 42.6214 35.3049 42.5212 35.6132 42.5588V43.7421C35.6069 44.0363 35.5314 44.318 35.3867 44.5748H36.5757C36.431 44.318 36.3556 44.0363 36.3493 43.7421V42.5588C36.6512 42.5212 36.9595 42.6214 37.1796 42.8343V42.0141H34.7765V42.8343ZM34.2796 37.1557H34.267C34.4495 37.3122 34.6634 37.4374 34.8961 37.5125L35.0471 37.5814V36.8051L33.6505 36.2228C33.7196 36.6109 33.9462 36.949 34.2796 37.1557ZM37.595 37.1494L37.5888 37.1557C37.9221 36.949 38.1486 36.6109 38.2178 36.2228L36.8212 36.8051V37.5751L36.9659 37.5062C37.1987 37.4312 37.4126 37.3059 37.595 37.1494Z" fill="#222220"/>
<path d="M40.1004 34.0127C40.1004 32.8419 38.1188 31.7901 35.9358 31.7901C33.7528 31.7901 31.7712 32.8419 31.7712 34.0127L31.8153 34.3007L32.6896 39.3094L31.8153 39.8165L29.5316 41.1063C29.5316 41.1063 29.022 41.3692 28.783 41.5257C27.9211 42.1518 27.7387 42.9908 28.2356 43.3539C28.3614 42.5024 29.1101 41.8763 29.9782 41.9014C30.7017 41.9202 31.3749 42.2833 31.7838 42.878C31.9096 43.0283 32.0228 43.1911 32.1234 43.3539C32.2556 43.5667 32.3877 43.7545 32.5198 43.9361H26.6943C27.1851 44.7751 27.4682 45.7205 27.5311 46.691V59.5695C27.5311 62.7 29.9405 64.1713 32.5638 64.1713C34.577 64.1713 34.8474 64.0774 35.9547 65.1793C37.0619 64.0774 37.3324 64.1713 39.3455 64.1713C41.95 64.1713 44.3782 62.6874 44.3782 59.5695V46.7035C44.4412 45.733 44.7242 44.7877 45.215 43.9487H39.3266C39.4587 43.7671 39.5909 43.5793 39.723 43.3664C39.8299 43.2037 39.9432 43.0409 40.0627 42.8906C40.4779 42.2958 41.151 41.9327 41.8744 41.9138C42.7426 41.8889 43.4912 42.515 43.6171 43.3664C44.1203 43.0096 43.9379 42.1143 43.0698 41.5382C42.837 41.3754 42.3274 41.1188 42.3274 41.1188L40.0627 39.7914L39.1883 39.2843L40.0627 34.2756L40.1004 34.0127ZM32.6142 34.5887L35.6842 35.6217V40.4176L33.4257 39.2279L32.6142 34.5887ZM27.9525 44.7813H33.2432C33.6522 45.2071 34.1554 45.5452 34.7091 45.7581C34.5895 46.1713 34.621 46.6158 34.7908 47.0103C34.9922 47.4297 35.3507 47.7553 35.7911 47.9243C35.8729 48.6443 36.3636 49.2453 37.0492 49.4833C36.6718 49.8652 36.3007 50.2221 36.1497 50.366L32.6331 50.3098C32.5135 50.2534 32.4192 50.1657 32.3563 50.053V50.0092L32.9287 50.1031H32.9664C33.0797 50.1031 33.1741 50.028 33.193 49.9153C33.2118 49.7901 33.13 49.6773 33.0042 49.6523L32.2996 49.5396L33.0797 46.8475L32.3373 45.2948L31.1483 46.5469L31.0729 49.3456L30.2739 49.2204C30.1481 49.1953 30.0349 49.2766 30.0097 49.4018V49.4082C29.9908 49.5334 30.0726 49.646 30.1984 49.6711L30.5319 49.7212C30.4123 49.7901 30.3305 49.8401 30.3242 49.8527L30.2551 49.9027V49.9841C30.0978 50.6979 30.3872 51.4367 30.9785 51.8624V51.9626C30.9408 52.2067 31.1106 52.4384 31.356 52.4822H31.4314C31.6391 52.4822 31.8215 52.3383 31.8655 52.1316C32.0165 52.1379 32.1613 52.1379 32.3122 52.1316H32.4065L37.0178 52.9644L37.0933 52.9142C37.4583 52.6576 38.8611 51.6621 39.3203 51.3052C39.4524 51.4179 39.6034 51.518 39.7607 51.5932C39.5468 52.2506 39.7103 52.9706 40.1885 53.4715H28.3741V46.7035C28.3489 46.0461 28.2042 45.3949 27.9525 44.7813ZM38.924 50.9734C38.4459 51.324 37.2695 52.1754 36.8417 52.476L32.6582 51.7498V51.637C32.7274 51.3553 32.7652 51.0673 32.7714 50.7793L36.2943 50.8356L36.3636 50.7667C36.4202 50.7104 37.5337 49.6398 38.0999 49.02C38.2509 49.2078 38.427 49.3643 38.6283 49.4895C38.5277 50.003 38.6346 50.5351 38.924 50.9734ZM31.9347 50.2221V50.2408C32.0291 50.4162 32.1675 50.5664 32.3373 50.6666C32.3311 50.9233 32.3059 51.1737 32.2619 51.4241C32.2619 51.4805 32.2619 51.5369 32.2178 51.5932V51.6808C31.9284 51.6808 31.6453 51.637 31.3685 51.5493C30.8652 51.2802 30.5822 50.7292 30.664 50.1657C30.8904 50.0092 31.1483 49.9091 31.4189 49.8714C31.6516 49.8652 31.8592 50.003 31.9347 50.2221ZM31.5007 49.3894L31.5699 46.741L32.199 46.1149L32.5827 46.9101L31.8341 49.4895L31.5007 49.3894ZM38.8925 63.3386H38.2886L38.7604 61.8047C38.8359 61.5918 38.4459 61.3163 38.2823 61.0721C38.6661 61.3038 39.0624 61.5104 39.4713 61.6982C39.4713 61.7483 38.8925 63.3386 38.8925 63.3386ZM40.5093 61.6231L40.459 61.5793L40.1319 63.2697C39.9242 63.2697 39.7041 63.3135 39.5028 63.3261L39.8488 61.6982C39.9494 61.2161 38.6472 61.0721 38.0055 60.1143C37.5841 60.4648 37.043 60.6276 36.502 60.5712C36.0239 60.565 35.5521 60.515 35.0865 60.4211C35.0047 60.4147 34.923 60.4147 34.8412 60.4211C34.6462 60.4085 34.4574 60.5086 34.3568 60.6777L34.2624 60.8343L32.4694 60.4022L32.0417 61.1411C31.9725 61.2412 31.9851 61.3789 32.0732 61.4666L32.1927 61.598C32.0732 61.8297 31.9222 62.0426 31.7397 62.2241L31.4755 61.8986C31.2742 61.573 31.2931 61.1535 31.5195 60.8467L32.2242 59.6634L33.7277 59.8889L33.4949 59.3566C33.1803 58.6555 33.6584 57.7601 33.7088 57.2468C33.7088 57.4033 33.5453 57.4346 33.3817 57.4346H32.9476C32.9162 57.4284 32.8783 57.4284 32.8469 57.4346L32.438 57.6788L32.1172 57.3845C32.0669 57.2906 32.0857 57.1779 32.1613 57.109L32.9035 56.2764L32.0228 55.2558L33.281 55.8819L33.6584 55.4311C33.7592 55.5313 33.7151 55.7942 33.7151 55.7942C34.6272 56.0197 35.2627 56.8461 35.2375 57.7852V57.9668C35.3633 58.1671 35.5646 58.3049 35.7911 58.3612L37.496 58.5302C37.8357 58.4238 38.1817 58.3549 38.534 58.3111C38.8359 58.3111 39.1379 58.405 39.3895 58.5678C39.5091 58.4865 39.6538 58.4363 39.7984 58.4301H39.8551C40.6162 58.4301 40.9371 59.1188 41.3461 59.6822C41.6542 60.1143 42.0695 60.7654 42.0695 60.7654C41.95 60.9406 41.755 61.0471 41.5411 61.0471C41.4655 61.0534 41.3963 61.0534 41.3209 61.0471C40.5031 60.8969 40.3835 59.2189 39.918 59.0875H39.8425C39.7544 59.0875 39.6726 59.1375 39.6286 59.2189C39.8425 59.7886 39.7167 60.0204 39.9494 60.4711C40.1192 60.7403 40.3332 60.9845 40.5785 61.1911C40.5785 61.1911 40.5471 61.4415 40.5093 61.6231ZM31.3434 59.9828H31.3308L31.4063 60.1769C31.356 60.3459 30.7772 60.5901 30.7772 60.5901L30.6513 60.3146C30.4878 59.9202 30.6073 59.4694 30.9533 59.2127L31.9032 58.6366L32.9162 58.8495C32.9098 59.0499 32.9727 59.244 33.0922 59.4068L32.0291 59.2064L31.4 59.6447C31.2993 59.7324 31.2804 59.8701 31.3434 59.9828ZM43.5102 59.5758C43.5793 61.3163 42.3652 62.844 40.6477 63.1821L40.9371 61.667C40.9371 61.5793 40.9685 61.4728 40.9812 61.3851C41.0693 61.4228 41.1573 61.4478 41.2453 61.4666C41.3461 61.4728 41.4467 61.4728 41.5473 61.4666C41.8933 61.4666 42.2204 61.3101 42.4281 61.0346L42.6545 60.7716L42.4658 60.515C42.4658 60.515 42.0443 59.8512 41.7298 59.413L41.5536 59.1501C41.2013 58.6242 40.7547 57.9605 39.8676 57.9605H39.7859C39.6601 57.9668 39.528 57.9918 39.4084 58.0356C39.1379 57.9042 38.8423 57.8353 38.5402 57.8353C38.2382 57.8416 37.9363 57.8979 37.6533 58.0043L37.5022 58.0482L35.8414 57.8853C35.7723 57.854 35.7156 57.804 35.6716 57.7414L36.0302 57.5974C35.9295 56.4016 34.772 55.669 34.1429 55.4248C34.1114 55.2933 34.0485 55.1807 33.9542 55.0868L33.5955 54.7487L33.281 55.1243L33.1237 55.3122L30.7961 54.3605L32.3122 56.2388L31.7145 57.1403C31.5887 57.2655 31.5824 57.4721 31.7145 57.6036L32.3436 58.0294L32.9727 57.7914H33.0356C33.0356 57.8853 32.9664 58.2673 32.935 58.3737L31.8403 58.1859L30.6702 58.812C30.1293 59.2001 29.9405 59.9139 30.2236 60.515L30.3557 60.7967L30.5382 61.1973L30.9471 61.0283C30.7961 61.4353 30.859 61.8861 31.1232 62.2305L31.3685 62.5435L31.6957 62.9567L32.0605 62.5685C32.2996 62.3306 32.4883 62.0551 32.6204 61.7483L32.696 61.4979L32.5198 61.3038V61.2663L32.7211 60.9406L34.1743 61.2788L34.5014 61.3538L34.6776 61.0659L34.772 60.9093C34.772 60.878 34.772 60.8718 34.8601 60.8718H35.0173C35.5143 60.972 36.0176 61.0221 36.5209 61.0283C36.8605 61.0471 37.2002 61.0095 37.5274 60.9093L38.3326 61.8235L37.8545 63.2884V63.3761C37.1373 63.3636 36.4516 63.6579 35.9672 64.1775C35.1934 63.4137 34.6462 63.3323 32.5764 63.3323C30.0915 63.3323 28.4118 61.8861 28.4118 59.5758V53.941H43.5102V59.5758ZM43.9191 44.7813C43.6611 45.3887 43.5227 46.0398 43.4975 46.7035V50.9233C42.9503 50.8043 42.5413 50.3411 42.5035 49.7838V49.5897H42.3148C41.9877 49.5647 41.6857 49.4144 41.4592 49.1827C41.1824 48.8634 41.0314 48.4627 41.0252 48.0433C40.7547 48.4816 40.7798 49.045 41.0944 49.4582C41.3397 49.765 41.6983 49.9717 42.0883 50.0217C42.2016 50.748 42.7866 51.3115 43.5164 51.4054V53.4715H40.8741C40.1822 53.1209 39.8928 52.3006 40.2011 51.5932L40.3017 51.3678L40.069 51.2802C39.3141 51.0172 38.8988 50.2095 39.1379 49.4457L39.1883 49.2579L39.0121 49.1765C38.3515 48.7946 37.9866 48.0495 38.0936 47.2982C37.7476 47.6488 37.6595 48.181 37.8797 48.6192C37.7539 48.7633 37.5903 48.9323 37.4079 49.1201C36.7473 48.9824 36.2693 48.4127 36.2441 47.7427V47.5862L36.0993 47.5298C35.7156 47.4172 35.4011 47.1542 35.2186 46.8036C35.0991 46.5156 35.0739 46.1901 35.1557 45.8896C35.2815 45.9146 35.4073 45.9333 35.5332 45.9459C35.659 45.9522 35.7911 45.9522 35.9169 45.9459C36.9361 45.9459 37.9049 45.5077 38.5842 44.7564L43.9191 44.7813ZM39.8425 40.5115L40.8741 41.1376L41.1322 41.2878C40.5974 41.4318 40.113 41.7198 39.7292 42.1205L39.6853 42.158C39.5972 42.2519 39.5153 42.3459 39.4336 42.4461L39.3832 42.5087C39.3014 42.6089 39.226 42.7153 39.1568 42.828L39.1191 42.8844C39.031 43.0096 38.9492 43.1473 38.8673 43.285C38.2949 44.4183 37.1814 45.1758 35.9169 45.301C34.6524 45.1758 33.539 44.4183 32.9664 43.285C32.8847 43.1473 32.8029 43.0158 32.7211 42.8844L32.6708 42.8154L32.4694 42.4899L32.4129 42.4211C32.3311 42.3209 32.2492 42.2269 32.1675 42.1393L32.1234 42.0954C31.7397 41.6947 31.2553 41.4067 30.7206 41.2628L30.9848 41.1125L32.0228 40.4864L33.086 39.8604L35.9233 41.3943L38.7604 39.9104L39.8425 40.5115ZM38.4459 39.2592L36.1874 40.4426V35.628L39.2512 34.5949L38.4459 39.2592ZM35.9295 35.1209L32.5702 33.781C32.8533 33.1049 34.1743 32.5289 35.9295 32.5289C37.6847 32.5289 39.0058 33.1049 39.2889 33.781L35.9295 35.1209Z" fill="#222220"/>
</svg>
