<svg width="18" height="18" viewBox="0 0 18 18" fill="none" xmlns="http://www.w3.org/2000/svg">
<path d="M2.43281 4.04648L4.30488 2.17617C4.43694 2.04353 4.5939 1.93829 4.76675 1.8665C4.93961 1.7947 5.12494 1.75777 5.31211 1.75781C5.69355 1.75781 6.05215 1.90723 6.32109 2.17617L8.33555 4.19062C8.46818 4.32268 8.57342 4.47965 8.64522 4.6525C8.71701 4.82535 8.75395 5.01068 8.75391 5.19785C8.75391 5.5793 8.60449 5.93789 8.33555 6.20684L6.8625 7.67988C7.20731 8.43989 7.6867 9.13129 8.27754 9.7207C8.8669 10.313 9.55823 10.7941 10.3184 11.141L11.7914 9.66797C11.9235 9.53533 12.0804 9.43009 12.2533 9.3583C12.4261 9.2865 12.6115 9.24956 12.7986 9.24961C13.1801 9.24961 13.5387 9.39902 13.8076 9.66797L15.8238 11.6807C15.9566 11.813 16.062 11.9702 16.1338 12.1434C16.2056 12.3165 16.2424 12.5022 16.2422 12.6896C16.2422 13.0711 16.0928 13.4297 15.8238 13.6986L13.9553 15.5672C13.5264 15.9979 12.934 16.2422 12.3258 16.2422C12.1975 16.2422 12.0744 16.2316 11.9531 16.2105C9.58359 15.8203 7.2334 14.56 5.33672 12.665C3.4418 10.7719 2.1832 8.42344 1.78769 6.04688C1.66816 5.3209 1.90898 4.57383 2.43281 4.04648Z" fill="black"/>
</svg>
