<svg width="16" height="16" viewBox="0 0 16 16" fill="none" xmlns="http://www.w3.org/2000/svg">
<path d="M14 0H2C0.89543 0 0 0.89543 0 2V14C0 15.1046 0.89543 16 2 16H14C15.1046 16 16 15.1046 16 14V2C16 0.89543 15.1046 0 14 0Z" fill="#735A88"/>
<path fill-rule="evenodd" clip-rule="evenodd" d="M13.1848 10.7956C12.8036 10.4887 12.3962 10.2132 11.9953 9.93186C11.1956 9.3702 10.4641 9.32655 9.86743 10.2302C9.53234 10.7375 9.06324 10.7597 8.57275 10.5371C7.22056 9.92402 6.17641 8.97933 5.56479 7.60495C5.29423 6.99688 5.29779 6.45173 5.93082 6.02166C6.26597 5.79422 6.60363 5.5251 6.57663 5.02813C6.54138 4.38013 4.96804 2.21459 4.34673 1.98602C4.08964 1.89143 3.83361 1.89759 3.57205 1.98549C2.11518 2.47543 1.51175 3.67359 2.08965 5.09228C3.8137 9.32486 6.84775 12.2714 11.0243 14.0699C11.2624 14.1723 11.527 14.2132 11.6609 14.25C12.6118 14.2595 13.7257 13.3434 14.0473 12.4342C14.3571 11.5595 13.7025 11.2123 13.1848 10.7956ZM8.50181 2.41996C11.5551 2.8895 12.9633 4.34138 13.3521 7.4167C13.3882 7.70076 13.2823 8.1282 13.6876 8.13608C14.1112 8.14417 14.0091 7.72304 14.0127 7.4387C14.0485 4.54231 11.523 1.85724 8.59009 1.75824C8.36881 1.79009 7.91094 1.60565 7.88237 2.10162C7.86334 2.43599 8.24884 2.38106 8.50181 2.41996Z" fill="white"/>
<path fill-rule="evenodd" clip-rule="evenodd" d="M9.09911 3.26316C8.80543 3.22778 8.41771 3.08941 8.34909 3.49691C8.27743 3.92463 8.70955 3.88119 8.98721 3.94335C10.873 4.36482 11.5296 5.0512 11.8401 6.92183C11.8855 7.19455 11.7954 7.61902 12.2588 7.54868C12.6023 7.49637 12.4782 7.13252 12.507 6.91999C12.5222 5.12404 10.9833 3.48941 9.09911 3.26316Z" fill="white"/>
<path fill-rule="evenodd" clip-rule="evenodd" d="M9.27228 4.73176C9.07626 4.73661 8.88385 4.75782 8.81179 4.96732C8.70358 5.28045 8.93123 5.35511 9.16294 5.39232C9.93651 5.51651 10.3436 5.97267 10.4209 6.74411C10.4418 6.95348 10.5747 7.12314 10.7769 7.09926C11.0572 7.06582 11.0825 6.81636 11.0739 6.57945C11.0878 5.71276 10.1082 4.71101 9.27228 4.73176Z" fill="white"/>
</svg>
