<svg width="18" height="18" viewBox="0 0 18 18" fill="none" xmlns="http://www.w3.org/2000/svg">
<g clip-path="url(#clip0)">
<path d="M8.99517 0.00488714C4.02755 0.0059412 0.00134215 4.03387 0.00239621 9.00149C0.00274756 10.7216 0.496365 12.4055 1.42464 13.8537L0.0252342 17.4845C-0.049288 17.6777 0.0468426 17.8946 0.239947 17.9691C0.283128 17.9858 0.32898 17.9943 0.375254 17.9943C0.418189 17.9945 0.460808 17.9871 0.501179 17.9725L4.24897 16.6346C8.46565 19.2607 14.0129 17.9714 16.6391 13.7547C19.2652 9.53797 17.9759 3.99075 13.7592 1.36459C12.3298 0.474332 10.6792 0.00323577 8.99517 0.00488714Z" fill="#68AA6B"/>
<path d="M13.2834 10.5367C13.2834 10.5367 12.3652 10.087 11.7903 9.78719C11.1397 9.45214 10.3752 10.0795 10.0154 10.4363C9.45543 10.2212 8.944 9.89657 8.51102 9.48137C8.09576 9.04847 7.77111 8.53704 7.55608 7.97701C7.91288 7.61649 8.53875 6.85268 8.20521 6.20207C7.90912 5.62641 7.45566 4.70895 7.45566 4.70822C7.39203 4.58194 7.26277 4.50222 7.12135 4.50208H6.3718C5.28021 4.69061 4.48654 5.64307 4.49792 6.75075C4.49792 7.92754 5.90633 10.1882 6.85604 11.1386C7.80575 12.0891 10.0664 13.4968 11.2439 13.4968C12.3516 13.5081 13.3041 12.7144 13.4926 11.6229V10.8733C13.4927 10.7304 13.4116 10.5999 13.2834 10.5367Z" fill="#FAFAFA"/>
</g>
<defs>
<clipPath id="clip0">
<rect width="18" height="18" fill="white"/>
</clipPath>
</defs>
</svg>
