<svg width="210" height="100" fill="none" xmlns="http://www.w3.org/2000/svg"><path d="M60.734 47.26l.673-2.103-2.19.069a5.131 5.131 0 01-2.843-.99h.296a3.533 3.533 0 003.145-1.953l.963-2.047c-.755.006-1.51-.038-2.258-.131a3.531 3.531 0 01-1.844-1.109 3.48 3.48 0 00-2.516-1.095c-.371 0-.742.062-1.101.175.05-.169.094-.338.126-.513a4.633 4.633 0 00-.957-3.425l-1.66-2.035-1.02 2.38a2.14 2.14 0 01-.723.845 4.412 4.412 0 00-1.208-2.242 5.432 5.432 0 00-3.925-1.628 5.22 5.22 0 00-.768.057l-1.988.388a6.63 6.63 0 01.806-1.878l1.094-1.697-2.755.257-.881-1.879-1.699.92-1.572-1.546-1.573 1.547-1.699-.877-.88 1.835-2.756-.314 1.095 1.703c.365.583.635 1.215.805 1.879l-1.887-.37h-.063a5.634 5.634 0 00-.793-.056 5.432 5.432 0 00-3.925 1.628 4.407 4.407 0 00-1.22 2.273 2.139 2.139 0 01-.712-.82l-1.025-2.399-1.674 2.041a4.68 4.68 0 00-.937 3.413c.032.175.076.344.126.513a3.678 3.678 0 00-1.101-.175 3.48 3.48 0 00-2.516 1.095 3.56 3.56 0 01-1.825 1.108c-.755.113-1.522.157-2.29.132l.938 2.079a3.533 3.533 0 003.145 1.953h.296a5.15 5.15 0 01-2.806.983l-2.202-.094.673 2.104a4.4 4.4 0 003.65 3.074 3.482 3.482 0 01-1.888 2.567l-1.686.682.906 1.572a4.02 4.02 0 003.416 1.834 5.13 5.13 0 001.07-.113c.087.382.2.764.326 1.134a3.86 3.86 0 01.063 2.567l-.818 1.709 1.831.482a5.02 5.02 0 001.258.156c.302 0 .598-.03.894-.1a4.31 4.31 0 00.629-.194c.232.42.528.808.862 1.152 1.17 1.196 2.83 1.803 4.938 1.803h1.503l-3.101 1.284 2.353 1.158c.95.463 1.919.883 2.906 1.252l-.283.814.812.37a12.84 12.84 0 004.221.87h1.931a12.72 12.72 0 004.203-.877l.786-.363-.277-.814c1-.382 1.982-.814 2.938-1.296l2.309-1.114-3.095-1.252h1.51c2.107 0 3.774-.626 4.938-1.804.34-.344.63-.732.862-1.152.201.082.415.144.629.195.296.068.591.1.893.1.422 0 .85-.057 1.258-.157l1.837-.482-.799-1.678a3.818 3.818 0 01.032-2.63c.132-.381.239-.77.327-1.158.352.076.717.113 1.076.113a3.997 3.997 0 003.422-1.878l.893-1.553-1.66-.676a3.482 3.482 0 01-1.888-2.567 4.407 4.407 0 003.65-3.08l-.026.05z" fill="#fff"/><path d="M43.491 53.91H28.393v5.634c0 2.317 1.68 3.757 4.164 3.757 2.076 0 2.624.081 3.391.845a2.522 2.522 0 011.887-.801v-.088l.478-1.465-.811-.883a2.91 2.91 0 01-1.007.12 8.129 8.129 0 01-1.51-.157h-.157c-.069 0-.069 0-.088.037l-.094.157-.17.281-.327-.075-1.453-.338-.202.326v.038l.176.194-.075.25a2.59 2.59 0 01-.56.82l-.365.388-.333-.413-.246-.307a1.25 1.25 0 01-.176-1.202l-.409.17-.182-.401-.1-.282a1.371 1.371 0 01.459-1.66l1.17-.625 1.113.219c0-.107.07-.488.1-.582h-.062l-.63.237-.628-.425a.326.326 0 010-.464l.597-.901-1.516-1.878 2.271.889.157-.188.315-.376.359.338a.697.697 0 01.188.338c.63.25 1.793.983 1.888 2.173l-.359.144a.42.42 0 00.17.144l1.66.163.152-.044a2.69 2.69 0 01.887-.17c.302 0 .597.07.868.201.12-.044.252-.069.377-.075h.082c.887 0 1.334.664 1.686 1.19l.183.263c.308.438.717 1.076.736 1.101l.182.282-.226.263a1.098 1.098 0 01-.881.432c-.1.006-.201.006-.302 0a1.421 1.421 0 01-.264-.081c0 .087 0 .194-.05.282l-.258 1.477a3.543 3.543 0 002.85-3.613l-.007-5.66zm-15.117-.457h11.758a1.876 1.876 0 01-.428-1.879 2.048 2.048 0 01-.44-.288c-.46.338-1.888 1.353-2.228 1.61l-.075.05-4.618-.814h-.094a5.516 5.516 0 01-.453 0 .443.443 0 01-.434.35h-.075a.461.461 0 01-.378-.52v-.1a1.823 1.823 0 01-.723-1.878v-.081l.069-.05s.088-.063.207-.132l-.333-.05a.231.231 0 01-.189-.263.223.223 0 01.258-.188h.006l.8.126.075-2.8 1.189-1.251.742 1.552-.78 2.693.705.112a.232.232 0 01.188.263.224.224 0 01-.226.188h-.038l-.572-.094v.044a.61.61 0 00.276.257l3.517.056.9-.883a1.876 1.876 0 01-1.258-1.559 1.833 1.833 0 01-1-.914 1.864 1.864 0 01-.082-1.252 4.149 4.149 0 01-1.466-.977h-5.222c.252.614.397 1.265.422 1.922v6.75z" fill="#FCE527"/><path d="M68.957 48.62h5.184v8.765h3.775v-8.766H83.1v-3.18H68.958v3.18zm19.125 3.756v-6.887h-3.649v11.896h3.221l6.291-6.962v6.962h3.65V45.439h-3.222l-6.29 6.937zm21.66-2.505h-5.863V45.49h-3.649v11.896h3.649v-4.458h5.863v4.458h3.648V45.489h-3.648v4.383zm16.375-.926a7.845 7.845 0 00-2.667-.326h-3.775v-3.13h-3.648v11.896l7.397-.05a8.32 8.32 0 002.291-.276 4.116 4.116 0 003.146-4.132 4.021 4.021 0 00-2.744-3.982zm-1.862 5.384c-.46.157-.95.22-1.435.176h-3.145v-3.03h3.145c.473-.032.95.024 1.41.15.579.169.969.7.956 1.302a1.49 1.49 0 01-.931 1.402zm19.892-8.84h-4.579l-4.404 4.483h-1.006v-4.483h-3.649v11.896h3.649v-4.508h1.006l4.353 4.508h4.857l-6.065-6.261 5.838-5.635z" fill="#222220"/><path d="M151.999 45.113c-4.932 0-7.877 2.755-7.877 6.311s2.97 6.311 7.851 6.311c4.882 0 7.826-2.755 7.826-6.31 0-3.557-2.868-6.312-7.8-6.312zm-.026 9.717c-2.44 0-4-1.452-4-3.406 0-1.953 1.585-3.38 4-3.38 2.416 0 4.001 1.427 4.001 3.38 0 1.954-1.56 3.406-4.001 3.406zm19.849-8.865v-1.202h-3.649v1.202c-4.581.1-7.323 2.028-7.323 5.434s2.742 5.184 7.323 5.284v1.202h3.649v-1.202c4.604-.1 7.347-1.878 7.347-5.284 0-3.406-2.737-5.334-7.347-5.434zm-3.649 8.164c-2.517-.1-3.624-1.127-3.624-2.73s1.107-2.755 3.624-2.855v5.585zm3.649 0v-5.585c2.541.1 3.623 1.252 3.623 2.855h.006c0 1.603-1.081 2.63-3.629 2.73zm19.381-8.164v-1.202h-3.648v1.202c-4.58.1-7.323 2.028-7.323 5.434s2.743 5.184 7.323 5.284v1.202h3.648v-1.202c4.606-.1 7.349-1.878 7.349-5.284 0-3.406-2.743-5.334-7.349-5.434zm-3.648 8.164c-2.516-.1-3.624-1.127-3.624-2.73s1.108-2.755 3.624-2.855v5.585zm7.266-2.73c0 1.603-1.075 2.63-3.618 2.73v-5.585c2.543.1 3.624 1.252 3.624 2.855h-.006zM33.2 56.37c-.076 0-.145.057-.151.132v.006a.153.153 0 00.138.163h.007a.149.149 0 00.15-.15c0-.088-.062-.15-.144-.15zm-.006-.006c.006 0 .006.006.006.006.006 0 .006-.006.013-.006h-.02zm10.28 10.268l-.87-.332.24-.895.264-.977a20.358 20.358 0 01-3.718 1.459c-.629.175-1.082.257-1.082.257v.632c-.773.125-1.554.194-2.34.2h-.07a15.404 15.404 0 01-2.34-.2v-.626s-.459-.088-1.088-.263a20.362 20.362 0 01-3.718-1.459l.258.977.245.895-.874.332-.944.357a25.306 25.306 0 004.046 1.665l-.334.902c1.516.576 3.14.857 4.762.82h.038a12.614 12.614 0 004.762-.82l-.327-.902a25.48 25.48 0 004.039-1.665l-.95-.357zm-14.986.413l1.41-.47-.422-1.377a18.87 18.87 0 002.868 1.14l-.692 1.878a17.76 17.76 0 01-3.164-1.17zm7.48 2.886l-.031-.025a15.87 15.87 0 01-4.096-.557l.85-2.291c1.056.263 2.145.406 3.24.413H36a14.087 14.087 0 003.24-.413l.849 2.291c-1.34.376-2.73.57-4.121.582zm4.29-1.677v-.02l-.692-1.878a18.76 18.76 0 002.87-1.14l-.422 1.378 1.428.476c-1.02.495-2.089.895-3.184 1.184zm-4.328-37.36a6.581 6.581 0 013.976 1.21 7.928 7.928 0 011.026-2.624l-1.428.163-.743-1.584-1.44.738-1.39-1.37-1.391 1.37-1.44-.738-.743 1.584-1.428-.163a7.928 7.928 0 011.025 2.623 6.582 6.582 0 013.976-1.208zm-3.636-.7l.396.043.17-.356.497-1.065.925.476.359.182.289-.263 1-1.008 1 1.008.29.281.358-.181.919-.476.503 1.064.17.357.396-.044.378-.043a8.955 8.955 0 00-.39 1.064 7.979 7.979 0 00-7.241 0 8.937 8.937 0 00-.39-1.064l.371.025zm22.295 13.623l-.17-.206c-1.17-1.484-2.283-2.893-4.271-3.538a2.4 2.4 0 01.252-.188 3.727 3.727 0 001.824-2.504 3.7 3.7 0 00-.755-2.68l-.63-.782-.395.933c0 .056-.699 1.552-2.108 1.552h-.415a3.397 3.397 0 00-.981-2.654 4.504 4.504 0 00-3.234-1.34c-.227 0-.453.019-.673.05l-.963.188.598.782c.465.627.887 1.71.39 2.292-.24.207-.51.37-.805.482-.63.294-1.535.714-1.535 1.766 0 .682.534 1.396 1.497 2.003 2.837 1.79 4.592 3.638 5.354 5.716 1.176 3.168-.36 4.971-1.85 5.923l-.667.426.585.532c.522.444 1.164.72 1.85.789h.572c.585 0 1.164-.081 1.724-.25a4.41 4.41 0 01-.49.688 4.213 4.213 0 01-3.41 1.453h-.56l-.044.557c-.007.782.34 1.521.937 2.028.157.138.333.25.522.338a4.868 4.868 0 00-1.478 3.431 4.72 4.72 0 01-.472 2.048l-.63.939h1.12c1.85 0 3.266-.507 4.247-1.515a4.79 4.79 0 001.107-1.879 2.978 2.978 0 001.932.702c.34 0 .679-.044 1.006-.12l.717-.187-.314-.664a4.691 4.691 0 010-3.287c.233-.688.396-1.402.484-2.128a3.953 3.953 0 001.83.425 3.03 3.03 0 002.586-1.37l.346-.627-.629-.263c-2.107-.87-2.573-3.212-2.667-4.476.208.043.415.068.629.075l.176.119c2.29 0 3.058-2.323 3.089-2.423l.258-.82h-.862a6.152 6.152 0 01-4.624-2.336zm2.145 4.946h-.088a2.442 2.442 0 01-1.302-.356s-.333 4.526 3.058 5.929v.018a2.385 2.385 0 01-2.026 1.065 2.854 2.854 0 01-2.384-1.04 8.842 8.842 0 01-.516 3.13 5.293 5.293 0 000 3.757 3.596 3.596 0 01-.856.107 2.18 2.18 0 01-.528-.063 2.475 2.475 0 01-1.774-1.622s.132 4.346-4.958 4.346h-.037a4.959 4.959 0 00.578-2.355c.22-3.211 2.41-3.668 2.41-3.668a3.856 3.856 0 01-1.68-.627 2.056 2.056 0 01-.736-1.54 4.821 4.821 0 003.856-1.659 4.883 4.883 0 001.127-2.316 4.4 4.4 0 01-2.825.87h-.516a2.736 2.736 0 01-1.49-.626c1.937-1.252 3.296-3.393 2.094-6.643-.969-2.604-3.29-4.551-5.624-6.017-.774-.475-1.24-1.014-1.24-1.477 0-1.09 1.554-1.12 2.196-1.878.736-.852.277-2.23-.365-3.056.183-.031.371-.044.554-.044a3.834 3.834 0 012.793 1.159c.742.7 1.026 1.759.742 2.736l.34.069c.208.037.415.056.63.062h.138c1.843 0 2.673-1.922 2.673-1.922s1.963 2.404-.925 4.283c-.496.319-.717.626-.629.939l.044.206.208.038c2.095.563 3.145 2.003 4.448 3.637a6.786 6.786 0 005.09 2.567h.037s-.63 1.991-2.517 1.991z" fill="#222220"/><path d="M52.695 40.355c.705.4 1.315.946 1.793 1.597.359.55.868.989 1.472 1.252.227.075.472.112.711.112.962 0 1.843-.544 2.284-1.396l.364-.814-.887-.05a4.251 4.251 0 01-2.453-1.396 2.53 2.53 0 00-1.83-.807 2.887 2.887 0 00-1.517.456l-.818.57.881.476zm1.472-.895l-.019.006c.535 0 1.038.232 1.397.626a4.827 4.827 0 002.85 1.578c-.34.632-1 1.027-1.724 1.033a1.66 1.66 0 01-.522-.088c-1.02-.344-1.378-1.878-3.146-2.805a2.187 2.187 0 011.164-.35zm-1.057 8.965l-.012-.012c-.516-4.132-3.53-7.119-6.883-8.928-.308-.17-.597-.307-.874-.438a4.851 4.851 0 003.938-.92s-1.944 1.42-5.92.13c1.101.714 3.24 1.716 5.197 3.344 4.882 4.27 1.39 8.44 1.39 8.44a5.095 5.095 0 001.315-5.372 9.957 9.957 0 011.422 5.678c-.139 3.281-1.97 6.149-3.857 8.434a5.621 5.621 0 00-1.12 2.467 7.509 7.509 0 011.435-2.436c2.044-2.385 3.774-4.858 4.02-8.42.213.625 1.082 2.447 2.466 3.13 0 0-1.737-1.04-2.517-5.097zm-26.044 15.27a4.903 4.903 0 01-.472-2.047 4.874 4.874 0 00-1.485-3.43c.189-.088.365-.2.522-.339a2.632 2.632 0 00.938-2.028l-.038-.557h-.566a4.227 4.227 0 01-3.404-1.453 4.893 4.893 0 01-.49-.689c.56.17 1.138.25 1.723.25h.573a3.386 3.386 0 001.856-.788l.585-.532-.667-.426c-1.497-.952-3.026-2.755-1.85-5.923.761-2.06 2.517-3.92 5.38-5.71.962-.626 1.49-1.32 1.49-2.003 0-1.052-.887-1.471-1.535-1.766a2.7 2.7 0 01-.805-.482c-.503-.582-.082-1.69.39-2.291l.629-.783-.969-.188a4.018 4.018 0 00-.673-.05 4.469 4.469 0 00-3.277 1.29 3.397 3.397 0 00-1.013 2.66h-.378c-1.415 0-2.082-1.49-2.107-1.552l-.397-.933-.629.783a3.725 3.725 0 00-.748 2.68 3.718 3.718 0 001.818 2.504c.088.056.176.119.251.188-1.988.626-3.101 2.053-4.271 3.537l-.17.213a6.165 6.165 0 01-4.63 2.335h-.862l.264.82c0 .1.793 2.423 3.089 2.423h.113a3.41 3.41 0 00.63-.075c-.095 1.252-.56 3.607-2.674 4.477l-.63.263.347.626a3.032 3.032 0 002.585 1.37 3.927 3.927 0 001.825-.425c.088.726.251 1.44.484 2.129a4.692 4.692 0 010 3.287l-.315.663.718.188c.327.075.666.12 1.006.12a2.98 2.98 0 001.931-.701 4.79 4.79 0 001.108 1.877c.987 1.008 2.403 1.51 4.246 1.515h1.12l-.566-1.026zm-.541.351c-5.09 0-4.964-4.345-4.964-4.345a2.475 2.475 0 01-1.774 1.622 2.13 2.13 0 01-.528.062c-.29 0-.573-.037-.85-.106a5.295 5.295 0 000-3.757 8.834 8.834 0 01-.51-3.13 2.854 2.854 0 01-2.384 1.04h-.031a2.395 2.395 0 01-2.032-1.071c3.39-1.403 3.057-5.93 3.057-5.93-.39.239-.843.364-1.302.358h-.069c-1.887 0-2.516-1.991-2.516-1.991h.037a6.773 6.773 0 005.096-2.561c1.296-1.634 2.353-3.074 4.448-3.638l.207-.037.044-.207c.057-.32-.163-.626-.629-.94-2.887-1.877-.924-4.282-.924-4.282s.817 1.923 2.673 1.923h.088c.214-.007.422-.025.63-.063l.34-.069a2.71 2.71 0 01.741-2.736 3.834 3.834 0 012.794-1.158 3.3 3.3 0 01.553.044c-.629.832-1.095 2.21-.358 3.055.629.733 2.189.764 2.189 1.878 0 .464-.434 1.002-1.208 1.484-2.34 1.465-4.662 3.412-5.624 6.017-1.202 3.25.157 5.41 2.095 6.643-.422.35-.944.57-1.491.626H23.8a4.4 4.4 0 01-2.825-.87 4.931 4.931 0 001.12 2.316 4.853 4.853 0 003.863 1.66 2.057 2.057 0 01-.736 1.54 3.86 3.86 0 01-1.68.625s2.195.445 2.434 3.67c-.006.82.195 1.627.58 2.353l-.032-.025z" fill="#222220"/><path d="M15.18 43.31h.007c.239 0 .484-.038.71-.113a3.361 3.361 0 001.472-1.252 5.663 5.663 0 011.787-1.596l.88-.47-.817-.57a2.883 2.883 0 00-1.51-.457c-.698.007-1.359.3-1.83.814a4.269 4.269 0 01-2.448 1.396l-.887.044.359.814a2.575 2.575 0 002.277 1.39zm1.133-3.218a1.864 1.864 0 011.39-.626 2.24 2.24 0 011.157.35c-1.78.946-2.151 2.461-3.145 2.805a1.58 1.58 0 01-.516.088c-.73 0-1.396-.4-1.736-1.04a4.827 4.827 0 002.85-1.577zm2.875 10.28a9.909 9.909 0 011.421-5.678 5.095 5.095 0 001.315 5.372s-3.498-4.17 1.39-8.44c1.957-1.628 4.09-2.63 5.19-3.343-3.975 1.29-5.92-.132-5.92-.132a4.837 4.837 0 003.933.92c-.277.132-.567.276-.875.439-3.353 1.815-6.385 4.802-6.882 8.934v-.031c-.78 4.057-2.517 5.096-2.517 5.096 1.378-.676 2.253-2.504 2.46-3.13.233 3.568 1.982 6.041 4.026 8.42a7.624 7.624 0 011.435 2.436 5.598 5.598 0 00-1.133-2.454c-1.887-2.285-3.711-5.153-3.843-8.409zm15.588-7.538c.22-.213.529-.313.837-.275v1.183a1.758 1.758 0 01-.226.833h1.189a1.758 1.758 0 01-.227-.833V42.56c.302-.038.61.062.83.275v-.82h-2.403v.82zm-.496-5.678h-.013c.182.156.396.281.63.357l.15.068v-.776l-1.396-.582c.069.388.295.726.629.933zm3.315-.007l-.006.007c.333-.207.56-.545.629-.933l-1.397.582v.77l.145-.069c.233-.075.447-.2.629-.357z" fill="#222220"/><path d="M40.1 34.013c0-1.171-1.981-2.223-4.164-2.223s-4.165 1.052-4.165 2.223l.044.288.875 5.008-.875.508-2.283 1.29s-.51.262-.749.419c-.862.626-1.044 1.465-.547 1.828a1.709 1.709 0 011.742-1.453 2.264 2.264 0 011.806.977c.126.15.239.313.34.476.132.213.264.4.396.582h-5.826c.491.84.774 1.785.837 2.755v12.878c0 3.131 2.41 4.602 5.033 4.602 2.013 0 2.283-.094 3.39 1.008 1.108-1.102 1.378-1.008 3.392-1.008 2.604 0 5.032-1.484 5.032-4.602V46.703c.063-.97.346-1.915.837-2.754h-5.888c.132-.182.264-.37.396-.583.107-.162.22-.325.34-.475a2.284 2.284 0 011.811-.977 1.71 1.71 0 011.743 1.452c.503-.356.32-1.252-.547-1.828-.233-.163-.743-.42-.743-.42l-2.264-1.327-.875-.507.875-5.008.037-.263zm-7.486.576l3.07 1.033v4.796l-2.258-1.19-.812-4.64zM27.953 44.78h5.29c.41.426.912.764 1.466.977a1.86 1.86 0 00.082 1.252c.201.42.56.745 1 .914a1.88 1.88 0 001.258 1.56c-.377.381-.748.738-.9.882l-3.516-.056a.61.61 0 01-.277-.257v-.044l.573.094h.037a.224.224 0 00.227-.188.232.232 0 00-.189-.263l-.704-.112.78-2.693-.743-1.552-1.189 1.252-.075 2.799-.8-.126a.223.223 0 00-.263.182v.006a.231.231 0 00.188.263l.334.05a1.32 1.32 0 00-.208.132l-.069.05v.081a1.834 1.834 0 00.724 1.878v.1a.462.462 0 00.377.52h.075c.208 0 .39-.144.434-.35.152.006.296.006.447 0h.095l4.61.832.076-.05c.365-.256 1.768-1.252 2.227-1.609.132.113.283.213.44.288a1.876 1.876 0 00.428 1.878H28.374v-6.767a5.64 5.64 0 00-.421-1.923zm10.971 6.192c-.478.351-1.654 1.202-2.082 1.503l-4.184-.726v-.113c.07-.282.107-.57.113-.858l3.523.057.07-.07c.056-.056 1.17-1.126 1.736-1.746.15.188.327.344.528.47-.1.513.007 1.045.296 1.483zm-6.99-.75v.018c.095.175.233.325.403.426a5.059 5.059 0 01-.075.757c0 .056 0 .113-.044.17v.087a2.79 2.79 0 01-.85-.132 1.35 1.35 0 01-.704-1.383 1.75 1.75 0 01.755-.295.524.524 0 01.516.351zm-.433-.834l.069-2.648.629-.626.384.795-.749 2.58-.333-.1zm7.391 13.95h-.603l.471-1.534c.076-.213-.314-.489-.478-.733.384.232.78.438 1.19.626 0 .05-.58 1.64-.58 1.64zm1.617-1.716l-.05-.044-.327 1.69c-.208 0-.428.044-.63.057l.347-1.628c.1-.482-1.202-.626-1.843-1.584a2.02 2.02 0 01-1.504.457 7.646 7.646 0 01-1.416-.15 1.57 1.57 0 00-.245 0 .528.528 0 00-.484.257l-.095.156-1.793-.432-.427.74c-.07.1-.057.237.031.325l.12.131c-.12.232-.27.445-.453.626l-.264-.325a.943.943 0 01.044-1.052l.704-1.184 1.504.226-.233-.532c-.315-.701.163-1.597.214-2.11 0 .156-.164.188-.327.188h-.434a.275.275 0 00-.101 0l-.409.244-.32-.294a.226.226 0 01.043-.276l.742-.833-.88-1.02 1.258.626.377-.45c.101.1.057.362.057.362a1.998 1.998 0 011.522 1.991v.182a.91.91 0 00.554.394l1.705.17c.34-.107.686-.176 1.038-.22.302 0 .604.094.855.257a.799.799 0 01.41-.138h.056c.761 0 1.082.689 1.491 1.252.308.432.724 1.083.724 1.083a.638.638 0 01-.529.282 1.285 1.285 0 01-.22 0c-.818-.15-.938-1.828-1.403-1.96h-.075c-.089 0-.17.05-.214.132.214.57.088.801.32 1.252.17.27.384.514.63.72 0 0-.032.25-.07.432zm-9.166-1.64h-.012l.075.194c-.05.169-.629.413-.629.413l-.126-.275a.923.923 0 01.302-1.102l.95-.576 1.013.212a.9.9 0 00.176.558l-1.063-.2-.629.438a.268.268 0 00-.057.338zm12.167-.407a3.537 3.537 0 01-2.862 3.606l.29-1.515c0-.088.03-.194.043-.282.088.038.176.063.264.082.101.006.202.006.302 0a1.1 1.1 0 00.881-.432l.227-.263-.19-.257s-.42-.664-.735-1.102l-.176-.263c-.353-.526-.8-1.19-1.686-1.19h-.082a1.307 1.307 0 00-.378.076c-.27-.132-.566-.2-.868-.2a2.686 2.686 0 00-.887.168l-.15.044-1.662-.163a.42.42 0 01-.17-.144l.36-.144c-.102-1.195-1.259-1.928-1.888-2.172a.696.696 0 00-.189-.338l-.358-.338-.315.375-.157.188-2.328-.951 1.516 1.878-.597.901a.326.326 0 000 .464l.629.425.629-.238h.063c0 .094-.07.476-.101.583l-1.095-.188-1.17.626a1.374 1.374 0 00-.446 1.703l.132.282.182.4.41-.169a1.25 1.25 0 00.175 1.203l.245.313.328.413.364-.389c.24-.237.428-.513.56-.82l.076-.25-.176-.194v-.038l.201-.325 1.453.338.327.075.177-.288.094-.157c0-.031 0-.037.088-.037h.157c.497.1 1 .15 1.504.156.34.02.68-.018 1.006-.119l.806.915-.478 1.464v.088a2.522 2.522 0 00-1.888.801c-.774-.763-1.32-.845-3.39-.845-2.485 0-4.165-1.446-4.165-3.756V53.94H43.51v5.635zm.41-14.795a5.436 5.436 0 00-.422 1.922v4.22a1.26 1.26 0 01-.994-1.14v-.193h-.19a1.345 1.345 0 01-.855-.407 1.772 1.772 0 01-.434-1.14 1.252 1.252 0 00.07 1.415c.245.307.603.514.993.564.114.726.699 1.29 1.428 1.383v2.066h-2.642a1.449 1.449 0 01-.673-1.878l.1-.225-.232-.088a1.476 1.476 0 01-.931-1.834l.05-.188-.176-.082a1.87 1.87 0 01-.918-1.878 1.15 1.15 0 00-.214 1.321c-.126.144-.29.313-.472.501a1.463 1.463 0 01-1.164-1.377v-.157l-.145-.056a1.452 1.452 0 01-.88-.726 1.425 1.425 0 01-.063-.914c.126.025.251.043.377.056.126.006.258.006.384 0 1.02 0 1.988-.438 2.667-1.19l5.335.025zm-4.078-4.27l1.032.627.258.15a3.035 3.035 0 00-1.403.833l-.044.037c-.088.094-.17.188-.251.288l-.05.063a2.92 2.92 0 00-.227.319l-.038.056c-.088.126-.17.263-.252.401a3.71 3.71 0 01-2.95 2.016 3.71 3.71 0 01-2.95-2.016 21.79 21.79 0 00-.246-.4l-.05-.07-.202-.325-.056-.069a5.676 5.676 0 00-.245-.282l-.045-.044a3.033 3.033 0 00-1.402-.832l.264-.15 1.038-.627 1.063-.626 2.837 1.534 2.837-1.484 1.083.602zm-1.396-1.252l-2.259 1.184v-4.815l3.064-1.033-.805 4.664zm-2.517-4.138l-3.359-1.34c.283-.676 1.604-1.252 3.36-1.252 1.755 0 3.076.576 3.359 1.252l-3.36 1.34z" fill="#222220"/></svg>