<svg width="210" height="100" fill="none" xmlns="http://www.w3.org/2000/svg"><g clip-path="url(#clip0)"><path d="M111.698 53.416c-.069.017-.345.017-.466.017h-8.907v2.077h9.062c.069 0 .605 0 .708-.017 1.847-.173 2.693-1.714 2.693-3.064 0-1.384-.88-2.873-2.555-3.029-.328-.034-.604-.034-.725-.034h-5.921c-.258 0-.552-.018-.656-.052-.466-.121-.638-.537-.638-.883 0-.311.172-.727.656-.865.138-.035.293-.052.621-.052h8.545V45.47h-8.683c-.362 0-.639.018-.863.052-1.485.208-2.52 1.402-2.52 2.925 0 1.247.777 2.7 2.485 2.943.311.035.743.035.933.035h5.765c.104 0 .363 0 .414.017.656.086.881.571.881 1.004a.968.968 0 01-.829.969zm-16.882 0c-.069.017-.345.017-.449.017h-8.924v2.077h9.062c.07 0 .605 0 .708-.017 1.847-.173 2.693-1.714 2.693-3.064 0-1.384-.88-2.873-2.555-3.029-.328-.034-.604-.034-.725-.034h-5.92c-.26 0-.553-.018-.657-.052-.466-.121-.638-.537-.638-.883 0-.311.172-.727.656-.865.138-.035.293-.052.621-.052h8.545V45.47H88.55c-.363 0-.639.018-.863.052-1.485.208-2.52 1.402-2.52 2.925 0 1.247.776 2.7 2.485 2.943.311.035.743.035.933.035h5.765c.104 0 .362 0 .414.017.656.086.88.571.88 1.004 0 .415-.241.865-.828.969zm-16.26-8.014h2.243v10.16h-2.244v-10.16zm-14.673 0H61v10.16h2.244v-7.616l7.526 7.616h2.831v-10.16h-2.244v7.581l-7.474-7.581zm71.533 10.16h2.244v-7.616l7.509 7.616H148v-10.16h-2.227v7.581l-7.474-7.581h-2.883v10.16zm-11.686-10.16l-6.318 10.16h2.727l1.122-1.817h7.371l1.122 1.817h2.71l-6.318-10.16h-2.416zm3.746 6.422h-5.058l2.537-4.085 2.521 4.085zM73.48 39.638C78.003 26.397 90.466 17.5 104.517 17.5c14.051 0 26.532 8.897 31.037 22.138l.035.104h9.891v-1.194l-4.109-.485c-2.537-.294-3.072-1.42-3.763-2.839l-.172-.346c-5.938-12.67-18.868-20.874-32.919-20.874-14.068 0-26.98 8.204-32.918 20.909l-.173.346c-.69 1.42-1.225 2.544-3.763 2.839l-4.108.484v1.195h9.873l.052-.139zm62.11 21.602l-.035.103c-4.523 13.242-16.986 22.121-31.037 22.121-14.051 0-26.531-8.897-31.037-22.138l-.034-.104h-9.874v1.195l4.108.484c2.538.295 3.073 1.42 3.763 2.839l.173.346c5.938 12.705 18.867 20.91 32.918 20.91 14.052 0 26.981-8.205 32.919-20.892l.173-.347c.69-1.419 1.225-2.544 3.763-2.838l4.108-.485V61.24h-9.908z" fill="#000"/></g><defs><clipPath id="clip0"><path fill="#fff" transform="translate(61 14)" d="M0 0h87v73H0z"/></clipPath></defs></svg>