<svg width="210" height="100" viewBox="0 0 210 137" fill="none" xmlns="http://www.w3.org/2000/svg"><path d="M159.228 78.754c-.693.483-1.155.651-1.723.651-.945 0-2.458-.861-2.458-3.172 0-1.387.651-2.144 1.933-2.795.819-.462 1.513-.904 2.269-1.282v6.598h-.021zm7.796.063c-.462.168-.904.336-1.387.336-.651 0-1.324-.525-1.324-2.416V69.95c0-2.312-.378-4.077-2.143-5.421-1.114-.82-2.332-1.198-4.034-1.198-2.333.42-5.253 1.849-6.829 2.92-.946.694-1.429 1.24-1.429 1.976 0 1.072 1.471 2.059 2.542 2.059.862 0 1.429-.336 1.723-1.387.336-1.281.694-2.27 1.198-2.836.378-.484.819-.736 1.366-.736 1.513 0 2.5 1.429 2.5 4.035v1.24c-.945.819-4.118 1.806-6.535 2.71-2.143.777-3.13 1.807-3.13 3.95 0 2.543 2.059 5.253 5.547 5.253.777 0 2.71-1.366 4.265-2.374.21.483.484 1.03 1.072 1.513.525.483 1.387.861 2.5.861l4.476-2.332-.378-1.366zm-27.211-.105c-.904.567-1.513.651-2.269.651-1.892 0-4.812-1.933-4.854-6.997 0-6.24 3.173-7.312 4.16-7.312 1.198 0 2.312.693 2.963 2.143v11.515zm5.274-1.891V53.098c-2.101.61-5.379 1.156-8.006 1.47v1.283c2.501.294 2.753.504 2.753 2.71v4.98c-.904-.126-1.366-.21-1.681-.21-6.409 0-11.263 4.56-11.263 10.149 0 6.114 4.896 8.993 8.384 8.993.484 0 1.072-.126 2.101-.735l2.459-1.597v2.374c3.257-.945 7.102-1.429 8.09-1.597v-1.324l-.904-.084c-1.723-.189-1.933-.357-1.933-2.69zm-30.132 4.055c-2.584 0-4.181-3.992-4.181-9.035 0-4.728 1.639-6.913 3.362-6.913 2.584 0 4.034 3.173 4.034 8.867 0 6.052-1.639 7.081-3.215 7.081zm-.273-17.545c-4.559 0-9.77 3.362-9.77 9.98 0 4.476 3.172 9.162 9.623 9.162 4.812 0 9.54-3.278 9.54-9.897-.042-4.938-3.656-9.245-9.393-9.245zm-13.742 14.54V69.95c0-4.182-1.933-6.619-5.505-6.619-1.24 0-2.353.525-3.257 1.156-.987.693-1.975 1.323-2.963 2.1-.735-1.89-2.416-3.256-4.685-3.256-1.198 0-2.312.483-3.572 1.324-.904.525-1.681 1.113-2.585 1.765v-3.173c-2.542.693-5.295 1.282-7.228 1.555v1.197c1.89.295 2.101.694 2.101 3.047v8.636c0 2.585-.252 2.71-2.584 3.005v1.324h9.665v-1.324c-1.555-.252-1.849-.462-1.849-2.794V67.87c1.156-.862 2.185-1.324 3.173-1.324 1.513 0 2.837.903 2.837 3.866v7.48c0 2.417-.168 2.5-2.102 2.795v1.324h9.498v-1.324c-1.85-.252-2.143-.462-2.143-2.794v-8.3c0-.61-.084-1.198-.126-1.64 1.365-1.113 2.374-1.365 3.215-1.365 1.323 0 2.92.651 2.92 4.034v7.06c0 2.585-.336 2.753-2.143 3.005v1.324h9.708v-1.324c-2.207-.336-2.375-.462-2.375-2.816zM63.055 71.8c-1.387 2.837-6.03 8.048-7.648 8.048-.568 0-1.114-.862-1.114-2.711 0-4.076 1.639-8.91 4.434-10.968.693-.526 1.849-.862 2.92-.862 1.072 0 2.186.294 2.753.568-.273 1.323-.883 4.286-1.345 5.925zm1.891 7.564c-.252 0-.378-.336-.084-1.765.946-5.21 2.185-10.8 2.837-13.364l-.126-.168c-.462 0-.988-.126-1.555-.252-.862-.168-1.681-.294-2.543-.294-2.584 0-5.589 1.429-7.648 3.173-3.005 2.5-4.938 6.976-4.938 11.136 0 3.278 1.324 4.644 2.374 4.644 1.114 0 2.459-.735 3.825-1.849a28.894 28.894 0 005.295-5.673h.084l-.82 3.908c-.567 3.005-.042 3.614.736 3.614 1.03 0 3.782-1.513 6.01-4.265l-.484-.988c-1.198 1.198-2.627 2.143-2.963 2.143zM49.46 52.741c-.525 0-2.879 1.071-6.072 1.429l-.169.987 1.114.042c1.891 0 2.143.294 1.723 2.06-1.387 6.786-2.837 13.51-4.265 20.255-.862 4.035-.21 4.98.567 4.98 1.282 0 4.181-1.849 6.325-4.391l-.61-.904c-1.155 1.198-2.836 2.27-3.278 2.27-.252 0-.42-.253-.168-1.43 1.723-8.131 3.404-16.116 5.106-24.038.126-.903.084-1.26-.273-1.26z" fill="#000106"/></svg>