<svg width="16" height="17" viewBox="0 0 16 17" fill="none" xmlns="http://www.w3.org/2000/svg">
<path fill-rule="evenodd" clip-rule="evenodd" d="M12.6668 3.16663C13.7714 3.16663 14.6668 4.06206 14.6668 5.16663V11.8333C14.6668 12.9379 13.7714 13.8333 12.6668 13.8333H3.3335C2.22893 13.8333 1.3335 12.9379 1.3335 11.8333V5.16663C1.3335 4.06206 2.22893 3.16663 3.3335 3.16663H12.6668ZM13.3335 5.3853L8.4392 9.66835C8.20879 9.86995 7.87423 9.88675 7.62647 9.71875L7.56119 9.66835L2.66686 5.38596V11.8333C2.66686 12.2015 2.96534 12.5 3.33353 12.5H12.6669C13.0351 12.5 13.3335 12.2015 13.3335 11.8333V5.3853ZM12.3202 4.49997H3.67882L8.00016 8.28079L12.3202 4.49997Z" fill="#63B5B6"/>
</svg>
