<svg width="16" height="17" viewBox="0 0 16 17" fill="none" xmlns="http://www.w3.org/2000/svg">
<path fill-rule="evenodd" clip-rule="evenodd" d="M8 1.83331C11.3137 1.83331 14 4.49046 14 7.76822C14 9.93722 12.1851 12.2305 8.63217 14.7287L8 15.1666L7.61853 14.9034C3.90028 12.3372 2 9.98766 2 7.76822C2 4.49046 4.68629 1.83331 8 1.83331ZM8.00003 3.15218C5.4227 3.15218 3.33337 5.21885 3.33337 7.76822C3.33337 9.36988 4.86451 11.3243 8.00003 13.5545C11.1356 11.3243 12.6667 9.36988 12.6667 7.76822C12.6667 5.21885 10.5774 3.15218 8.00003 3.15218ZM8.00003 4.49998C9.47279 4.49998 10.6667 5.69389 10.6667 7.16665C10.6667 8.63941 9.47279 9.83332 8.00003 9.83332C6.52727 9.83332 5.33337 8.63941 5.33337 7.16665C5.33337 5.69389 6.52727 4.49998 8.00003 4.49998ZM7.99997 5.83331C7.26359 5.83331 6.66663 6.43027 6.66663 7.16665C6.66663 7.90303 7.26359 8.49998 7.99997 8.49998C8.73635 8.49998 9.3333 7.90303 9.3333 7.16665C9.3333 6.43027 8.73635 5.83331 7.99997 5.83331Z" fill="#63B5B6"/>
</svg>
