<svg width="16" height="17" viewBox="0 0 16 17" fill="none" xmlns="http://www.w3.org/2000/svg">
<path fill-rule="evenodd" clip-rule="evenodd" d="M6.36996 7.05474C6.55543 6.9311 6.66683 6.72294 6.66683 6.50004V3.83337C6.66683 2.7288 5.7714 1.83337 4.66683 1.83337H2.00016C1.63197 1.83337 1.3335 2.13185 1.3335 2.50004C1.3335 9.12746 7.37275 15.1667 14.0002 15.1667C14.3684 15.1667 14.6668 14.8682 14.6668 14.5V11.8334C14.6668 10.7288 13.7714 9.83337 12.6668 9.83337H10.0002C9.77726 9.83337 9.56911 9.94478 9.44546 10.1302L8.17523 12.0356C6.79176 11.141 5.57966 9.95949 4.64732 8.59935L4.46462 8.32497L6.36996 7.05474ZM10.357 11.1667H12.6669C13.0351 11.1667 13.3335 11.4652 13.3335 11.8334V13.8103C12.042 13.7209 10.7816 13.3755 9.60603 12.8278L9.33626 12.6978L10.357 11.1667ZM2.6899 3.16672H4.66678C5.03497 3.16672 5.33345 3.46519 5.33345 3.83338V6.14326L3.80237 7.16398C3.17933 5.91235 2.78614 4.55756 2.6899 3.16672Z" fill="#63B5B6"/>
</svg>
