<svg width="16" height="16" fill="none" xmlns="http://www.w3.org/2000/svg"><path d="M14 0H2a2 2 0 00-2 2v12a2 2 0 002 2h12a2 2 0 002-2V2a2 2 0 00-2-2z" fill="#735A88"/><path fill-rule="evenodd" clip-rule="evenodd" d="M13.185 10.796c-.381-.307-.789-.583-1.19-.864-.8-.562-1.53-.605-2.128.298-.335.508-.804.53-1.294.307C7.22 9.924 6.176 8.98 5.565 7.605c-.27-.608-.267-1.153.366-1.583.335-.228.673-.497.646-.994-.036-.648-1.609-2.813-2.23-3.042a1.13 1.13 0 00-.775 0c-1.457.49-2.06 1.688-1.482 3.106 1.724 4.233 4.758 7.18 8.934 8.978.238.102.503.143.637.18.95.01 2.065-.907 2.386-1.816.31-.874-.345-1.222-.862-1.638zM8.502 2.42c3.053.47 4.461 1.921 4.85 4.997.036.284-.07.711.336.72.423.007.321-.414.325-.698.036-2.897-2.49-5.582-5.423-5.68-.221.031-.68-.153-.708.343-.019.334.367.28.62.318z" fill="#fff"/><path fill-rule="evenodd" clip-rule="evenodd" d="M9.1 3.263c-.295-.035-.682-.174-.75.234-.073.428.36.384.637.446 1.886.422 2.543 1.108 2.853 2.979.046.273-.045.697.419.627.343-.053.22-.416.248-.629.015-1.796-1.524-3.43-3.408-3.657z" fill="#fff"/><path fill-rule="evenodd" clip-rule="evenodd" d="M9.272 4.732c-.196.005-.388.026-.46.235-.108.313.12.388.35.425.775.125 1.182.58 1.259 1.352.02.21.154.38.356.355.28-.033.306-.283.297-.52.014-.866-.966-1.868-1.802-1.847z" fill="#fff"/></svg>