<svg width="18" height="18" fill="none" xmlns="http://www.w3.org/2000/svg"><g clip-path="url(#clip0)"><path d="M8.995.005a8.995 8.995 0 00-7.57 13.849l-1.4 3.63a.375.375 0 00.476.488l3.748-1.337A8.995 8.995 0 108.995.005z" fill="#68AA6B"/><path d="M13.283 10.537s-.918-.45-1.493-.75c-.65-.335-1.415.292-1.775.65a4.51 4.51 0 01-1.504-.956 4.507 4.507 0 01-.955-1.504c.357-.36.983-1.124.65-1.775a114.37 114.37 0 01-.75-1.494.375.375 0 00-.335-.206h-.75a2.258 2.258 0 00-1.873 2.249c0 1.177 1.408 3.437 2.358 4.388.95.95 3.21 2.358 4.388 2.358a2.259 2.259 0 002.249-1.874v-.75a.375.375 0 00-.21-.336z" fill="#FAFAFA"/></g><defs><clipPath id="clip0"><path fill="#fff" d="M0 0h18v18H0z"/></clipPath></defs></svg>