<svg width="24" height="24" fill="none" xmlns="http://www.w3.org/2000/svg"><path d="M8.611 21.99a2.25 2.25 0 01-1.35-.46l-2.068-1.539a2.369 2.369 0 01-.49-3.218 2.06 2.06 0 00.23-1.86l-.06-.16a1.83 1.83 0 00-1.12-1.219h-.16a2.339 2.339 0 01-1.479-2.938l.82-2.599A2.18 2.18 0 014.88 6.356c.288-.02.578.017.851.112a1.929 1.929 0 001.78-.29l.13-.1a1.94 1.94 0 00.73-1.51v-.24A2.319 2.319 0 0110.66 2h2.549a2.26 2.26 0 011.6.67 2.37 2.37 0 01.679 1.679v.28a1.759 1.759 0 00.69 1.43l.11.079a1.739 1.739 0 001.589.26l.34-.11a2.259 2.259 0 012.878 1.51l.79 2.518a2.359 2.359 0 01-1.46 2.929l-.2.07a1.89 1.89 0 00-1.229 1.279 1.999 1.999 0 00.25 1.65l.26.379a2.379 2.379 0 01-.5 3.229L16.997 21.4a2.237 2.237 0 01-3.218-.53l-.12-.17a1.749 1.749 0 00-1.5-.78 1.8 1.8 0 00-1.429.77l-.23.33a2.249 2.249 0 01-1.5.97c-.129.012-.26.012-.389 0zM4.403 11.616a3.829 3.829 0 012.379 2.5v.12a3.998 3.998 0 01-.46 3.617.38.38 0 000 .51l2.15 1.63a.25.25 0 00.369-.07l.23-.33a3.768 3.768 0 016.197 0l.12.18a.3.3 0 00.18.12.25.25 0 00.19-.05l2.059-1.56a.36.36 0 00.07-.49l-.26-.38a3.999 3.999 0 01-.53-3.418 3.919 3.919 0 012.489-2.608l.2-.07a.34.34 0 00.19-.44l-.78-2.489a.35.35 0 00-.2-.19.21.21 0 00-.19 0l-.34.11a3.738 3.738 0 01-3.428-.57l-.04-.09a3.758 3.758 0 01-1.49-2.998v-.31a.37.37 0 00-.1-.26.31.31 0 00-.21-.08H10.66a.31.31 0 00-.29.33v.25a3.898 3.898 0 01-1.52 3.088l-.129.1a3.908 3.908 0 01-3.628.59.22.22 0 00-.14 0 .28.28 0 00-.12.15l-.83 2.609a.36.36 0 00.22.45l.18.05z" fill="#fff"/><path d="M12 15.494a3.498 3.498 0 110-6.997 3.498 3.498 0 010 6.997zm0-4.998a1.5 1.5 0 100 2.999 1.5 1.5 0 000-3z" fill="#fff"/></svg>