<svg width="417" height="283" fill="none" xmlns="http://www.w3.org/2000/svg"><path d="M103.4 69.76v96.14h17.16v22.88H103.4v27.72H76.56v-27.72H4.84v-12.76L77.66 69.76h25.74zM38.72 165.9h37.84v-55.88L38.72 165.9zm356.558-96.14v96.14h17.16v22.88h-17.16v27.72h-26.84v-27.72h-71.72v-12.76l72.82-106.26h25.74zm-64.68 96.14h37.84v-55.88l-37.84 55.88z" fill="#7C7093"/><path d="M248.459 199.56c-11 13.493-24.347 20.24-40.04 20.24-15.693 0-29.113-6.747-40.26-20.24-11-13.64-16.5-32.487-16.5-56.54 0-23.907 5.5-42.607 16.5-56.1 11.147-13.64 24.567-20.46 40.26-20.46 15.693 0 29.04 6.82 40.04 20.46 11.147 13.493 16.72 32.267 16.72 56.32 0 23.907-5.573 42.68-16.72 56.32zm-20.68-95.48c-5.72-8.653-12.173-12.98-19.36-12.98-7.187 0-13.713 4.327-19.58 12.98-5.72 8.507-8.58 21.487-8.58 38.94s2.86 30.507 8.58 39.16c5.72 8.653 12.247 12.98 19.58 12.98 7.333 0 13.86-4.327 19.58-12.98 5.72-8.653 8.58-21.707 8.58-39.16 0-17.453-2.933-30.433-8.8-38.94z" fill="#63B5B6"/><path fill="#fff" d="M368 202.5h14v14h-14zm-292 0h14v14H76zm306-14h14v14h-14zm-292 0h14v14H90zm309-13h14v14h-14zm-292 0h14v14h-14zm261-23h14v14h-14zm-292 0h14v14H76zm292-42h14v14h-14zm-292 0h14v14H76zm306 14h14v14h-14zm-130 14h14v14h-14zm0-28h14v14h-14zm-14 42h14v14h-14zm0 27h14v14h-14zm14-13h14v14h-14zm-14-84h14v14h-14zm-14 14h14v14h-14zm-48 14h14v14h-14zm25 83h14v14h-14zm14 14h14v14h-14zm-125-83h14v14H90zm292-55h14v14h-14zm-292 0h14v14H90z"/></svg>