<svg width="43" height="53" viewBox="0 0 43 53" fill="none" xmlns="http://www.w3.org/2000/svg">
<rect y="11" width="42" height="42" fill="#C4C4C4"/>
<rect x="21" y="11" width="21" height="21" fill="white"/>
<path d="M27 21.824L33.272 14.688C35.32 12.2987 36.536 10.816 36.92 10.24C37.752 9.00267 38.168 7.86133 38.168 6.816C38.168 5.856 37.8587 5.07733 37.24 4.48C36.6427 3.88267 35.896 3.584 35 3.584C33.976 3.584 33.1653 3.936 32.568 4.64C31.9707 5.32267 31.6507 6.15467 31.608 7.136H27.32C27.4053 4.98133 28.1413 3.25333 29.528 1.952C30.9147 0.650667 32.6747 0 34.808 0C37.1547 0 38.9893 0.672 40.312 2.016C41.656 3.36 42.328 4.94933 42.328 6.784C42.328 7.808 42.0933 8.832 41.624 9.856C41.1547 10.88 40.7067 11.6587 40.28 12.192C39.8533 12.704 39.2453 13.3867 38.456 14.24L34.776 18.24H42.488V21.824H27Z" fill="black"/>
</svg>
