<svg width="74" height="86" viewBox="0 0 74 86" fill="none" xmlns="http://www.w3.org/2000/svg">
<rect width="74" height="74" transform="matrix(-1 0 0 1 74 12)" fill="#C4C4C4"/>
<rect width="37" height="37" transform="matrix(-1 0 0 1 37 12)" fill="white"/>
<path d="M4.94232 6.22403H1.03832C1.23032 4.32536 1.96632 2.84269 3.24632 1.77603C4.52632 0.709359 6.10498 0.176025 7.98232 0.176025C10.0303 0.176025 11.6517 0.709359 12.8463 1.77603C14.0623 2.84269 14.6703 4.27203 14.6703 6.06403C14.6703 8.13336 13.849 9.62669 12.2063 10.544C14.3823 11.44 15.4703 13.136 15.4703 15.632C15.4703 17.7654 14.745 19.44 13.2943 20.656C11.865 21.872 10.0517 22.48 7.85432 22.48C5.76365 22.48 4.00365 21.8827 2.57432 20.688C1.14498 19.472 0.344983 17.8614 0.174316 15.856H4.33432C4.46232 16.7734 4.83565 17.5094 5.45432 18.064C6.07298 18.6187 6.88365 18.896 7.88632 18.896C8.99565 18.896 9.83832 18.5654 10.4143 17.904C11.0117 17.2214 11.3103 16.4214 11.3103 15.504C11.3103 14.608 11.0117 13.8294 10.4143 13.168C9.83832 12.5067 8.95298 12.176 7.75832 12.176H7.21432V9.16803H7.79032C8.75032 9.16803 9.47565 8.89069 9.96632 8.33603C10.457 7.76003 10.7023 7.06669 10.7023 6.25603C10.7023 5.40269 10.4463 4.72003 9.93432 4.20802C9.42232 3.69603 8.73965 3.44003 7.88632 3.44003C7.09698 3.44003 6.41432 3.68536 5.83832 4.17603C5.28365 4.66669 4.98498 5.34936 4.94232 6.22403Z" fill="black"/>
</svg>
