<svg width="43" height="53" viewBox="0 0 43 53" fill="none" xmlns="http://www.w3.org/2000/svg">
<rect y="11" width="42" height="42" fill="#C4C4C4"/>
<rect x="21" y="11" width="21" height="21" fill="white"/>
<path d="M31.768 6.048H27.864C28.056 4.14933 28.792 2.66667 30.072 1.6C31.352 0.533333 32.9307 0 34.808 0C36.856 0 38.4773 0.533333 39.672 1.6C40.888 2.66667 41.496 4.096 41.496 5.888C41.496 7.95733 40.6747 9.45067 39.032 10.368C41.208 11.264 42.296 12.96 42.296 15.456C42.296 17.5893 41.5707 19.264 40.12 20.48C38.6907 21.696 36.8773 22.304 34.68 22.304C32.5893 22.304 30.8293 21.7067 29.4 20.512C27.9707 19.296 27.1707 17.6853 27 15.68H31.16C31.288 16.5973 31.6613 17.3333 32.28 17.888C32.8987 18.4427 33.7093 18.72 34.712 18.72C35.8213 18.72 36.664 18.3893 37.24 17.728C37.8373 17.0453 38.136 16.2453 38.136 15.328C38.136 14.432 37.8373 13.6533 37.24 12.992C36.664 12.3307 35.7787 12 34.584 12H34.04V8.992H34.616C35.576 8.992 36.3013 8.71467 36.792 8.16C37.2827 7.584 37.528 6.89067 37.528 6.08C37.528 5.22667 37.272 4.544 36.76 4.032C36.248 3.52 35.5653 3.264 34.712 3.264C33.9227 3.264 33.24 3.50933 32.664 4C32.1093 4.49067 31.8107 5.17333 31.768 6.048Z" fill="black"/>
</svg>
