<svg width="74" height="86" viewBox="0 0 74 86" fill="none" xmlns="http://www.w3.org/2000/svg">
<rect y="12" width="74" height="74" fill="#C4C4C4"/>
<rect x="37" y="12" width="37" height="37" fill="white"/>
<path d="M55.9822 22L62.2542 14.864C64.3022 12.4747 65.5182 10.992 65.9022 10.416C66.7342 9.17869 67.1502 8.03736 67.1502 6.99203C67.1502 6.03203 66.8408 5.25336 66.2222 4.65602C65.6248 4.05869 64.8782 3.76003 63.9822 3.76003C62.9582 3.76003 62.1475 4.11203 61.5502 4.81603C60.9528 5.49869 60.6328 6.33069 60.5902 7.31203H56.3022C56.3875 5.15736 57.1235 3.42936 58.5102 2.12803C59.8968 0.826692 61.6568 0.176025 63.7902 0.176025C66.1368 0.176025 67.9715 0.848026 69.2942 2.19203C70.6382 3.53603 71.3102 5.12536 71.3102 6.96003C71.3102 7.98403 71.0755 9.00803 70.6062 10.032C70.1368 11.056 69.6888 11.8347 69.2622 12.368C68.8355 12.88 68.2275 13.5627 67.4382 14.416L63.7582 18.416H71.4702V22H55.9822Z" fill="black"/>
</svg>
