<svg width="24" height="24" fill="none" xmlns="http://www.w3.org/2000/svg"><path d="M3.613 6.21l.094.083L10 12.585l3.293-3.292a1 1 0 011.32-.083l.094.083L19 13.585l1.293-1.292c.602-.603 1.614-.22 1.701.593L22 13l-.002 4.06-.009.087-.025.119-.024.076-.034.081-.052.098-.067.096-.08.09a1.012 1.012 0 01-.112.097l-.11.071-.114.054-.105.035-.117.025-.06.007L21 18h-4c-.852 0-1.297-.985-.783-1.622l.076-.085L17.585 15 14 11.415l-3.293 3.292a1 1 0 01-1.32.083l-.094-.083-7-7a1 1 0 011.32-1.497z" fill="#fff"/></svg>