<svg width="24" height="24" fill="none" xmlns="http://www.w3.org/2000/svg"><path fill-rule="evenodd" clip-rule="evenodd" d="M19 13a3 3 0 013 3v3a3 3 0 01-3 3h-3a3 3 0 01-3-3v-3a3 3 0 013-3h3zM8 13a3 3 0 013 3v3a3 3 0 01-3 3H5a3 3 0 01-3-3v-3a3 3 0 013-3h3zm11 2h-3a1 1 0 00-1 1v3a1 1 0 001 1h3a1 1 0 001-1v-3a1 1 0 00-1-1zM8 15H5a1 1 0 00-1 1v3a1 1 0 001 1h3a1 1 0 001-1v-3a1 1 0 00-1-1zM8 2a3 3 0 013 3v3a3 3 0 01-3 3H5a3 3 0 01-3-3V5a3 3 0 013-3h3zm11 0a3 3 0 013 3v3a3 3 0 01-3 3h-3a3 3 0 01-3-3V5a3 3 0 013-3h3zM8 4H5a1 1 0 00-1 1v3a1 1 0 001 1h3a1 1 0 001-1V5a1 1 0 00-1-1zm11 0h-3a1 1 0 00-1 1v3a1 1 0 001 1h3a1 1 0 001-1V5a1 1 0 00-1-1z" fill="#fff"/></svg>