<svg width="24" height="24" fill="none" xmlns="http://www.w3.org/2000/svg"><path fill-rule="evenodd" clip-rule="evenodd" d="M5 2h12a3 3 0 012.995 2.824L20 5v3.171A3 3 0 0122 11v2a3.001 3.001 0 01-2 2.829V19a3 3 0 01-2.824 2.995L17 22H5a3 3 0 01-2.995-2.824L2 19V5a3 3 0 012.824-2.995L5 2h12H5zm12 2H5a1 1 0 00-.993.883L4 5v14a1 1 0 00.883.993L5 20h12a1 1 0 00.993-.883L18 19v-3h-1a3 3 0 01-3-3v-2a3 3 0 013-3h1V5a1 1 0 00-.883-.993L17 4zm2 6h-2a1 1 0 00-1 1v2a1 1 0 001 1h2a1 1 0 001-1v-2a1 1 0 00-1-1z" fill="#fff"/></svg>