<svg width="417" height="283" viewBox="0 0 417 283" fill="none" xmlns="http://www.w3.org/2000/svg">
<path d="M103.4 69.76V165.9H120.56V188.78H103.4V216.5H76.56V188.78H4.84V176.02L77.66 69.76H103.4ZM38.72 165.9H76.56V110.02L38.72 165.9ZM395.278 69.76V165.9H412.438V188.78H395.278V216.5H368.438V188.78H296.718V176.02L369.538 69.76H395.278ZM330.598 165.9H368.438V110.02L330.598 165.9Z" fill="#7C7093"/>
<path d="M248.459 199.56C237.459 213.053 224.112 219.8 208.419 219.8C192.726 219.8 179.306 213.053 168.159 199.56C157.159 185.92 151.659 167.073 151.659 143.02C151.659 119.113 157.159 100.413 168.159 86.92C179.306 73.28 192.726 66.46 208.419 66.46C224.112 66.46 237.459 73.28 248.459 86.92C259.606 100.413 265.179 119.187 265.179 143.24C265.179 167.147 259.606 185.92 248.459 199.56ZM227.779 104.08C222.059 95.4267 215.606 91.1 208.419 91.1C201.232 91.1 194.706 95.4267 188.839 104.08C183.119 112.587 180.259 125.567 180.259 143.02C180.259 160.473 183.119 173.527 188.839 182.18C194.559 190.833 201.086 195.16 208.419 195.16C215.752 195.16 222.279 190.833 227.999 182.18C233.719 173.527 236.579 160.473 236.579 143.02C236.579 125.567 233.646 112.587 227.779 104.08Z" fill="#63B5B6"/>
<rect x="368" y="202.5" width="14" height="14" fill="white"/>
<rect x="76" y="202.5" width="14" height="14" fill="white"/>
<rect x="382" y="188.5" width="14" height="14" fill="white"/>
<rect x="90" y="188.5" width="14" height="14" fill="white"/>
<rect x="399" y="175.5" width="14" height="14" fill="white"/>
<rect x="107" y="175.5" width="14" height="14" fill="white"/>
<rect x="368" y="152.5" width="14" height="14" fill="white"/>
<rect x="76" y="152.5" width="14" height="14" fill="white"/>
<rect x="368" y="110.5" width="14" height="14" fill="white"/>
<rect x="76" y="110.5" width="14" height="14" fill="white"/>
<rect x="382" y="124.5" width="14" height="14" fill="white"/>
<rect x="252" y="138.5" width="14" height="14" fill="white"/>
<rect x="252" y="110.5" width="14" height="14" fill="white"/>
<rect x="238" y="152.5" width="14" height="14" fill="white"/>
<rect x="238" y="179.5" width="14" height="14" fill="white"/>
<rect x="252" y="166.5" width="14" height="14" fill="white"/>
<rect x="238" y="82.5" width="14" height="14" fill="white"/>
<rect x="224" y="96.5" width="14" height="14" fill="white"/>
<rect x="176" y="110.5" width="14" height="14" fill="white"/>
<rect x="201" y="193.5" width="14" height="14" fill="white"/>
<rect x="215" y="207.5" width="14" height="14" fill="white"/>
<rect x="90" y="124.5" width="14" height="14" fill="white"/>
<rect x="382" y="69.5" width="14" height="14" fill="white"/>
<rect x="90" y="69.5" width="14" height="14" fill="white"/>
</svg>
